<svg xmlns="http://www.w3.org/2000/svg" width="670.15546mm" height="400.00003mm" viewBox="0 0 670.15546 400.00003"><path d="M-78.08 320.107c265.573-26.422 274.5-297.05 274.5-297.05C65.784 41.667-78.08-3.227-78.08-3.227s-143.898 44.893-274.535 26.284c0 0 8.945 270.628 274.535 297.05" style="fill:#00698b;fill-opacity:1;fill-rule:nonzero;stroke:none;stroke-width:1.27459" transform="matrix(1.19616 0 0 1.19616 428.485 10.625)"/><path d="M-346.79 29.328c.343 4.215.994 10.419 2.09 18.094 2.228 15.423 6.393 36.875 14.086 61.019 15.354 48.303 44.791 107.11 100.857 149.81 37.318 28.409 86.444 49.827 151.677 56.424 61.137-6.185 108.12-25.41 144.515-51.18 36.462-25.84 62.267-58.346 80.568-91.125 34.202-61.206 41.981-123.371 43.625-143.076-20.594 2.587-41.398 3.667-61.855 3.667C27.607 32.944-64.887 6.368-78.08 2.41c-13.193 3.957-105.705 30.533-206.886 30.55-20.425 0-41.228-1.08-61.824-3.667zm268.16 296.143c-67.27-6.684-118.71-28.94-157.674-58.62-38.964-29.694-65.455-66.722-83.463-102.773-35.967-72.104-38.195-140.404-38.229-140.85l-.222-6.425 6.356.909c22.139 3.152 44.688 4.454 66.896 4.454 93.761.017 180.84-23.44 200.922-29.249 2.88-.84 4.354-1.285 4.354-1.303l1.61-.497 1.61.497c0 .018 1.474.463 4.352 1.303 2.862.822 7.093 2.005 12.526 3.445 10.846 2.86 26.474 6.682 45.46 10.52 37.935 7.642 89.357 15.284 142.905 15.284 22.207 0 44.773-1.302 66.894-4.454l6.373-.91-.206 6.426c-.036.344-1.302 38.828-17.1 88.484-15.781 49.623-46.127 110.572-104.625 155.14-38.964 29.678-90.37 51.935-157.658 58.619l-.531.05z" style="fill:#bdbcbc;fill-opacity:1;fill-rule:nonzero;stroke:none;stroke-width:1.27459" transform="matrix(1.19616 0 0 1.19616 428.485 10.625)"/><path d="m-165.983 213.22-26.06-43.797 22.292-32.727h-37.39l-18.367 33.858v-33.858h-37.39v76.525h37.39v-40.029l17.717 40.029zM3.036 213.22l-29.095-41.364 26.353-35.16h-34.629l-9.905 16.33-9.098-16.33h-38.946l25.65 37.044-28.582 39.48h37.87l9.836-18.266 9.183 18.267zM106.72 213.22 77.607 171.84l26.386-35.143H69.331l-9.887 16.33-9.116-16.33h-38.93l25.651 37.028L8.416 213.22h37.937l9.767-18.267 9.219 18.267zM-111.083 213.22h-37.354v-76.524h37.354zM-111.083 115.38l-37.354 13.4v-13.606l37.354-13.434zM-147.647 86.114c-9.596 0-16.005-7.369-16.005-18.283 0-10.847 6.546-18.386 16.279-18.386 3.974 0 7.265 1.2 9.921 3.016l-.566 3.598c-2.777-1.989-5.844-3.428-9.425-3.428-7.779 0-12.61 6.135-12.61 15.113 0 9.049 4.865 15.149 12.559 15.149 3.788 0 7.214-1.492 10.075-3.702l.53 3.393c-2.67 2.004-6.544 3.53-10.758 3.53M-116.737 72.2c-9.868.994-12.645 3.392-12.645 6.785 0 2.707 1.867 4.096 4.523 4.096 2.706 0 5.673-1.49 8.122-3.788zm.789 13.313-.583-3.342c-2.33 2.16-5.26 3.874-8.876 3.874-4.353 0-7.47-2.399-7.47-6.854 0-5.895 4.763-8.635 16.14-9.767v-1.629c0-3.408-2.02-4.832-5.208-4.832-2.981 0-5.894.91-8.637 2.23l-.497-3.137c2.93-1.267 5.775-2.193 9.34-2.193 5.586 0 8.43 2.604 8.43 7.745v17.905zM-106.113 85.513V48.416l3.461-.634v37.731zM-87.47 85.942c-3.941 0-6.528-1.543-6.528-6.17V63.376h-3.856v-2.963h3.856v-8.706l3.443-.582v9.288h5.792l.48 2.963h-6.272v15.816c0 2.57 1.03 3.666 3.718 3.666.805 0 1.766-.17 2.348-.273l.514 2.93c-.719.206-2.022.428-3.495.428M-70.679 62.673c-3.923 0-6.492 2.912-7.16 7.778h13.671c-.376-4.522-2.5-7.778-6.51-7.778m10.144 10.521h-17.479c.104 6.168 2.983 9.819 8.021 9.819 3.325 0 6.271-1.492 8.84-3.72l.549 3.187c-2.5 2.126-5.723 3.565-9.595 3.565-6.615 0-11.31-4.455-11.31-13.126 0-8.053 4.662-13.056 10.83-13.056 6.854 0 10.144 5.62 10.144 12.61zM-41.05 85.89l-7.215-10.743-6.787 10.366h-3.77l8.757-12.902-8.242-11.943 3.461-.703 6.647 9.938 6.376-9.491h3.752l-8.276 12.097 8.739 12.73zM-218.69 86.217c-11.651 0-18.06-7.643-18.06-18.986 0-11.377 6.958-19.089 18.266-19.089 4.525 0 8.294 1.063 11.241 2.724l-1.234 7.9c-2.741-1.747-5.997-3.119-9.766-3.119-6.34 0-9.425 4.66-9.425 11.531 0 6.907 3.188 11.772 9.527 11.772 2.022 0 3.444-.376 4.936-1.181v-6.563h-6.375l-1.063-6.734h15.353v17.873c-3.838 2.5-8.327 3.872-13.4 3.872M-187.848 85.942c-4.935 0-9.08-1.062-12.816-2.759l1.339-7.762c3.769 2.022 7.984 3.41 11.65 3.41 2.605 0 4.421-1.13 4.421-3.307 0-2.073-1.062-3.015-6.238-5.004-7.35-2.809-10.52-5.209-10.52-11.257 0-7.076 5.516-10.847 12.542-10.847 4.799 0 7.883.891 11.07 2.45l-1.387 7.66c-3.31-1.918-6.768-2.98-9.58-2.98-2.775 0-4.077 1.164-4.077 2.844 0 1.884.994 2.793 5.55 4.557 8.02 2.896 11.19 5.672 11.19 11.514 0 7.986-5.841 11.48-13.144 11.48M-15.332 85.753c-3.941 0-7.095-.976-9.356-2.21l.515-3.582c2.157 1.39 5.415 2.674 9.01 2.674 4.148 0 7.267-2.348 7.267-6.357 0-3.479-1.748-5.21-7.13-7.574-6.75-2.963-9.182-5.21-9.182-10.23 0-5.329 4.283-8.858 10.11-8.858 3.324 0 5.962.789 7.778 1.85l-.497 3.53a13.165 13.165 0 0 0-7.42-2.245c-4.145 0-6.459 2.45-6.459 5.536 0 3.22 1.697 4.763 7.111 7.162 6.563 2.843 9.22 5.414 9.22 10.589 0 6.031-4.765 9.715-10.967 9.715M10.267 63.324c-3.786 0-6.237 2.827-6.921 7.505h13.226c-.377-4.353-2.415-7.505-6.305-7.505m9.767 10.144H3.208c.102 5.963 2.861 9.492 7.71 9.492 3.239 0 6.067-1.439 8.566-3.598L20 82.43c-2.433 2.057-5.533 3.427-9.286 3.427-6.341 0-10.88-4.302-10.88-12.628 0-7.78 4.507-12.611 10.434-12.611 6.615 0 9.767 5.43 9.767 12.131zM34.786 63.495c-4.813 0-7.418 4.044-7.418 9.767 0 5.585 2.656 9.733 7.418 9.733 4.92 0 7.524-3.994 7.524-9.733 0-5.569-2.674-9.767-7.524-9.767m0 22.361c-6.184 0-10.846-4.61-10.846-12.594 0-8.018 4.763-12.645 10.846-12.645 6.289 0 11.002 4.627 11.002 12.645 0 7.984-4.815 12.594-11.002 12.594M67.43 85.36l-.549-3.6c-2.674 2.367-5.433 4.096-8.707 4.096-4.863 0-7.229-2.81-7.229-7.42V61.13h3.393v16.69c0 3.119 1.421 4.968 4.49 4.968 2.569 0 5.174-1.542 7.847-4.145V61.13h3.36v24.23zM77.265 85.36V49.204l3.323-.618V85.36zM-178.593 267.485h-2.365l-10.076-25.735 2.554-.583 8.755 22.96 8.567-22.704h2.708zM-161.012 251.294c-3.564 0-5.45 2.964-5.45 7.18 0 4.06 1.953 7.127 5.45 7.127 3.598 0 5.517-2.914 5.517-7.128 0-4.111-1.954-7.18-5.517-7.18m0 16.416c-4.542 0-7.97-3.41-7.97-9.236 0-5.894 3.48-9.27 7.97-9.27 4.608 0 8.052 3.376 8.052 9.27 0 5.825-3.529 9.236-8.052 9.236M-148.779 267.332V240.84l2.468-.463v26.954zM-140.76 267.332V240.84l2.468-.463v26.954zM-126.401 251.19c-2.776 0-4.592 2.058-5.073 5.484h9.665c-.257-3.17-1.747-5.484-4.592-5.484m7.163 7.436h-12.354c.085 4.337 2.108 6.94 5.655 6.94 2.38 0 4.437-1.045 6.27-2.64l.395 2.247c-1.782 1.508-4.061 2.536-6.803 2.536-4.677 0-8.002-3.153-8.002-9.287 0-5.706 3.291-9.219 7.676-9.219 4.832 0 7.163 3.975 7.163 8.893zM-109.197 269.508c-1.27 3.48-2.861 4.557-5.5 4.557-.361 0-.685-.068-.944-.103l-.341-2.175c.377.068.89.154 1.439.154 1.473 0 2.347-.652 3.032-2.365l.841-2.124-6.735-17.632 2.381-.479 5.52 15.146 5.258-14.891h2.554zM-90.743 251.396c-2.005 0-3.633 1.251-5.227 3.084v10.23c1.132.428 2.297.686 4.114.686 3.513 0 5.997-2.28 5.997-7.334 0-4.3-2.092-6.666-4.884-6.666m-1.25 16.159c-2.468 0-4.456-.48-6.445-1.165v-25.55l2.468-.462v11.515c1.27-1.372 2.999-2.69 5.484-2.69 3.873 0 7.128 2.81 7.128 8.739 0 6.476-3.718 9.613-8.636 9.613M-69.12 257.908c-6.972.718-8.927 2.398-8.927 4.815 0 1.884 1.337 2.878 3.186 2.878 1.921 0 4.046-1.045 5.741-2.674zm.584 9.424-.428-2.382c-1.646 1.56-3.702 2.76-6.255 2.76-3.068 0-5.294-1.697-5.294-4.85 0-4.147 3.375-6.1 11.393-6.905v-1.149c0-2.434-1.404-3.443-3.666-3.443-2.106 0-4.164.65-6.118 1.593l-.341-2.21c2.074-.893 4.094-1.543 6.614-1.543 3.94 0 5.964 1.833 5.964 5.484v12.645zM-61.528 267.332V240.84l2.433-.463v26.954zM-53.51 267.332V240.84l2.435-.463v26.954zM-32.399 243.771v23.56h-2.536v-23.56h-8.395v-2.348h19.035l.395 2.348zM-18.947 251.19c-2.743 0-4.543 2.058-5.056 5.484h9.682c-.257-3.17-1.766-5.484-4.626-5.484m7.195 7.436h-12.354c.07 4.337 2.108 6.94 5.655 6.94 2.364 0 4.42-1.045 6.27-2.64l.396 2.247c-1.765 1.508-4.06 2.536-6.804 2.536-4.66 0-7.985-3.153-7.985-9.287 0-5.706 3.29-9.219 7.627-9.219 4.849 0 7.195 3.975 7.195 8.893zM2.453 257.908c-6.974.718-8.927 2.398-8.927 4.815 0 1.884 1.303 2.878 3.171 2.878 1.917 0 4.009-1.045 5.756-2.674zm.548 9.424-.41-2.382c-1.645 1.56-3.718 2.76-6.237 2.76-3.102 0-5.312-1.697-5.312-4.85 0-4.147 3.392-6.1 11.411-6.905v-1.149c0-2.434-1.404-3.443-3.683-3.443-2.108 0-4.164.65-6.117 1.593l-.31-2.21c2.058-.893 4.08-1.543 6.563-1.543 3.958 0 5.98 1.833 5.98 5.484v12.645zM32.37 267.332v-12.235c0-2.279-.924-3.701-3.203-3.701-1.85 0-3.684 1.132-5.637 3.068v12.868h-2.435v-12.235c0-2.279-.958-3.701-3.254-3.701-1.835 0-3.701 1.132-5.62 2.999v12.937H9.753v-17.736h1.92l.428 2.536c1.918-1.713 3.89-2.929 6.254-2.929 2.74 0 4.232 1.114 4.882 3.085 1.954-1.767 4.01-3.085 6.426-3.085 3.547 0 5.193 2.022 5.193 5.415v12.714z" style="fill:#fff;fill-opacity:1;fill-rule:nonzero;stroke:none;stroke-width:1.27459" transform="matrix(1.19616 0 0 1.19616 428.485 10.625)"/></svg>