<svg xmlns="http://www.w3.org/2000/svg" xml:space="preserve" width="297.99429" height="387.70602" viewBox="0 0 297.99428 387.70602"><defs><clipPath id="a" clipPathUnits="userSpaceOnUse"><path d="M0 1602h1190V0H0Z"/></clipPath></defs><g clip-path="url(#a)" style="stroke-width:.277106" transform="matrix(4.81164 0 0 -4.81164 -1774.917 5987.774)"><g style="stroke-width:.277106"><path d="M0 0a25 25 0 0 1-.93 3.199c-.184.514-.98 2.397-1.18 2.828-.484 1.045-.881 2.093-1.144 3.188l-.846-1.05c-.504.571-1.163.483-1.511.458-.682-.048-.962-.578-.962-1.03 0-.132.034-.318.156-.464.102-.118.27-.228.549-.236l.963-.045c.716-.027 1.23-.223 1.566-.567.425-.41.593-1.061.593-1.908 0-1.86-1.399-3.34-3.077-3.899-1.22-.407-2.216-.433-3.021.463l1.253 2.05c.414-.452 1.141-.455 1.779-.288.772.202 1.141.614 1.141 1.176 0 .233-.044.416-.156.543-.101.103-.269.165-.526.155l-.962-.023c-.705-.007-1.242.205-1.601.641-.369.46-.548 1.175-.548 2.118 0 1.741.823 3.074 2.22 3.4h-32.234V-.536l-1.958.665v4.19l-2.081.427V.835l-1.959.665v6.095a21 21 0 0 0-.652-1.568c-.2-.431-.995-2.314-1.18-2.828A25 25 0 0 1-47.238 0c-.479-2.225-.619-4.593-.138-6.846a12 12 0 0 1 2.669-5.393 13.6 13.6 0 0 1 2.973-2.53c1.598-1.013 3.355-1.734 5.169-2.26 1.12-.324 2.263-.569 3.365-.956a19 19 0 0 0 3.049-1.368 15.4 15.4 0 0 0 2.566-1.798 12.9 12.9 0 0 0 2.696-3.246q.3-.517.545-1.061a10.2 10.2 0 0 0 .702-2.128.07.07 0 0 1 .023-.038.07.07 0 0 1 .023.038c.149.732.399 1.454.702 2.128q.245.544.545 1.061a12.9 12.9 0 0 0 2.696 3.246 15.4 15.4 0 0 0 2.566 1.798c.972.549 1.997.998 3.049 1.368 1.103.387 2.245.632 3.366.956 1.813.526 3.57 1.247 5.168 2.26a13.6 13.6 0 0 1 2.974 2.53A12 12 0 0 1 .138-6.846C.619-4.593.48-2.225 0 0" style="fill:#26358a;fill-opacity:1;fill-rule:nonzero;stroke:none;stroke-width:.277106" transform="translate(423.465 1195.81)"/></g><g style="stroke-width:.277106"><path d="M0 0h-1.147A3.1 3.1 0 0 0 .069-.493Q.03-.249 0 0" style="fill:#26358a;fill-opacity:1;fill-rule:nonzero;stroke:none;stroke-width:.277106" transform="translate(419.942 1206.519)"/></g><g style="stroke-width:.277106"><path d="M0 0v4.071h-2.081v-3.8z" style="fill:#26358a;fill-opacity:1;fill-rule:nonzero;stroke:none;stroke-width:.277106" transform="translate(383.029 1202.448)"/></g><path d="M383.029 1206.519h1.958v.001z" style="fill:#fff;fill-opacity:1;fill-rule:nonzero;stroke:none;stroke-width:.277106"/><g style="stroke-width:.277106"><path d="M0 0v3.911l2.081-.427v-4.19l1.958-.665V9.874H2.081V5.803L0 6.075v3.799h-1.197a13.4 13.4 0 0 0-.761-3.114V.665z" style="fill:#fff;fill-opacity:1;fill-rule:nonzero;stroke:none;stroke-width:.277106" transform="translate(380.947 1196.645)"/></g><g style="stroke-width:.277106"><path d="M0 0a27 27 0 0 0-.247-1.57 13.3 13.3 0 0 0-.958-2.827 12.9 12.9 0 0 0-2.228-3.28 14.8 14.8 0 0 0-3.128-2.531 18.5 18.5 0 0 0-2.108-1.107 21 21 0 0 0-1.341-.548 25 25 0 0 0-.851-.298c0-.038-.609-.192-.679-.212-.514-.153-1.032-.285-1.55-.417a35 35 0 0 1-1.537-.424 22.02 22.02 0 0 1-2.952-1.116q-.208-.098-.415-.199a19 19 0 0 1-1.39-.754 15 15 0 0 1-1.587-1.08 14.547 14.547 0 0 1-2.228-2.119 12.51 12.51 0 0 1-1.392-2.02 11 11 0 0 1-.676-1.453c-.177-.474-.303-.964-.431-1.452-.013-.049-.028-.055-.039-.057-.01.002-.025.008-.038.057-.128.488-.254.978-.431 1.452-.187.501-.417.985-.676 1.453a12.4 12.4 0 0 1-1.392 2.02 14.6 14.6 0 0 1-2.228 2.119c-.505.387-1.035.759-1.588 1.08q-.679.406-1.389.754-.207.101-.415.199a22 22 0 0 1-2.952 1.116q-.763.23-1.537.424c-.518.132-1.036.264-1.55.417-.071.02-.679.174-.679.212q-.428.142-.851.298a21 21 0 0 0-2.595 1.164q-.438.237-.854.491a14.8 14.8 0 0 0-3.128 2.531q-.38.408-.726.849a13 13 0 0 0-1.502 2.431 13.3 13.3 0 0 0-.958 2.827A27 27 0 0 0-51.473 0c-.131 1.305-.1 2.693.102 4.156.235 1.699.678 3.368 1.254 4.986q.246.69.523 1.369c.607 1.491 1.381 2.902 1.816 4.46.34 1.218.522 2.482.542 3.749a16.5 16.5 0 0 1-.265 3.186q-.078.438-.178.868c-.699 3.016-2.135 5.736-3.731 7.787a17 17 0 0 1-1.393 1.585s.907.999 2.185 2.626h-.001s.546.717.981 1.354 1.906 3.068 1.912 3.078l.016.027c1.703-.489 9.527-4.397 21.766-4.397h.415c12.24 0 20.064 3.908 21.766 4.397l.016-.027c.006-.01 1.477-2.441 1.912-3.078s.981-1.354.981-1.354h-.001c1.278-1.627 2.185-2.626 2.185-2.626-.468-.468-.937-1-1.393-1.585-1.595-2.051-3.032-4.771-3.73-7.787a16 16 0 0 1-.179-.868 16.5 16.5 0 0 1-.265-3.186c.021-1.267.202-2.531.543-3.749.434-1.558 1.208-2.969 1.815-4.46q.278-.68.523-1.369C-.78 7.524-.337 5.855-.102 4.156.1 2.693.131 1.305 0 0m1.041 13.389c-1.08 2.199-1.629 4.146-1.845 5.894a15 15 0 0 0-.034 3.362q.104 1.006.322 1.996c.212.979.679 1.905 1.16 2.775 1.004 1.813 2.319 3.462 3.73 4.942q.423.444.856.869-.145.095-.293.201a19 19 0 0 0-2.005 1.655q-.554.515-1.079 1.06a28.8 28.8 0 0 0-3.367 4.184c-.641.975-1.172 1.944-1.532 2.844a10 10 0 0 0-.236.661 21.855 21.855 0 0 0-2.759-1.097 26 26 0 0 0-2.304-.619c.234.193.457.39.66.59 1.506 1.482 1.626 2.654.927 3.48-.21.25-.404.332-.606.102-1.44-1.628-3.968-3.393-5.914-4.241 2.242 1.778 4.761 3.89 5.774 6.219.77 1.77.536 3.197-.868 4.215-.352.256-.6.292-.7.04-1.355-3.421-4.48-7.551-8.115-10.165a14 14 0 0 0-.878-.574q.062-.04.123-.077a23 23 0 0 0-4.109.919 17 17 0 0 0-3.075 1.324q-.282.157-.554.323l-.057.036-.056-.036a16 16 0 0 0-.554-.323 17 17 0 0 0-3.076-1.324 23 23 0 0 0-4.108-.919q.061.038.124.077-.461.277-.879.574c-3.635 2.614-6.76 6.744-8.115 10.165-.1.252-.348.216-.7-.04-1.404-1.018-1.638-2.445-.868-4.215 1.013-2.329 3.532-4.441 5.774-6.219-1.946.848-4.474 2.613-5.914 4.241-.202.23-.396.148-.606-.102-.699-.826-.579-1.998.927-3.48.203-.2.426-.397.66-.59q-1.167.256-2.304.619a22 22 0 0 0-2.759 1.097 10 10 0 0 0-.236-.661c-.36-.9-.892-1.869-1.532-2.844a28.7 28.7 0 0 0-3.367-4.184q-.525-.545-1.079-1.06a19 19 0 0 0-2.004-1.655 10 10 0 0 0-.293-.201q.432-.425.855-.869c1.411-1.48 2.726-3.129 3.73-4.942.481-.87.948-1.796 1.16-2.775.143-.66.254-1.325.323-1.996.113-1.12.103-2.248-.034-3.362-.216-1.748-.766-3.695-1.845-5.894-1.924-3.923-3.037-7.552-3.403-10.84-.229-2.056-.166-3.979.174-5.758.407-2.136 1.213-4.065 2.389-5.769q.589-.85 1.299-1.626.711-.774 1.541-1.473.812-.678 1.697-1.261a21 21 0 0 1 1.912-1.115 24 24 0 0 1 2.12-.962 29 29 0 0 1 3.428-1.109q.502-.13 1.005-.256a46 46 0 0 0 2.37-.65c.6-.187 1.195-.391 1.795-.579.591-.184 1.169-.432 1.74-.668a28 28 0 0 0 2.598-1.226 20 20 0 0 0 2.559-1.633q.34-.259.666-.534.487-.41.928-.868a9.8 9.8 0 0 0 1.249-1.565q.153-.24.287-.495c.135-.255.26-.517.349-.792l.007-.02.009-.028a.3.3 0 0 1 .032-.073q.013-.015.025-.013.013-.002.026.013a.3.3 0 0 1 .032.073l.009.028.007.02c.089.275.214.537.349.792q.134.254.287.495a9.8 9.8 0 0 0 1.249 1.565q.442.457.928.868.326.275.666.534a20 20 0 0 0 2.559 1.633c.843.455 1.712.86 2.598 1.226.571.236 1.149.484 1.74.668.6.188 1.195.392 1.795.579.782.243 1.576.449 2.37.65q.503.126 1.005.256c1.164.302 2.31.664 3.428 1.109q1.083.428 2.119.962.987.506 1.913 1.115c.589.388 1.158.809 1.698 1.261q.829.699 1.54 1.473.711.776 1.299 1.626c1.176 1.704 1.982 3.633 2.389 5.769.34 1.779.403 3.702.174 5.758-.365 3.288-1.479 6.917-3.402 10.84" style="fill:#26358a;fill-opacity:1;fill-rule:nonzero;stroke:none;stroke-width:.277106" transform="translate(425.582 1189.783)"/></g><g style="stroke-width:.277106"><path d="M0 0c6.841-.119 12.482 5.328 12.602 12.168.119 6.841-5.329 12.482-12.17 12.601-6.84.12-12.482-5.328-12.601-12.168S-6.841.119 0 0" style="fill:#fff;fill-opacity:1;fill-rule:nonzero;stroke:none;stroke-width:.277106" transform="translate(399.632 1219.665)"/></g><g style="stroke-width:.277106"><path d="M0 0a12 12 0 0 1-3.11-.725c-1.947-.726-3.725-1.83-5.437-3.376q-.016-.012-.03-.026c1.144-1.092 2.483-1.938 4.084-2.578l.243.265c.275.302.56.614.864.904A12.6 12.6 0 0 0 .599-2.984c1.305.528 2.72.785 4.206.764l.182-.005A10.6 10.6 0 0 1 3.445-.223 11.3 11.3 0 0 1 0 0" style="fill:#ed192f;fill-opacity:1;fill-rule:nonzero;stroke:none;stroke-width:.277106" transform="translate(404.008 1240.072)"/></g><g style="stroke-width:.277106"><path d="M0 0c2.22 1.405 4.418 2.194 6.723 2.411q.567.053 1.127.055A10.665 10.665 0 0 1-4.467.903a11.5 11.5 0 0 1 1.711-3.044C-1.923-1.351-.997-.631 0 0" style="fill:#ed192f;fill-opacity:1;fill-rule:nonzero;stroke:none;stroke-width:.277106" transform="translate(397.053 1239.305)"/></g><g style="stroke-width:.277106"><path d="M0 0c1.214-.996 2.593-1.815 4.218-2.505a18 18 0 0 1 2.053-.736c.182.871.253 1.777.211 2.697a11.2 11.2 0 0 1-.385 2.456 13.2 13.2 0 0 0-4.3 2.449 13.36 13.36 0 0 0-3.563 4.751 10.6 10.6 0 0 1-1.942-4.078C-2.972 3.091-1.759 1.444 0 0" style="fill:#ed192f;fill-opacity:1;fill-rule:nonzero;stroke:none;stroke-width:.277106" transform="translate(393.166 1229.796)"/></g><g style="stroke-width:.277106"><path d="M0 0s-1.286 1.627-2.063 2.736-1.585 2.417-1.585 2.417c-4.773-.993-9.115-1.514-13.709-1.759q.29.314.559.655a10.65 10.65 0 0 1 1.595 10.269 9.6 9.6 0 0 1-4.011-.336 21.3 21.3 0 0 0 .97-4.362c.126-1.109.159-2.217.097-3.302a17 17 0 0 0-.44-2.984q-.846-.035-1.705-.06c.493 1.814.64 3.74.438 5.855a20 20 0 0 1-.889 4.257 10 10 0 0 1-1.675-1.029 9.5 9.5 0 0 1-1.806-1.76l-.015-.02-.004-.004q.305-1.013.427-2.084.12-1.055.061-2.155a12 12 0 0 0-.584-3.123c-.269-.001-.535-.003-.808-.003h-.076c-.322 0-.637.002-.954.003-2.572.761-4.85 1.941-6.773 3.512a14.2 14.2 0 0 0-2.878 3.167 10.64 10.64 0 0 1 2.787-6.495c-4.583.246-8.918.767-13.68 1.758 0 0-.808-1.307-1.586-2.417C-49.084 1.627-50.37 0-50.37 0c3.452-4.166 5.612-10.096 5.092-15.267h40.186C-5.612-10.096-3.452-4.166 0 0" style="fill:#ed192f;fill-opacity:1;fill-rule:nonzero;stroke:none;stroke-width:.277106" transform="translate(425.031 1221.785)"/></g><g style="stroke-width:.277106"><path d="m0 0-.321.813-.162-.156V.218l-.244.111v1.446l.244-.098v-.635l.441.46.297-.118L-.16.962.285-.129Z" style="fill:#fff;fill-opacity:1;fill-rule:nonzero;stroke:none;stroke-width:.277106" transform="translate(379.718 1192.856)"/></g><g style="stroke-width:.277106"><path d="M0 0c-.088-.069-.195-.081-.337-.017a.77.77 0 0 0-.339.32c-.127.208-.123.395-.123.655s-.004.449.123.55c.088.071.197.088.339.031A.7.7 0 0 0 0 1.235c.127-.208.125-.402.125-.67C.125.296.127.101 0 0m-.181 1.127a.32.32 0 0 1-.156.145c-.067.028-.123.019-.159-.016-.047-.045-.059-.11-.059-.402s.012-.368.059-.453A.35.35 0 0 1-.337.25c.067-.03.121-.022.156.012.047.044.062.11.062.407 0 .296-.015.373-.062.458" style="fill:#fff;fill-opacity:1;fill-rule:nonzero;stroke:none;stroke-width:.277106" transform="translate(380.898 1192.479)"/></g><g style="stroke-width:.277106"><path d="m0 0-.244.745L-.42.82V.19l-.245.111v1.567l.491-.195c.254-.102.406-.387.406-.657C.232.79.124.694.003.69l.28-.818zm-.19 1.402-.23.094v-.418l.23-.097c.107-.045.178.013.178.137s-.071.24-.178.284" style="fill:#fff;fill-opacity:1;fill-rule:nonzero;stroke:none;stroke-width:.277106" transform="translate(381.936 1191.853)"/></g><g style="stroke-width:.277106"><path d="M0 0v1.629l.824-.328v-.292l-.579.237V.861L.738.653V.362L.245.574V.175l.579-.256v-.292z" style="fill:#fff;fill-opacity:1;fill-rule:nonzero;stroke:none;stroke-width:.277106" transform="translate(382.42 1191.635)"/></g><g style="stroke-width:.277106"><path d="m0 0-.074.338-.444.196-.076-.266-.255.116.455 1.496.192-.076.457-1.92Zm-.292 1.336L-.45.783l.311-.135Z" style="fill:#fff;fill-opacity:1;fill-rule:nonzero;stroke:none;stroke-width:.277106" transform="translate(384.194 1190.833)"/></g><g style="stroke-width:.277106"><path d="M0 0v1.773l.824-.328v-.317l-.58.237V.946L.738.738V.422L.244.635V.201l.58-.257v-.316z" style="fill:#fff;fill-opacity:1;fill-rule:nonzero;stroke:none;stroke-width:.277106" transform="translate(385.115 1190.416)"/></g><g style="stroke-width:.277106"><path d="m0 0-.243.754-.24-.535-.28.126.389.769-.364 1.043.277-.111.218-.684.22.51.276-.11-.364-.76.39-1.128z" style="fill:#fff;fill-opacity:1;fill-rule:nonzero;stroke:none;stroke-width:.277106" transform="translate(386.803 1189.653)"/></g><g style="stroke-width:.277106"><path d="m0 0-.241.104v-.715l-.244.11v1.887L0 1.192C.259 1.089.413.753.413.425.413.096.259-.111 0 0m-.012.864-.229.093v-.52L-.012.34c.11-.046.181.029.181.186S.098.819-.012.864" style="fill:#fff;fill-opacity:1;fill-rule:nonzero;stroke:none;stroke-width:.277106" transform="translate(387.722 1189.958)"/></g><g style="stroke-width:.277106"><path d="m0 0-.244.895L-.42.97V.19L-.664.3v1.945l.49-.196c.255-.101.406-.438.406-.772C.232.998.125.87.004.852l.279-.98zm-.19 1.713-.23.094v-.518l.23-.097c.107-.045.177.034.177.187s-.07.29-.177.334" style="fill:#fff;fill-opacity:1;fill-rule:nonzero;stroke:none;stroke-width:.277106" transform="translate(389.003 1188.66)"/></g><g style="stroke-width:.277106"><path d="M0 0v2.006l.824-.329V1.32l-.58.237v-.474L.738.876V.519L.244.732V.241l.58-.256v-.358z" style="fill:#fff;fill-opacity:1;fill-rule:nonzero;stroke:none;stroke-width:.277106" transform="translate(389.488 1188.44)"/></g><g style="stroke-width:.277106"><path d="M0 0c-.19.087-.334.218-.457.479l.159.19A.6.6 0 0 1 .003.361C.148.297.225.354.225.522c0 .073-.012.14-.038.193a.3.3 0 0 1-.112.121l-.151.1a.7.7 0 0 0-.242.275 1 1 0 0 0-.089.443c0 .367.165.559.435.451.172-.069.297-.189.404-.406l-.154-.193a.47.47 0 0 1-.257.248c-.13.053-.193-.04-.193-.183 0-.052.01-.112.037-.164a.35.35 0 0 1 .116-.13l.147-.097A.64.64 0 0 0 .367.917 1.1 1.1 0 0 0 .464.43C.464.021.262-.118 0 0" style="fill:#fff;fill-opacity:1;fill-rule:nonzero;stroke:none;stroke-width:.277106" transform="translate(390.894 1187.786)"/></g><g style="stroke-width:.277106"><path d="M0 0c-.19.086-.334.22-.457.486l.158.197A.6.6 0 0 1 .003.37C.148.307.225.366.225.538a.46.46 0 0 1-.039.197.3.3 0 0 1-.11.122l-.152.102a.7.7 0 0 0-.242.28q-.09.188-.089.454c0 .377.164.575.435.467.173-.068.297-.19.404-.412l-.154-.2a.46.46 0 0 1-.257.252c-.13.053-.193-.043-.193-.19a.344.344 0 0 1 .153-.3l.147-.098A.65.65 0 0 0 .367.945C.434.807.464.637.464.446.464.027.261-.118 0 0" style="fill:#fff;fill-opacity:1;fill-rule:nonzero;stroke:none;stroke-width:.277106" transform="translate(391.922 1187.322)"/></g><g style="stroke-width:.277106"><path d="m0 0-.204.093-.23 1.442-.23-1.234-.204.092-.334 2.316.255-.101.194-1.458.228 1.29.183-.074.228-1.493.195 1.325.255-.102Z" style="fill:#fff;fill-opacity:1;fill-rule:nonzero;stroke:none;stroke-width:.277106" transform="translate(393.681 1186.544)"/></g><g style="stroke-width:.277106"><path d="m0 0-.074.439-.444.196-.076-.367-.255.116.456 2.065.191-.076.457-2.488Zm-.292 1.737L-.45.978l.312-.136Z" style="fill:#fff;fill-opacity:1;fill-rule:nonzero;stroke:none;stroke-width:.277106" transform="translate(394.856 1186.013)"/></g><g style="stroke-width:.277106"><path d="M0 0v-.958l-.242.11v.953l-.376 1.52.265-.106.234-1.032.23.847.265-.106z" style="fill:#fff;fill-opacity:1;fill-rule:nonzero;stroke:none;stroke-width:.277106" transform="translate(395.681 1186.598)"/></g><g style="stroke-width:.277106"><path d="m0 0-.204.093-.23 1.575-.23-1.367-.204.091-.334 2.536.255-.102.193-1.596.229 1.428.182-.073.229-1.631.195 1.462.254-.102Z" style="fill:#fff;fill-opacity:1;fill-rule:nonzero;stroke:none;stroke-width:.277106" transform="translate(397.787 1184.688)"/></g><g style="stroke-width:.277106"><path d="M0 0c-.088-.137-.195-.188-.338-.123-.142.065-.25.212-.339.425C-.803.608-.8.916-.8 1.343s-.003.737.123.936c.089.138.197.193.339.136s.25-.198.338-.409C.126 1.699.124 1.385.124.95S.126.199 0 0m-.181 1.783c-.035.095-.09.17-.157.197-.067.028-.122-.002-.158-.068-.047-.085-.06-.195-.06-.673s.013-.599.06-.724C-.46.419-.405.341-.338.312s.122-.001.157.064c.047.085.061.195.061.677s-.014.605-.061.73" style="fill:#fff;fill-opacity:1;fill-rule:nonzero;stroke:none;stroke-width:.277106" transform="translate(399.018 1184.386)"/></g><g style="stroke-width:.277106"><path d="M0 0c.076-.119.17-.163.294-.107s.218.184.294.37c.111.266.108.534.108.905 0 .372.003.642-.108.814-.076.121-.171.169-.294.119C.17 2.052.076 1.929 0 1.745c-.11-.266-.109-.54-.109-.919S-.11.173 0 0m.157 1.552c.031.082.078.148.137.171.058.024.106-.002.137-.059.041-.074.052-.17.052-.586S.472.557.431.448C.4.364.352.297.294.271S.188.27.157.327C.116.401.104.497.104.917s.012.526.053.635" style="fill:#fff;fill-opacity:1;fill-rule:nonzero;stroke:none;stroke-width:.277106" transform="translate(406.577 1187.253)"/></g><g style="stroke-width:.277106"><path d="M0 0v1.44L-.239.4-.404.33l-.241.846v-1.46l-.244-.107v2.517l.241.093.326-1.218.326 1.471.241.093V.107Z" style="fill:#fff;fill-opacity:1;fill-rule:nonzero;stroke:none;stroke-width:.277106" transform="translate(400.59 1184.442)"/></g><g style="stroke-width:.277106"><path d="M0 0v2.443l.824.32v-.419l-.58-.229v-.571l.494.202v-.419l-.494-.206v-.59l.58.249V.362Z" style="fill:#fff;fill-opacity:1;fill-rule:nonzero;stroke:none;stroke-width:.277106" transform="translate(401.126 1184.677)"/></g><g style="stroke-width:.277106"><path d="m0 0-.496 1.24V-.218L-.74-.325v2.388l.218.085L-.026.9v1.44l.244.095V.095z" style="fill:#fff;fill-opacity:1;fill-rule:nonzero;stroke:none;stroke-width:.277106" transform="translate(402.928 1185.469)"/></g><g style="stroke-width:.277106"><path d="M0 0v-.742l.239.432v.402Z" style="fill:#fff;fill-opacity:1;fill-rule:nonzero;stroke:none;stroke-width:.277106" transform="translate(403.41 1188.007)"/></g><g style="stroke-width:.277106"><path d="M0 0c-.19-.084-.334-.073-.457.103l.158.359C-.22.351-.113.349.003.398c.145.063.222.195.222.376 0 .08-.013.142-.039.176C.161.981.133.992.075.983L-.076.958q-.16-.024-.242.09-.09.127-.09.415c0 .411.166.763.436.868.172.067.297.039.404-.107l-.155-.338c-.078.106-.173.087-.256.055-.13-.052-.193-.209-.193-.366 0-.058.01-.115.037-.149a.12.12 0 0 1 .116-.043l.147.022c.115.018.187-.01.239-.077.067-.087.097-.24.097-.439C.464.451.261.115 0 0" style="fill:#fff;fill-opacity:1;fill-rule:nonzero;stroke:none;stroke-width:.277106" transform="translate(404.26 1186.035)"/></g><g style="stroke-width:.277106"><path d="m0 0-.183-.08-.412 2.045.252.098.252-1.337.251 1.532.255.099Z" style="fill:#fff;fill-opacity:1;fill-rule:nonzero;stroke:none;stroke-width:.277106" transform="translate(405.922 1186.784)"/></g><g style="stroke-width:.277106"><path d="M0 0v2.113l.244.094V.473l.568.244V.356Z" style="fill:#fff;fill-opacity:1;fill-rule:nonzero;stroke:none;stroke-width:.277106" transform="translate(407.546 1187.498)"/></g><g style="stroke-width:.277106"><path d="M0 0v2.061l.244.094V.464l.568.244V.357Z" style="fill:#fff;fill-opacity:1;fill-rule:nonzero;stroke:none;stroke-width:.277106" transform="translate(408.555 1187.94)"/></g><g style="stroke-width:.277106"><path d="M0 0v2.009l.824.319v-.342l-.579-.23v-.469l.493.203v-.344L.245.94V.455l.579.249V.362Z" style="fill:#fff;fill-opacity:1;fill-rule:nonzero;stroke:none;stroke-width:.277106" transform="translate(409.565 1188.385)"/></g><g style="stroke-width:.277106"><path d="M0 0v-.791l-.243-.106v.796l-.375 1 .265.103.234-.69.23.869.265.103z" style="fill:#fff;fill-opacity:1;fill-rule:nonzero;stroke:none;stroke-width:.277106" transform="translate(411.105 1189.853)"/></g><g style="stroke-width:.277106"><path d="m0 0-.524-.23v1.902l.503.195c.244.095.387-.053.387-.371a.72.72 0 0 0-.155-.448C.286 1.027.383.95.383.703.383.356.223.098 0 0m-.04 1.533-.24-.095v-.435l.24.098c.103.042.161.152.161.281s-.058.192-.161.151m.016-.756L-.28.671V.207l.256.109c.11.048.163.176.163.301 0 .127-.053.207-.163.16" style="fill:#fff;fill-opacity:1;fill-rule:nonzero;stroke:none;stroke-width:.277106" transform="translate(412.155 1189.523)"/></g><g style="stroke-width:.277106"><path d="m0 0-.074.288-.445-.191-.075-.358-.255-.112.455 2.027.192.074L.254.112Zm-.292 1.156L-.45.427l.311.131Z" style="fill:#fff;fill-opacity:1;fill-rule:nonzero;stroke:none;stroke-width:.277106" transform="translate(413.499 1190.114)"/></g><g style="stroke-width:.277106"><path d="M0 0v1.785l.244.094V.416L.812.66V.356Z" style="fill:#fff;fill-opacity:1;fill-rule:nonzero;stroke:none;stroke-width:.277106" transform="translate(413.907 1190.293)"/></g><g style="stroke-width:.277106"><path d="M0 0v1.733l.244.095V.407l.568.244V.357Z" style="fill:#fff;fill-opacity:1;fill-rule:nonzero;stroke:none;stroke-width:.277106" transform="translate(414.917 1190.736)"/></g><g style="stroke-width:.277106"><path d="M0 0c-.137-.06-.25-.045-.337.033C-.464.145-.46.354-.46.64s-.004.492.123.709c.087.151.2.259.337.312.234.091.416-.011.46-.33L.212 1.23c-.024.12-.087.196-.21.147a.32.32 0 0 1-.157-.147c-.047-.089-.061-.173-.061-.489s.014-.389.061-.438Q-.1.244.002.286c.123.053.186.18.21.32L.46.711C.416.355.232.102 0 0" style="fill:#fff;fill-opacity:1;fill-rule:nonzero;stroke:none;stroke-width:.277106" transform="translate(416.857 1191.576)"/></g><g style="stroke-width:.277106"><path d="M0 0v1.599l.244.095V.384l.568.244V.357Z" style="fill:#fff;fill-opacity:1;fill-rule:nonzero;stroke:none;stroke-width:.277106" transform="translate(417.528 1191.884)"/></g><g style="stroke-width:.277106"><path d="M0 0c-.256-.113-.46.013-.46.341v1.018l.244.096v-1c0-.177.084-.246.216-.189.131.057.218.198.218.372v.985l.242.094V.73A.82.82 0 0 0 0 0" style="fill:#fff;fill-opacity:1;fill-rule:nonzero;stroke:none;stroke-width:.277106" transform="translate(418.957 1192.499)"/></g><g style="stroke-width:.277106"><path d="m0 0-.523-.23v1.487l.502.195c.244.095.387-.008.387-.255 0-.16-.092-.3-.155-.361C.286.826.383.775.383.583A.63.63 0 0 0 0 0m-.04 1.19-.239-.095v-.34l.239.099a.25.25 0 0 1 .161.233c0 .1-.058.144-.161.103m.016-.587L-.279.497V.134l.255.11a.27.27 0 0 1 .163.25c0 .098-.053.155-.163.109" style="fill:#fff;fill-opacity:1;fill-rule:nonzero;stroke:none;stroke-width:.277106" transform="translate(420.213 1193.064)"/></g><g style="stroke-width:.277106"><path d="M0 0c-.674-.663-1.471-.799-2.461-.799h-8.483c-.675 0-1.275.545-1.555 1.313h-2.204c.401-1.854 1.934-3.239 3.759-3.239h8.483c1.206 0 2.756.162 4.04 1.426L2.968.067l-1.45 1.427z" style="fill:#fff;fill-opacity:1;fill-rule:nonzero;stroke:none;stroke-width:.277106" transform="translate(402.373 1210.94)"/></g><g style="stroke-width:.277106"><path d="M0 0h5.529c.244 0 .516-.269.516-.657 0-.387-.272-.657-.516-.657h-7.084a2.83 2.83 0 0 1 0-1.926h7.084c1.465 0 2.656 1.159 2.656 2.583S6.994 1.926 5.529 1.926H0c-1.826 0-3.357-1.386-3.759-3.24h2.204C-1.275-.545-.675 0 0 0" style="fill:#fff;fill-opacity:1;fill-rule:nonzero;stroke:none;stroke-width:.277106" transform="translate(391.43 1214.695)"/></g><g style="stroke-width:.277106"><path d="M0 0c0 .342.061.668.168.963h-2.204a4.55 4.55 0 0 1 0-1.926H.168A2.8 2.8 0 0 0 0 0" style="fill:#fff;fill-opacity:1;fill-rule:nonzero;stroke:none;stroke-width:.277106" transform="translate(389.706 1212.419)"/></g><g style="stroke-width:.277106"><path d="M0 0h-2.407c-.591 0-1.07-.431-1.07-.963s.479-.963 1.07-.963H0A4.55 4.55 0 0 0 0 0" style="fill:#fff;fill-opacity:1;fill-rule:nonzero;stroke:none;stroke-width:.277106" transform="translate(387.67 1213.38)"/></g><g style="stroke-width:.277106"><path d="M0 0c.674.663 1.472.8 2.461.8h.705c.591 0 1.07.43 1.07.962s-.479.963-1.07.963h-.705c-1.206 0-2.756-.162-4.04-1.426L-2.933-.034l1.449-1.426z" style="fill:#fff;fill-opacity:1;fill-rule:nonzero;stroke:none;stroke-width:.277106" transform="translate(408.274 1213.896)"/></g><g style="stroke-width:.277106"><path d="M0 0c-.611.602-1.373 1.062-2.217 1.231-.575.115-1.159-.158-1.317-.67s.174-1.043.744-1.186a2.5 2.5 0 0 0 1.211-.674L.078-2.926l1.451 1.427z" style="fill:#fff;fill-opacity:1;fill-rule:nonzero;stroke:none;stroke-width:.277106" transform="translate(403.813 1215.36)"/></g><g style="stroke-width:.277106"><path d="M0 0h-.704c-.991 0-1.787.135-2.462.799l-1.497 1.478L-6.112.85-4.745-.5c1.284-1.264 2.834-1.426 4.041-1.426H0c.591 0 1.07.431 1.07.963S.591 0 0 0" style="fill:#fff;fill-opacity:1;fill-rule:nonzero;stroke:none;stroke-width:.277106" transform="translate(411.453 1210.16)"/></g><g style="stroke-width:.277106"><path d="m0 0-1.45-1.427L0-2.854l1.449 1.427z" style="fill:#fff;fill-opacity:1;fill-rule:nonzero;stroke:none;stroke-width:.277106" transform="translate(405.34 1213.862)"/></g><g style="stroke-width:.277106"><path d="M0 0v11.725h1.958V-.665Z" style="fill:#fff;fill-opacity:1;fill-rule:nonzero;stroke:none;stroke-width:.277106" transform="translate(386.397 1194.795)"/></g><g style="stroke-width:.277106"><path d="M0 0v2.767l2.893-.468v-2.98z" style="fill:#fff;fill-opacity:1;fill-rule:nonzero;stroke:none;stroke-width:.277106" transform="translate(389.552 1197.642)"/></g><g style="stroke-width:.277106"><path d="m0 0-1.198.261v-5.297l-1.958.665V9.813H0c1.768 0 2.719-2.545 2.719-5.203S1.768-.386 0 0m-.089 6.456-1.109.083V3.536l1.109-.159c.536-.077.85.641.85 1.447s-.314 1.592-.85 1.632" style="fill:#fff;fill-opacity:1;fill-rule:nonzero;stroke:none;stroke-width:.277106" transform="translate(396.797 1196.707)"/></g><g style="stroke-width:.277106"><path d="m0 0-.369 2.028-2.451-.69-.391-2.4-2.048-.677 2.898 16.052 1.51.005L2.047.678zm-1.555 8.693-.716-4.112 1.387.298z" style="fill:#fff;fill-opacity:1;fill-rule:nonzero;stroke:none;stroke-width:.277106" transform="translate(404.904 1192.157)"/></g><g style="stroke-width:.277106"><path d="M0 0c-1.22-.406-2.216-.369-3.021.764l1.253 2.41c.414-.57 1.141-.615 1.779-.448.772.202 1.141.688 1.141 1.382 0 .287-.044.515-.156.677-.101.132-.269.217-.526.216l-.962.016c-.705.022-1.242.301-1.601.843-.369.569-.548 1.438-.548 2.577 0 2.427 1.097 4.201 2.91 4.201 1.141 0 2.002-.394 2.685-1.368L1.723 9.389c-.504.715-1.163.618-1.511.593-.682-.048-.962-.691-.962-1.243 0-.159.034-.387.157-.569a.69.69 0 0 1 .548-.303l.963-.083c.716-.057 1.23-.317 1.566-.757.425-.529.593-1.35.593-2.409C3.077 2.293 1.678.56 0 0" style="fill:#fff;fill-opacity:1;fill-rule:nonzero;stroke:none;stroke-width:.277106" transform="translate(410.673 1193.96)"/></g><g style="stroke-width:.277106"><path d="m0 0-1.339-1.005.553-1.62-1.409 1.046-1.355-1.004.515 1.61L-4.332 0h1.637l.51 1.52.526-1.52Z" style="fill:#fff;fill-opacity:1;fill-rule:nonzero;stroke:none;stroke-width:.277106" transform="translate(406.351 1221.203)"/></g><g style="stroke-width:.277106"><path d="m0 0-1.339-1.005.552-1.62-1.408 1.046-1.356-1.004.516 1.61L-4.332 0h1.637l.51 1.52.526-1.52Z" style="fill:#fff;fill-opacity:1;fill-rule:nonzero;stroke:none;stroke-width:.277106" transform="translate(397.685 1221.203)"/></g><g style="stroke-width:.277106"><path d="M0 0c-.335.344-.85.54-1.566.567l-.963.045c-.279.008-.447.118-.548.236a.73.73 0 0 0-.157.464c0 .452.28.982.963 1.03.347.025 1.007.113 1.51-.458l.846 1.05q-.12.493-.2 1.001a3.1 3.1 0 0 1-1.216.493 4.8 4.8 0 0 1-.885.079q-.364-.001-.689-.079c-1.397-.326-2.22-1.659-2.22-3.4 0-.943.179-1.658.549-2.118.358-.436.895-.648 1.6-.641l.962.023c.257.01.425-.052.526-.155.112-.127.157-.31.157-.543 0-.562-.37-.974-1.142-1.176-.638-.167-1.365-.164-1.779.288l-1.253-2.05c.806-.896 1.802-.87 3.021-.463C-.806-5.248.593-3.768.593-1.908.593-1.061.425-.41 0 0" style="fill:#fff;fill-opacity:1;fill-rule:nonzero;stroke:none;stroke-width:.277106" transform="translate(420.126 1202.09)"/></g></g></svg>