<svg xmlns="http://www.w3.org/2000/svg" id="_레이어_1" version="1.1" viewBox="0 0 1708.464058 897.4072266"><defs><style>.st1{fill:#fff}</style></defs><path d="M1301.498 11.524C1295.649 4.2 1286.918 0 1277.547 0h-252.152c-31.633 0-63.415 7.261-91.91 20.998s-53.97 34.08-73.674 58.83L248.525 847.692c-7.268 9.153-8.681 21.867-3.6 32.39 5.082 10.524 15.917 17.324 27.603 17.324h817.081c14.433 0 26.729-9.833 29.905-23.93l187.924-836.046c2.073-9.14-.092-18.583-5.94-25.907m-781.41 735.883L977.167 173.25c11.762-14.775 29.342-23.25 48.228-23.25h102.998L994.11 747.407z" class="st1"/><path d="M1089.73 866.907H272.214l611.46-768.084c16.863-21.182 38.667-38.593 63.055-50.35C971.118 36.714 998.32 30.5 1025.395 30.5h252.341zm-632.907-89h561.692L1166.51 119.5h-141.115c-28.232 0-54.508 12.667-72.09 34.754z" style="fill:#29b5ea"/><path d="M1700.726 344.22c-10.298-22.177-28.102-38.131-52.922-47.424-21.421-8.02-48.204-11.11-81.854-9.451-28.832 1.405-52.83 6.784-73.357 16.444l-.14.067c-23.907 11.404-40.483 26.861-51.818 48.462a130 130 0 0 0-4.238-9.667c-13.675-27.983-37.3-44.85-74.433-53.101-12.235-2.682-52.64-3.99-64.315-2.585l-.12.015c-50.746 6.326-86.877 27.042-110.458 63.332l-.087.135c-3.002 4.675-5.601 9.116-7.916 13.648-1.913-17.743-8.803-35.032-25.102-49.87-11.374-10.408-23.091-16.561-40.415-21.23l-.284-.076c-16.271-4.213-21.445-4.254-107.818-4.941-17.922-.175-30.045-.196-38.154-.068-4.614.073-7.947.193-10.489.379-19.739 1.442-26.56 14.227-28.745 20.628l-.011-.004c-.117.348-.216.649-.318.988-.68-2.565-1.759-5.003-3.31-7.59l-.004.004c-3.002-4.966-9.873-13.044-23.258-14.358a75 75 0 0 0-3.723-.256c-2.197-.106-5.21-.199-8.959-.275-7.232-.147-16.797-.228-26.931-.228h-36.211a31.16 31.16 0 0 0-25.945 13.86l-32.737 48.94a39992 39992 0 0 1-24.207 36.206l-3.415-11.087-20.18-66.132c-3.982-13.032-15.813-21.787-29.44-21.787h-36.51c-18.259 0-27.491.03-33.25.313-3.702.182-7.699.519-11.837 1.743-9.027 2.67-16.055 8.774-19.75 17.008-3.95-9.366-12.659-16.33-23.534-17.946-1.216-.18-2.55-.319-4.2-.435-2.143-.152-4.946-.276-8.572-.38-6.943-.198-16.21-.303-26.8-.303h-34.954c-14.766 0-27.39 10.546-30.018 25.082l-7.52 41.637-.027.148c-4.086 23.301-11.223 63.335-15.777 88.657-5.387 30.426-9.078 50.168-12 61.038-1.99 7.4-2.883 8.41-3.83 9.478l-.21.24c-1.323 1.529-6.428 3.858-13.194 3.593-1.203-.047-2.144-1.062-2.145-2.266v-.023c0-11.369.23-13.495 9.86-66.627q22.932-125.749 22.932-130.568c0-12.79-7.762-24.036-19.775-28.65-4.736-1.818-9.188-2.282-13.294-2.512-5.448-.306-13.9-.339-31.89-.339-17.38 0-26.173.032-31.713.317-3.687.19-7.678.546-11.878 1.845-7.496 2.317-13.592 7.039-17.49 13.374a30.8 30.8 0 0 0-4.033-5.587c-5.874-6.474-14.364-9.949-23.105-9.949h-14.825c-8.99 0-24.761-.344-34.44-.752l-19.073-.666c-14.012-.533-26.601 8.98-29.957 22.518l-.742 2.988c-.175.755-.704 3.05-7.965 44.121-14.934 83.432-24.868 138.773-26.585 146.314-2.87 11.928-5.955 13.442-7.614 14.256l-.202.1a43 43 0 0 1-1.472.71c-.591.07-1.869.181-4.586.312l-.034.002a2.585 2.585 0 0 1-2.683-2.674c.13-3.585.489-7.797 1.201-11.731l.07-.405c2.032-12.197 4.134-24.809-6.993-35.912-8.305-8.324-17.74-8.652-22.808-8.829a578 578 0 0 0-8.192-.205c-7.152-.137-16.167-.242-25.398-.296l-35.151-.33h-.116q-.084-.002-.167-.002c-14.456 0-26.8 10.292-29.375 24.48l-3.613 19.706-.024.134c-5.645 31.606-6.931 57.784 5.137 82.806l.06.126c7.524 15.412 24.292 31.75 40.69 39.69 41.698 20.362 115.46 19.451 157.79-1.922 30.561-15.342 52.296-40.9 64.785-76.125 1.628 16.97 6.232 32.198 13.545 44.317 7.2 11.943 22.31 26.449 34.397 33.025l.09.048c19.793 10.68 44.342 15.654 77.257 15.654 22.975 0 35.166-1.297 52.174-5.55 43.13-10.782 74.141-36.824 92.525-77.589-7.906 43.786-7.906 44.496-7.906 47.97 0 13.063 9.053 27.982 28.93 29.87 2.153.204 4.88.352 8.584.464 6.16.187 15.284.277 27.89.277h35.507c14.478 0 26.833-10.343 29.375-24.582l5.29-29.532 2.14-12.013 44.05.762c19.468.307 29.383.464 36.65-1.838q-.844 4.782-1.562 8.882a2684 2684 0 0 0-2.948 17.078c-.366 2.18-.642 3.88-.82 5.043-1.668 10.868 1.046 19.945 8.067 26.982l1.162 1.165 1.284 1.028c8.1 6.484 15.36 6.69 28.536 7.063 6.298.178 14.761.335 23.833.443 36.12.427 39.604-.167 42.145-.6 8.432-1.436 15.833-6.368 20.307-13.53l.771-1.31c1.213-2.185 1.896-3.415 2.984-7.99 2.833 11.226 11.985 20.06 24.168 22.566 3.312.681 6.987 1.003 13.561 1.192 9.586.273 27.012.304 61.772.304 75.683 0 87.96-.396 108.495-6.397 19.398-5.594 32.605-13.365 47.117-27.728 8.05-7.988 14.266-15.822 19.252-24.704 9.626 26.353 32.563 54.421 85.6 62.496 19.777 3 61.113 2.005 79.023-1.912 41.89-9.227 72.201-30.255 91.853-63.93q.227.813.475 1.644l.124.405c4.637 14.768 14.162 29.688 24.892 38.964 11.667 10.057 30.745 18.119 43.558 21.363 16.59 4.264 38.088 6.398 59.73 6.397 21.575 0 43.29-2.12 60.408-6.368 25.427-6.356 43.266-15.935 59.649-32.03l.186-.185c9.066-9.066 13.553-15.272 19.198-26.56l.16-.325c8.859-18.272 12.332-32.812 13.272-55.657.905-23.782-1.802-44.047-17.195-64.1 6.549.13 12.69-3.175 16.187-8.713l3.033-4.803 2.729-4.042.144-.217c8.5-12.835 13.206-29.178 13.993-48.575.748-16.22-.257-29.403-7.53-44.903m-396.373 63.843c5.173-1.346 10.09 2.93 9.45 8.237-1.472 12.232-4.93 31.185-7.082 42.977-8.906 49.142-10.548 53.199-13.81 56.763-.936.965-4.343 2.605-9.093 3.088-3.483.354-6.46-2.536-6.24-6.03.373-5.898 1.914-15.425 7.07-44.054 4.675-26.258 8.584-45.184 9.536-48.776 1.928-5.977 5.841-10.723 10.106-12.188zm133.923 54.625c4.477 7.338 9.976 14.084 16.41 20.149h-20.053c1.079-5.926 2.284-12.597 3.643-20.149" class="st1"/><path d="M214.605 316.809c-.334 1.445-3.78 20.675-7.67 42.685-18.008 100.598-25.233 140.615-26.9 147.84-4.225 17.675-11.339 28.124-23.344 34.015-6.225 3.113-8.67 3.668-18.007 4.113-9.227.333-11.783.111-17.23-2-7.559-2.891-13.228-8.227-15.006-14.34-1.89-6.003-1.668-21.12.444-32.792.89-5.336 1.445-10.004 1.223-10.227s-16.34-.555-35.793-.667l-35.46-.333-3.668 20.008c-5.558 31.125-4.89 49.132 2.668 64.806 4.557 9.337 16.563 21.009 27.123 26.122 33.236 16.23 97.486 15.451 131.611-1.778 27.679-13.895 45.575-38.239 54.579-74.143 1.445-5.78 10.115-52.578 19.342-103.933 9.115-51.356 17.007-95.04 17.34-97.042l.778-3.557h-16.562c-9.115 0-25.122-.333-35.682-.778l-19.12-.667zm122.385.667c-2 7.003-34.348 193.193-35.126 202.53-1.667 21.343 1.779 40.685 9.56 53.579 4.557 7.559 15.673 18.23 23.232 22.343 15.45 8.337 35.46 12.116 63.249 12.116 20.453 0 30.346-1 45.02-4.669 43.129-10.782 69.696-39.35 82.256-88.593 1.89-7.225 35.682-194.083 35.682-197.084 0-.556-14.561-1-35.904-1h-35.793l-7.67 42.462c-4.113 23.455-11.227 63.36-15.784 88.705-11.672 65.917-14.229 75.254-22.788 84.925-9.337 10.782-26.789 15.896-43.907 13.005-9.671-1.667-15.563-4.89-19.898-11.004q-3.334-4.89-3.334-20.009c0-14.34.666-18.563 10.337-71.92 20.009-109.713 22.454-123.274 22.454-125.275 0-1.89-2.112-2-35.46-2-32.902 0-35.57.11-36.126 1.889m964.189-1.223c-41.907 5.225-70.808 21.565-89.372 50.133-12.56 19.564-16.34 32.347-27.456 93.817-8.448 46.465-9.226 51.911-9.67 68.474-.334 14.228 0 19.897 1.445 26.678 6.558 30.124 27.9 47.576 65.138 53.245 16.118 2.445 54.023 1.556 68.252-1.556 43.907-9.671 70.696-34.126 84.814-77.478 3.89-11.783 5.558-20.12 15.34-74.476 10.893-60.804 10.893-77.477.222-99.487-9.56-19.564-26.234-31.013-54.246-37.238-8.114-1.778-45.241-3.223-54.467-2.112m28.345 64.583c5.78 3.002 8.782 6.336 11.894 13.117 4.335 9.67 3.557 20.008-5.669 70.586-9.893 54.578-11.894 61.47-21.231 71.586-9.004 9.67-25.678 14.45-41.907 12.005-10.338-1.668-17.007-5.336-21.231-11.56-2.668-4.225-3.001-5.781-3.335-16.452-.333-10.783.334-16.118 7.559-56.246 4.335-24.344 9.004-47.799 10.338-52.134 4.78-15.34 15.673-27.234 29.123-31.68 9.338-3.112 27.901-2.668 34.46.778m237.878-64.027c-25.122 1.223-45.241 5.67-62.249 13.672-19.341 9.227-31.79 21.343-40.128 39.017-7.225 15.451-8.781 23.566-8.781 44.463 0 15.896.333 18.453 2.556 24.122 6.225 15.34 18.008 27.678 34.904 36.46 4.78 2.556 20.898 8.559 35.682 13.45s31.013 10.894 36.127 13.45c16.229 8.115 23.12 18.341 20.342 30.235-1.668 7.114-4.447 10.783-10.894 14.229-7.67 4.224-17.118 5.669-31.68 5.113-14.673-.667-23.01-3.335-28.346-8.893-6.113-6.447-7.336-10.226-6.78-20.564l.444-9.226h-71.586l-1.556 8.003c-.778 4.446-1.445 14.562-1.445 22.565 0 11.672.556 15.896 2.445 22.232 3.002 9.56 9.449 19.786 16.007 25.455 6.448 5.558 20.565 12.339 31.57 15.118 28.456 7.336 76.588 7.225 105.711 0 20.453-5.113 33.57-12.116 46.13-24.455 6.781-6.78 9.45-10.449 13.673-18.897 7.115-14.673 9.56-25.01 10.338-43.908.89-23.343-2.779-35.904-14.34-48.91-11.893-13.338-23.898-19.563-53.244-27.789-38.35-10.782-45.353-13.45-54.58-20.787-11.226-8.892-11.56-26.455-.555-36.126 6.447-5.67 16.674-8.337 32.458-8.337 11.005 0 14.451.334 19.564 2.334 6.559 2.557 12.339 7.67 14.229 12.672 2.223 5.892 1.445 18.564-1.446 24.789-1.445 3.112-3.223 6.113-3.89 6.447-.667.445-1 1.112-.778 1.556s16.007 1 34.904 1.223l34.459.333 3.001-4.446c5.447-8.226 8.56-19.564 9.115-33.57.667-14.34-.445-21.898-4.78-31.124-13.895-30.013-48.02-42.796-106.6-39.906m-952.518 1.778c-.333 1.112-2.89 15.007-5.669 30.903a10361 10361 0 0 1-8.892 50.02c-15.118 84.592-21.12 118.385-24.455 136.726-10.005 55.245-11.672 65.027-11.672 66.139 0 .778 11.783 1.112 35.904 1.112h35.793l5.336-29.79c18.008-101.044 23.454-130.279 24.121-128.945.445.778 6.447 22.01 13.34 47.131l12.56 45.798 25.678.444c14.117.223 26.233.112 26.9-.444.556-.445 14.34-21.565 30.569-46.798 16.118-25.344 29.457-45.686 29.68-45.13.221.444-6.004 35.904-13.673 78.811s-13.895 78.144-13.673 78.367c1.112.889 70.808 1.667 71.364.778.556-1 8.448-44.686 36.793-203.087 4.002-22.009 8.893-49.576 11.005-61.137 2.112-11.671 3.557-21.453 3.224-22.01-.223-.444-17.23-.777-37.572-.777H824.42l-33.236 49.688c-53.912 80.7-58.358 87.148-59.137 85.703-.444-.778-9.893-31.57-21.23-68.363l-20.454-67.028h-37.46c-34.682 0-37.46.11-38.017 1.89m341.146-.334c-.223.667-3.669 20.009-7.781 42.907-4.002 22.899-8.782 49.688-10.56 59.47-10.672 58.136-32.236 180.188-32.236 181.966 0 1.89 3 2.001 70.919 2.001 75.032 0 83.924-.444 100.265-5.224 14.673-4.224 23.676-9.56 34.57-20.342 14.228-14.117 20.23-26.234 25.566-51.689 1.557-7.559 2.557-16.229 2.557-22.787.111-9.227-.334-11.339-2.89-17.008-5.225-11.115-20.009-24.121-27.456-24.121-3.002 0-4.113-2.112-1.557-2.89 6.559-2.223 14.006-6.67 18.897-11.338 11.005-10.56 15.563-20.453 20.454-45.02 6.891-34.681 3.445-53.467-12.673-68.14-8.003-7.336-15.45-11.115-28.234-14.561-12.45-3.224-16.896-3.335-100.71-4.002-34.459-.334-48.91-.111-49.131.778m101.82 63.472c11.117 4.001 16.008 12.783 15.23 27.678-.445 8.003-1.001 10.227-3.78 14.784-4.113 6.67-10.227 10.894-18.786 13.117-8.003 2-43.907 2.445-43.907.444 0-1.111 8.114-47.13 9.56-54.69l.666-3h18.119c13.45 0 19.342.444 22.899 1.666m-7.67 107.602c12.116 3.89 17.007 11.227 16.229 24.677-.334 7.003-.89 8.893-3.78 13.006-3.557 5.002-12.56 11.115-19.341 13.339-2.223.667-15.007 1.445-29.124 1.667l-25.344.556v-2.668c0-3.335 8.448-50.466 9.337-51.8 1-1.778 46.02-.778 52.023 1.223" style="fill:#001e6a"/></svg>