<svg xmlns="http://www.w3.org/2000/svg" width="573.29486" height="445.896" x="0px" y="0px" viewBox="0 0 573.29486 445.896"><defs><linearGradient id="c" x1="80.7286" x2="98.1847" y1="47.566502" y2="47.566502" gradientTransform="translate(2.277 2.83)" gradientUnits="userSpaceOnUse"><stop stop-color="#44C1F0"/><stop offset="0.03" stop-color="#4AC2F0"/><stop offset="0.27" stop-color="#7DD2F2"/><stop offset="0.49" stop-color="#A6DEF4"/><stop offset="0.7" stop-color="#C3E7F5"/><stop offset="0.87" stop-color="#D4EDF6"/><stop offset="1" stop-color="#DBEFF7"/></linearGradient><linearGradient id="e" x1="58.876598" x2="58.876598" y1="120.839" y2="92.8647" gradientTransform="translate(2.277 2.83)" gradientUnits="userSpaceOnUse"><stop stop-color="#007CC5"/><stop offset="0.99" stop-color="#BFE5FB"/><stop offset="1" stop-color="#BFE5FB"/></linearGradient><linearGradient id="g" x1="131.492" x2="131.492" y1="120.39" y2="92.415398" gradientTransform="translate(2.277 2.83)" gradientUnits="userSpaceOnUse"><stop stop-color="#007CC5"/><stop offset="0.99" stop-color="#BFE5FB"/><stop offset="1" stop-color="#BFE5FB"/></linearGradient><clipPath id="a"><path fill="#fff" d="M20 28h180v140H20Z"/></clipPath></defs><g clip-path="url(#a)" transform="translate(-63.7 -89.18)scale(3.18497)"><path fill="#fff" d="m196.388 58.931-19.2 8.506L200 67.345l-20.49 7.197 6.724.026-28.277 12.342 6.972-27.723zM139.82 65.066v-19.38c-8.05-2.381-27.432-7.454-46.323-7.454h-.188c-18.304 0-37.332 4.797-46.515 7.469v14.942l-.324 4.07H36.428V38.187l3.602-1.14C46.754 34.923 70.467 28 93.31 28h.186c22.848 0 46.561 6.922 53.28 9.047l3.602 1.14v26.88z"/><path fill="#1c0c43" d="M52.896 138.152c10.33 10.053 24.011 19.412 40.682 27.835 16.301-7.78 30.077-17.24 40.97-28.142 5.636-5.644 9.061-13.45 9.572-21.685v-15.166H42.96v15.166c.53 8.383 4.082 16.306 9.936 21.992"/><path fill="#c6c6c6" d="m93.552 168-.779-.393c-16.827-8.501-30.664-17.972-41.122-28.147-6.187-6.023-9.911-14.253-10.478-23.182V99.185h104.738v17.088c-.546 8.766-4.134 16.888-10.103 22.86-11.03 11.039-24.983 20.622-41.467 28.489zM44.75 116.099c.521 8.005 3.855 15.371 9.385 20.75 10.038 9.767 23.308 18.891 39.458 27.126 15.77-7.617 29.121-16.838 39.685-27.412 5.332-5.338 8.54-12.602 9.041-20.464v-13.297H44.75Z"/><path fill="#fff" d="M93.497 33.093h-.188c-21.962 0-44.653 6.575-51.7 8.802V99.41h103.589V41.895c-7.048-2.228-29.739-8.802-51.701-8.802"/><path fill="#1c0c43" d="M43.703 60.494V43.34c7.938-2.421 29.212-8.255 49.606-8.255h.188c20.394 0 41.663 5.834 49.409 8.255v18.58h4.386V40.454L145.855 40c-6.617-2.089-29.946-8.903-52.358-8.903h-.188c-22.418 0-45.746 6.814-52.363 8.903l-1.432.455v21.118h4.103z"/><path fill="#2b3087" d="M76.937 70.527h-3.475l-1.255-7.678h-.03l-1.22 7.678h-3.496L64.31 57.93h3.511l1.412 7.78h.03l1.402-7.78h3.152l1.366 7.887h.035l1.447-7.887h3.527zM80.661 64.229q.001-1.448.42-2.657a6.3 6.3 0 0 1 1.194-2.079 5.35 5.35 0 0 1 1.862-1.364q1.084-.497 2.403-.495 1.318-.002 2.408.495a5.5 5.5 0 0 1 1.862 1.364c.516.583.91 1.277 1.194 2.08q.419 1.208.42 2.656c0 .965-.142 1.854-.42 2.656a6.3 6.3 0 0 1-1.194 2.084 5.5 5.5 0 0 1-1.862 1.37q-1.086.49-2.408.49-1.32 0-2.403-.49a5.5 5.5 0 0 1-1.862-1.37 6.1 6.1 0 0 1-1.194-2.084q-.419-1.209-.42-2.656m3.577 0c0 .71.076 1.282.238 1.731q.236.676.576 1.053t.75.53c.267.098.52.149.748.149q.34-.001.749-.148c.268-.097.521-.281.749-.531q.341-.377.576-1.053.237-.666.238-1.731c0-.71-.076-1.277-.238-1.727-.156-.45-.349-.797-.576-1.052a1.9 1.9 0 0 0-.75-.532 2.3 2.3 0 0 0-.748-.148q-.34.001-.749.148a1.9 1.9 0 0 0-.749.532c-.227.255-.42.602-.576 1.052-.157.45-.238 1.022-.238 1.727M93.598 64.229q0-1.448.425-2.657a6.1 6.1 0 0 1 1.194-2.079 5.35 5.35 0 0 1 1.862-1.364q1.085-.497 2.408-.495c.88 0 1.679.163 2.408.495a5.5 5.5 0 0 1 1.862 1.364c.516.583.91 1.277 1.194 2.08.283.806.42 1.69.42 2.656 0 .965-.142 1.854-.42 2.656a6.3 6.3 0 0 1-1.194 2.084 5.5 5.5 0 0 1-1.862 1.37c-.729.326-1.528.49-2.408.49q-1.318 0-2.408-.49a5.5 5.5 0 0 1-1.862-1.37 6.1 6.1 0 0 1-1.194-2.084q-.426-1.209-.425-2.656m3.577 0c0 .71.076 1.282.237 1.731q.236.676.577 1.053t.749.53q.408.148.749.149.34-.001.749-.148c.268-.097.521-.281.748-.531q.342-.377.577-1.053.237-.666.238-1.731c0-.71-.076-1.277-.238-1.727-.157-.45-.349-.797-.577-1.052a1.9 1.9 0 0 0-.748-.532 2.2 2.2 0 0 0-.75-.148q-.34.001-.748.148a1.9 1.9 0 0 0-.749.532c-.228.255-.42.602-.577 1.052s-.237 1.022-.237 1.727M106.878 57.93h6.81q.766 0 1.447.23.686.228 1.204.68.518.45.83 1.123c.202.445.309.97.309 1.568 0 .332-.036.654-.107.981q-.106.49-.318.91a3 3 0 0 1-.542.756q-.333.335-.774.51.73.301 1.169 1.13.438.825.536 2.012.013.23.036.598c.01.245.03.505.055.771s.061.521.107.756c.045.24.111.434.197.572h-3.577a8 8 0 0 1-.197-.96 15 15 0 0 1-.096-.981c-.026-.296-.051-.587-.092-.884a2.7 2.7 0 0 0-.217-.792 1.4 1.4 0 0 0-.466-.567q-.303-.207-.834-.209h-1.903v4.393h-3.577zm3.577 5.502h1.867a4 4 0 0 0 .526-.036c.193-.02.36-.077.511-.164q.228-.13.38-.383c.106-.158.157-.388.157-.669q-.001-.604-.375-.924-.38-.328-1.396-.327h-1.675v2.508zM122.496 57.93h-3.576v12.597h3.576z"/><mask id="b" width="18" height="16" x="80" y="39" maskUnits="userSpaceOnUse"><path fill="#fff" d="M87.44 39.586c-3.946 0-7.179 3.259-7.179 7.249s3.233 7.248 7.18 7.248h10.224V39.586Z"/></mask><g mask="url(#b)"><path fill="url(#c)" d="M97.665 39.586H80.261v14.497h17.404z" style="fill:url(#c)"/></g><path fill="#2b3087" d="M106.544 46.835c0 4.95-3.971 8.96-8.873 8.96-4.903 0-8.88-4.01-8.88-8.96s3.977-8.966 8.88-8.966c4.902 0 8.873 4.016 8.873 8.966"/><path fill="#fff" d="M85.817 122.224h2.509q.636.001 1.037.209c.268.143.476.312.622.521s.248.435.299.685q.076.374.076.695 0 .467-.117.858-.113.392-.379.669a1.74 1.74 0 0 1-.683.439q-.418.153-1.027.154h-.713v2.717h-1.62v-6.957zm1.619 3.029h.445a1 1 0 0 0 .394-.071.7.7 0 0 0 .248-.189.7.7 0 0 0 .127-.276c.02-.108.035-.22.035-.337 0-.138-.01-.261-.04-.373a.8.8 0 0 0-.132-.297.6.6 0 0 0-.258-.199.95.95 0 0 0-.405-.071h-.414v1.823zM91.184 122.224h2.722c.35 0 .638.051.876.153.232.102.425.235.566.399.147.163.248.357.314.572q.097.329.096.689 0 .76-.288 1.16-.288.398-.87.536v.021q.386.06.607.204.22.146.329.368.105.224.136.516c.02.194.03.409.04.643.006.343.016.619.03.818.016.204.031.357.057.465q.031.162.085.224a.4.4 0 0 0 .142.103v.086h-1.745c-.066-.117-.107-.28-.137-.495a8 8 0 0 1-.04-.914q.001-.453-.036-.736a1.5 1.5 0 0 0-.111-.45.44.44 0 0 0-.208-.219.75.75 0 0 0-.323-.056h-.618v2.876H91.19v-6.958zm1.62 2.932h.5a.95.95 0 0 0 .405-.082.72.72 0 0 0 .39-.505q.039-.163.04-.317 0-.39-.177-.634c-.121-.163-.339-.245-.663-.245h-.49v1.783zM101.414 125.703q-.001.72-.055 1.379a3.4 3.4 0 0 1-.294 1.154 1.84 1.84 0 0 1-.723.792q-.487.291-1.346.291-.803 0-1.28-.255a1.75 1.75 0 0 1-.734-.725c-.172-.317-.278-.695-.334-1.14a13 13 0 0 1-.075-1.496q0-.83.076-1.497.075-.666.333-1.139.257-.474.734-.726.477-.253 1.28-.255.859 0 1.346.291.487.292.723.792c.157.332.258.715.294 1.154.04.44.055.899.055 1.38m-3.167 0q.001.721.026 1.205c.015.322.05.577.1.777.051.194.127.337.223.419a.56.56 0 0 0 .385.127.58.58 0 0 0 .39-.127q.15-.13.232-.419.084-.292.106-.777.025-.484.026-1.205c0-.481-.01-.874-.026-1.201a3.5 3.5 0 0 0-.106-.776c-.055-.194-.131-.337-.233-.419a.57.57 0 0 0-.39-.128.55.55 0 0 0-.384.128c-.096.082-.172.225-.222.419q-.077.292-.101.776-.025.49-.026 1.201M68.812 133.222h1.736l.82 5.379h.02l.83-5.379h1.734l-1.563 6.958h-2.064zM78.992 136.701q-.001.72-.056 1.379-.06.659-.294 1.155c-.156.332-.4.592-.723.792q-.487.291-1.346.291-.803-.001-1.28-.256a1.73 1.73 0 0 1-.733-.725c-.172-.317-.279-.695-.334-1.139q-.075-.668-.076-1.497 0-.829.076-1.497.076-.665.334-1.139.256-.474.733-.725.477-.255 1.28-.256.859 0 1.346.291.488.293.723.792a3.3 3.3 0 0 1 .294 1.155c.04.439.055.899.055 1.379m-3.168 0c0 .48.005.884.026 1.2.015.322.05.578.1.777.052.194.127.337.224.419a.56.56 0 0 0 .384.127q.236.002.39-.127.15-.13.232-.419a3.5 3.5 0 0 0 .107-.777q.024-.48.025-1.2c0-.48-.01-.874-.025-1.201a3.5 3.5 0 0 0-.107-.781c-.055-.194-.131-.337-.232-.419a.6.6 0 0 0-.39-.128.55.55 0 0 0-.384.128q-.147.13-.223.419-.077.291-.101.781t-.026 1.201M79.842 133.222h1.618v5.63h2.348v1.328h-3.967zM84.309 133.222h1.619v5.63h2.347v1.328H84.31zM88.776 133.222h3.987v1.323h-2.368v1.395h2.221v1.328h-2.22v1.584h2.468v1.328h-4.088zM94.873 137.442l-1.746-4.22h1.796l.77 2.58h.02l.794-2.58h1.735l-1.745 4.22v2.738h-1.624zM98.773 133.222h2.52q.889.001 1.422.424c.354.281.536.715.536 1.293q.002.613-.294 1.042-.297.427-.784.526v.02c.127.021.268.056.415.102.147.052.288.138.415.261q.19.184.319.506.127.321.126.858-.001.313-.086.649a1.47 1.47 0 0 1-.334.623 1.8 1.8 0 0 1-.688.47c-.293.122-.688.184-1.169.184h-2.393v-6.958zm1.619 2.779h.446c.288 0 .495-.077.612-.225q.175-.222.177-.597a1 1 0 0 0-.041-.261.63.63 0 0 0-.374-.419.9.9 0 0 0-.369-.066h-.456v1.568zm0 2.973h.491q.494.001.683-.265a1.08 1.08 0 0 0 .192-.639q-.002-.528-.237-.751a.87.87 0 0 0-.613-.225h-.521v1.88zM105.583 133.222h2.029l1.715 6.958h-1.68l-.247-1.323h-1.65l-.243 1.323h-1.679zm.987 1.267h-.02l-.572 3.096h1.179zM109.848 133.222h1.624v5.63h2.343v1.328h-3.967zM114.316 133.222h1.624v5.63h2.342v1.328h-3.966zM86.646 146.637c0-.506-.04-.879-.126-1.109-.086-.235-.258-.352-.531-.352q-.243-.001-.38.128-.137.13-.212.413-.076.29-.092.756-.021.468-.02 1.15c0 .521.005.945.02 1.282.01.337.046.598.097.792q.075.292.227.408a.64.64 0 0 0 .4.118.49.49 0 0 0 .354-.128.84.84 0 0 0 .203-.357q.073-.23.096-.557.024-.33.025-.736h1.563v.245q.001.567-.096 1.043a2 2 0 0 1-.364.827 1.76 1.76 0 0 1-.739.552q-.471.2-1.224.199c-.501 0-.931-.092-1.224-.276a1.75 1.75 0 0 1-.673-.771 3.4 3.4 0 0 1-.284-1.16q-.06-.667-.06-1.456c0-.449.015-.883.055-1.307.036-.424.132-.808.284-1.14a1.9 1.9 0 0 1 .713-.807q.485-.306 1.34-.306 1.07 0 1.64.516c.38.347.572.924.572 1.742v.291zM88.943 144.221h1.624v5.629h2.343v1.328h-3.967zM97.858 148.879q0 .516-.091.961-.09.442-.34.771a1.7 1.7 0 0 1-.687.516q-.442.19-1.149.189c-.47 0-.855-.066-1.148-.189a1.65 1.65 0 0 1-.688-.516 1.9 1.9 0 0 1-.34-.771 4.8 4.8 0 0 1-.09-.961v-4.658h1.618v5.133q.001.408.162.639.16.23.486.23.327 0 .486-.23.16-.231.162-.639v-5.133h1.619zM98.778 144.221h2.52q.889.001 1.422.424c.354.281.536.715.536 1.292q.002.613-.294 1.042a1.22 1.22 0 0 1-.784.526v.021q.192.031.415.102c.147.051.289.133.415.26q.19.185.319.506.127.322.126.858-.001.313-.086.649a1.46 1.46 0 0 1-.334.623 1.84 1.84 0 0 1-.688.47c-.293.123-.688.184-1.168.184h-2.393v-6.957zm1.619 2.779h.446c.288 0 .495-.077.612-.225q.175-.224.177-.593a1 1 0 0 0-.041-.26.6.6 0 0 0-.131-.246.7.7 0 0 0-.243-.173.9.9 0 0 0-.369-.067h-.456v1.569zm0 2.973h.491q.493.001.688-.266.191-.27.192-.639 0-.528-.237-.751a.86.86 0 0 0-.612-.224h-.522zM96.38 119.971c-13.376 0-24.264-10.988-24.264-24.494s10.888-24.5 24.264-24.5c13.377 0 24.265 10.993 24.265 24.5S109.762 119.97 96.38 119.97"/><path fill="#fff" d="M79.65 119.874H36.543L25.069 77.771 20 59.16h26.875L49.84 70.66h42.564zM139.015 59.161l-4.235 17.47-3.551-5.971h-24.69v49.214h43.055l11.055-42.21 5.347-18.503z"/><path fill="#1c0c43" d="M96.31 117.422c-12.133 0-22.008-9.966-22.008-22.216s9.87-22.222 22.007-22.222 22.003 9.972 22.003 22.222-9.87 22.216-22.002 22.216"/><path fill="#1c0c43" d="M38.38 117.442 27.124 76.126l-4.087-14.533h21.972l2.965 11.499h41.31l-11.49 44.35ZM131.654 117.442l-1.695-3.085v3.085h-21.285v-44.35h20.921l5.863 9.854 5.176-21.353h22.377l-4.685 14.39-10.857 41.459z"/><path fill="#0057a5" d="m70.649 76.295-3.334 12.883-2.722-12.883H51.61l-2.752 12.913-6.299-24.417H27.022l2.677 8.735 11.095 40.713H55.81l2.256-10.298 2.236 10.298h15.042l9.835-37.945ZM143.118 64.79l-6.41 26.472-8.909-14.967h-15.952v37.944h14.94V101.99l6.734 12.249h11.505l10.71-40.887 2.656-8.562z"/><path fill="#fff" d="M30.038 67.09h10.766l8.216 31.865h.081l4.346-20.367h9.304l4.306 20.367h.08l5.267-20.367h9.83l-8.646 33.358H62.134l-4.012-18.498h-.086l-4.053 18.498H42.53L31.586 71.784ZM114.118 78.588h12.396l11.009 18.498h.116l7.265-29.997h10.407l-1.467 4.496-10.564 40.361h-8.424l-10.265-18.687h-.076v18.687h-10.397z"/><mask id="d" width="40" height="21" x="39" y="90" maskUnits="userSpaceOnUse"><path fill="#fff" d="m50.978 93.903-1.224 5.737h-1.356l-1.27-4.93a158 158 0 0 0-7.892 1.952l3.905 14.334h10.195l3.997-18.232c-2.15.342-4.275.72-6.355 1.134M69.95 91.16l-2.19 8.48h-1.356l-1.67-7.918c-2.003.24-3.991.516-5.954.812l4.006 18.462h10.185l5.302-20.464c-2.798.158-5.585.362-8.317.623"/></mask><g mask="url(#d)"><path fill="url(#e)" d="M78.268 90.542H39.236v20.464h39.032Z" style="fill:url(#e)"/></g><mask id="f" width="33" height="21" x="114" y="91" maskUnits="userSpaceOnUse"><path fill="#fff" d="M114.923 111.001h8.783V92.314h1.356l10.27 18.687h7.326l3.815-14.564a160 160 0 0 0-7.438-1.819l-.764 3.152h-1.204l-2.408-4.05c-6.324-1.217-12.957-2.126-19.731-2.713V111z"/></mask><g mask="url(#f)"><path fill="url(#g)" d="M146.468 91.007h-31.545V111h31.545z" style="fill:url(#g)"/></g><path fill="#1c0c43" d="M159.839 61.593h27.169l-29.101 11.77"/><path fill="#1c0c43" d="M160.112 69.276h29.193l-35.35 12.01"/><path fill="#1c0c43" d="M157.183 76.014h21.194l-23.364 10.053"/><path fill="#0057a5" d="M157.305 64.796h17.388l-19.321 7.83"/><path fill="#0057a5" d="M155.013 71.135h23.662l-24.269 7.377"/><path fill="#0057a5" d="M153.561 77.597h15.79l-17.723 7.407"/><path fill="#fff" d="M151.942 72.887c-.395 1.635-.208 3.162-.643 4.577l16.843-4.572h-16.2zm9.4 6.289-9.856.112c-.652 1.762-.258 3.183-.941 4.373zm-7.928-12.056a104 104 0 0 1-.805 4.296l12.3-4.398-11.5.102z"/><path fill="#0057a5" d="M115.672 95.2c0 10.846-8.708 19.637-19.453 19.637-10.746 0-19.454-8.791-19.454-19.636s8.708-19.642 19.454-19.642c10.745 0 19.453 8.797 19.453 19.642"/><path fill="#fff" d="M97.18 95.814c.242 2.094.698 4.06 1.356 5.884 5.985-3.264 9.936-8.54 12.061-16.076a17.5 17.5 0 0 0-4.032-4.326c-1.194 5.752-4.346 10.63-9.38 14.518z"/><path fill="#fdc300" d="M103.904 84.636c-3.588-2.998-7.772-4.505-12.497-4.505q-2.154-.001-4.457.419a17.3 17.3 0 0 0-4.832 4.674c3.263-.685 6.471-.695 9.547-.041 3.243.685 6.446 2.13 9.537 4.306a21.8 21.8 0 0 0 2.696-4.848z"/><path fill="#e52d12" d="M104.47 83.033q.409-1.322.658-2.718a17 17 0 0 0-8.904-2.503c-1.695 0-3.325.245-4.873.705 4.928-.02 9.325 1.491 13.119 4.51z"/><path fill="#fdc300" d="M99.133 103.2a21.4 21.4 0 0 0 2.711 4.552c5.571-2.585 9.279-6.866 11.576-13.353a17.45 17.45 0 0 0-1.745-6.871c-2.358 7.264-6.481 12.413-12.547 15.667z"/><path fill="#fff" d="M95.601 96.003a25.6 25.6 0 0 0-5.661-1.701c-.07 7.33 2.14 13.337 6.729 18.282 2.19-.056 4.28-.526 6.187-1.333-4.098-3.933-6.531-9.057-7.255-15.253z"/><path fill="#fdc300" d="M86.484 109.545a17 17 0 0 0 7.989 2.958c-1.821-2.207-3.248-4.623-4.25-7.229-1.3-3.371-1.932-7.131-1.877-11.197a22 22 0 0 0-2.175-.107q-1.547.001-3.071.224c-.39 6.508.718 11.555 3.38 15.351z"/><path fill="#fff" d="M112.934 99.4c-2.383 4.337-5.701 7.514-10.022 9.619q.705.773 1.487 1.491a17.38 17.38 0 0 0 8.535-11.11M83.039 106.393a22 22 0 0 1-.648-1.982c-.789-2.866-1.087-6.202-.9-9.91a21 21 0 0 0-2.49.725c0 4.255 1.524 8.148 4.038 11.172z"/><path fill="#e52d12" d="M96.229 94.526c1.507-1.17 2.838-2.426 3.981-3.78-4.244-2.973-8.585-4.45-13.134-4.45-1.998 0-4.037.287-6.127.854a17.4 17.4 0 0 0-1.872 6.34c5.545-1.804 11.303-1.462 17.146 1.031z"/></g></svg>