<svg xmlns="http://www.w3.org/2000/svg" xmlns:xlink="http://www.w3.org/1999/xlink" width="615.45264" height="517.36865" x="0px" y="0px" viewBox="0 0 615.45264 517.36865"><defs><clipPath id="ce"><path fill="none" d="M24.1 96.9c0 42.2 34.2 76.3 76.3 76.3s76.3-34.2 76.3-76.3-34.1-76.3-76.3-76.3-76.3 34.1-76.3 76.3"/></clipPath><clipPath id="cg"><path fill="none" d="M24.1 96.9c0 42.2 34.2 76.3 76.3 76.3s76.3-34.2 76.3-76.3-34.1-76.3-76.3-76.3-76.3 34.1-76.3 76.3"/></clipPath><clipPath id="ch"><path fill="none" d="M32.7 25.5h144v147.7h-144Z"/></clipPath><clipPath id="ci"><path fill="none" d="M27.1 20.8h148.6v148H27.1Z"/></clipPath><clipPath id="cj"><path fill="none" d="M31.7 46.5h126.1v103H31.7Z"/></clipPath><clipPath id="ck"><path fill="none" d="M-9.7-13.2h220.3v220.3H-9.7Z"/></clipPath><clipPath id="a"><path fill="none" d="M210.5 96.9c0 60.8-49.3 110.1-110.1 110.1S-9.7 157.7-9.7 96.9 39.6-13.2 100.4-13.2 210.5 36.1 210.5 96.9"/></clipPath><clipPath id="cm"><path fill="none" d="M-9.7-13.2h220.3v220.3H-9.7Z"/></clipPath><clipPath id="e"><path fill="none" d="M210.5 96.9c0 60.8-49.3 110.1-110.1 110.1S-9.7 157.7-9.7 96.9 39.6-13.2 100.4-13.2 210.5 36.1 210.5 96.9"/></clipPath><clipPath id="co"><path fill="none" d="M-9.7-13.2h220.3v220.3H-9.7Z"/></clipPath><clipPath id="h"><path fill="none" d="M210.5 96.9c0 60.8-49.3 110.1-110.1 110.1S-9.7 157.7-9.7 96.9 39.6-13.2 100.4-13.2 210.5 36.1 210.5 96.9"/></clipPath><clipPath id="cq"><path fill="none" d="M-9.7-13.2h220.3v220.3H-9.7Z"/></clipPath><clipPath id="cr"><path fill="none" d="M210.5 96.9c0 60.8-49.3 110.1-110.1 110.1S-9.7 157.7-9.7 96.9 39.6-13.2 100.4-13.2 210.5 36.1 210.5 96.9"/></clipPath><clipPath id="j"><path fill="none" d="M144.5 50.2c0 16.8-13.6 30.4-30.4 30.4S83.7 67 83.7 50.2s13.6-30.4 30.4-30.4 30.4 13.6 30.4 30.4"/></clipPath><clipPath id="cu"><path fill="none" d="M83.7 19.8h60.8v60.8H83.7Z"/></clipPath><clipPath id="n"><path fill="none" d="M144.5 50.2c0 16.8-13.6 30.4-30.4 30.4S83.7 67 83.7 50.2s13.6-30.4 30.4-30.4 30.4 13.6 30.4 30.4"/></clipPath><clipPath id="cw"><path fill="none" d="M83.7 19.8h60.8v60.8H83.7Z"/></clipPath><clipPath id="cx"><path fill="none" d="M144.5 50.2c0 16.8-13.6 30.4-30.4 30.4S83.7 67 83.7 50.2s13.6-30.4 30.4-30.4 30.4 13.6 30.4 30.4"/></clipPath><clipPath id="r"><path fill="none" d="M163.9 95.3c0 16.8-13.6 30.4-30.4 30.4s-30.4-13.6-30.4-30.4 13.6-30.4 30.4-30.4 30.4 13.6 30.4 30.4"/></clipPath><clipPath id="cA"><path fill="none" d="M103 64.8h60.8v60.8H103Z"/></clipPath><clipPath id="v"><path fill="none" d="M163.9 95.3c0 16.8-13.6 30.4-30.4 30.4s-30.4-13.6-30.4-30.4 13.6-30.4 30.4-30.4 30.4 13.6 30.4 30.4"/></clipPath><clipPath id="cC"><path fill="none" d="M103 64.8h60.8v60.8H103Z"/></clipPath><clipPath id="cD"><path fill="none" d="M163.9 95.3c0 16.8-13.6 30.4-30.4 30.4s-30.4-13.6-30.4-30.4 13.6-30.4 30.4-30.4 30.4 13.6 30.4 30.4"/></clipPath><clipPath id="y"><path fill="none" d="M181.1 74c0 16.8-13.6 30.4-30.4 30.4S120.3 90.8 120.3 74s13.6-30.4 30.4-30.4 30.4 13.6 30.4 30.4"/></clipPath><clipPath id="cG"><path fill="none" d="M120.3 43.6h60.8v60.8h-60.8z"/></clipPath><clipPath id="C"><path fill="none" d="M181.1 74c0 16.8-13.6 30.4-30.4 30.4S120.3 90.8 120.3 74s13.6-30.4 30.4-30.4 30.4 13.6 30.4 30.4"/></clipPath><clipPath id="cI"><path fill="none" d="M120.3 43.6h60.8v60.8h-60.8z"/></clipPath><clipPath id="cJ"><path fill="none" d="M181.1 74c0 16.8-13.6 30.4-30.4 30.4S120.3 90.8 120.3 74s13.6-30.4 30.4-30.4 30.4 13.6 30.4 30.4"/></clipPath><clipPath id="F"><path fill="none" d="M66.3 96.1c0 16.8-13.6 30.4-30.4 30.4S5.5 112.9 5.5 96.1s13.6-30.4 30.4-30.4 30.4 13.6 30.4 30.4"/></clipPath><clipPath id="cM"><path fill="none" d="M5.5 65.6h60.8v60.8H5.5Z"/></clipPath><clipPath id="J"><path fill="none" d="M66.3 96.1c0 16.8-13.6 30.4-30.4 30.4S5.5 112.9 5.5 96.1s13.6-30.4 30.4-30.4 30.4 13.6 30.4 30.4"/></clipPath><clipPath id="cO"><path fill="none" d="M5.5 65.6h60.8v60.8H5.5Z"/></clipPath><clipPath id="cP"><path fill="none" d="M66.3 96.1c0 16.8-13.6 30.4-30.4 30.4S5.5 112.9 5.5 96.1s13.6-30.4 30.4-30.4 30.4 13.6 30.4 30.4"/></clipPath><clipPath id="M"><path fill="none" d="M123.1 132.1c0 16.8-13.6 30.4-30.4 30.4s-30.4-13.6-30.4-30.4 13.6-30.4 30.4-30.4 30.4 13.6 30.4 30.4"/></clipPath><clipPath id="cS"><path fill="none" d="M62.3 101.7h60.8v60.8H62.3Z"/></clipPath><clipPath id="Q"><path fill="none" d="M123.1 132.1c0 16.8-13.6 30.4-30.4 30.4s-30.4-13.6-30.4-30.4 13.6-30.4 30.4-30.4 30.4 13.6 30.4 30.4"/></clipPath><clipPath id="cU"><path fill="none" d="M62.3 101.7h60.8v60.8H62.3Z"/></clipPath><clipPath id="cV"><path fill="none" d="M123.1 132.1c0 16.8-13.6 30.4-30.4 30.4s-30.4-13.6-30.4-30.4 13.6-30.4 30.4-30.4 30.4 13.6 30.4 30.4"/></clipPath><clipPath id="T"><path fill="none" d="M133.9 48.6c0 12.4-10.1 22.5-22.5 22.5S88.9 61 88.9 48.6 99 26.1 111.4 26.1s22.5 10.1 22.5 22.5"/></clipPath><clipPath id="cY"><path fill="none" d="M89 26.1h44.9V71H89Z"/></clipPath><clipPath id="X"><path fill="none" d="M133.9 48.6c0 12.4-10.1 22.5-22.5 22.5S88.9 61 88.9 48.6 99 26.1 111.4 26.1s22.5 10.1 22.5 22.5"/></clipPath><clipPath id="da"><path fill="none" d="M89 26.1h44.9V71H89Z"/></clipPath><clipPath id="db"><path fill="none" d="M133.9 48.6c0 12.4-10.1 22.5-22.5 22.5S88.9 61 88.9 48.6 99 26.1 111.4 26.1s22.5 10.1 22.5 22.5"/></clipPath><clipPath id="aa"><path fill="none" d="M173.2 74.5c0 12.4-10.1 22.5-22.5 22.5s-22.5-10.1-22.5-22.5S138.3 52 150.7 52s22.5 10.1 22.5 22.5"/></clipPath><clipPath id="de"><path fill="none" d="M128.3 52.1h44.9V97h-44.9z"/></clipPath><clipPath id="ae"><path fill="none" d="M173.2 74.5c0 12.4-10.1 22.5-22.5 22.5s-22.5-10.1-22.5-22.5S138.3 52 150.7 52s22.5 10.1 22.5 22.5"/></clipPath><clipPath id="dg"><path fill="none" d="M128.3 52.1h44.9V97h-44.9z"/></clipPath><clipPath id="dh"><path fill="none" d="M173.2 74.5c0 12.4-10.1 22.5-22.5 22.5s-22.5-10.1-22.5-22.5S138.3 52 150.7 52s22.5 10.1 22.5 22.5"/></clipPath><clipPath id="ai"><path fill="none" d="M160.4 94.3c0 14.9-12.1 26.9-26.9 26.9s-26.9-12.1-26.9-26.9 12.1-26.9 26.9-26.9 26.9 12.1 26.9 26.9"/></clipPath><clipPath id="dk"><path fill="none" d="M106.5 67.4h53.9v53.9h-53.9z"/></clipPath><clipPath id="am"><path fill="none" d="M160.4 94.3c0 14.9-12.1 26.9-26.9 26.9s-26.9-12.1-26.9-26.9 12.1-26.9 26.9-26.9 26.9 12.1 26.9 26.9"/></clipPath><clipPath id="dm"><path fill="none" d="M106.5 67.4h53.9v53.9h-53.9z"/></clipPath><clipPath id="dn"><path fill="none" d="M160.4 94.3c0 14.9-12.1 26.9-26.9 26.9s-26.9-12.1-26.9-26.9 12.1-26.9 26.9-26.9 26.9 12.1 26.9 26.9"/></clipPath><clipPath id="ap"><path fill="none" d="M116.5 84.1c0 12.4-10.1 22.5-22.5 22.5S71.5 96.5 71.5 84.1 81.6 61.6 94 61.6s22.5 10.1 22.5 22.5"/></clipPath><clipPath id="dq"><path fill="none" d="M71.6 61.6h44.9v44.9H71.6Z"/></clipPath><clipPath id="at"><path fill="none" d="M116.5 84.1c0 12.4-10.1 22.5-22.5 22.5S71.5 96.5 71.5 84.1 81.6 61.6 94 61.6s22.5 10.1 22.5 22.5"/></clipPath><clipPath id="ds"><path fill="none" d="M71.6 61.6h44.9v44.9H71.6Z"/></clipPath><clipPath id="dt"><path fill="none" d="M116.5 84.1c0 12.4-10.1 22.5-22.5 22.5S71.5 96.5 71.5 84.1 81.6 61.6 94 61.6s22.5 10.1 22.5 22.5"/></clipPath><clipPath id="aw"><path fill="none" d="M62.9 105.7c0 14.9-12.1 26.9-26.9 26.9S9.1 120.5 9.1 105.7 21.2 78.8 36 78.8s26.9 12.1 26.9 26.9"/></clipPath><clipPath id="dw"><path fill="none" d="M9 78.8h53.9v53.9H9Z"/></clipPath><clipPath id="aA"><path fill="none" d="M62.9 105.7c0 14.9-12.1 26.9-26.9 26.9S9.1 120.5 9.1 105.7 21.2 78.8 36 78.8s26.9 12.1 26.9 26.9"/></clipPath><clipPath id="dy"><path fill="none" d="M9 78.8h53.9v53.9H9Z"/></clipPath><clipPath id="dz"><path fill="none" d="M62.9 105.7c0 14.9-12.1 26.9-26.9 26.9S9.1 120.5 9.1 105.7 21.2 78.8 36 78.8s26.9 12.1 26.9 26.9"/></clipPath><clipPath id="aD"><path fill="none" d="M209.7 96.1c0 16.8-13.6 30.4-30.4 30.4s-30.4-13.6-30.4-30.4 13.6-30.4 30.4-30.4 30.4 13.6 30.4 30.4"/></clipPath><clipPath id="dC"><path fill="none" d="M148.9 65.6h60.8v60.8h-60.8z"/></clipPath><clipPath id="aH"><path fill="none" d="M209.7 96.1c0 16.8-13.6 30.4-30.4 30.4s-30.4-13.6-30.4-30.4 13.6-30.4 30.4-30.4 30.4 13.6 30.4 30.4"/></clipPath><clipPath id="dE"><path fill="none" d="M148.9 65.6h60.8v60.8h-60.8z"/></clipPath><clipPath id="dF"><path fill="none" d="M209.7 96.1c0 16.8-13.6 30.4-30.4 30.4s-30.4-13.6-30.4-30.4 13.6-30.4 30.4-30.4 30.4 13.6 30.4 30.4"/></clipPath><clipPath id="aK"><path fill="none" d="M206.2 105.7c0 14.9-12.1 26.9-26.9 26.9s-26.9-12.1-26.9-26.9 12.1-26.9 26.9-26.9 26.9 12.1 26.9 26.9"/></clipPath><clipPath id="dI"><path fill="none" d="M152.3 78.8h53.9v53.9h-53.9z"/></clipPath><clipPath id="aO"><path fill="none" d="M206.2 105.7c0 14.9-12.1 26.9-26.9 26.9s-26.9-12.1-26.9-26.9 12.1-26.9 26.9-26.9 26.9 12.1 26.9 26.9"/></clipPath><clipPath id="dK"><path fill="none" d="M152.3 78.8h53.9v53.9h-53.9z"/></clipPath><clipPath id="dL"><path fill="none" d="M206.2 105.7c0 14.9-12.1 26.9-26.9 26.9s-26.9-12.1-26.9-26.9 12.1-26.9 26.9-26.9 26.9 12.1 26.9 26.9"/></clipPath><clipPath id="aR"><path fill="none" d="M63.8 147.5c0 3.2-2.6 5.8-5.8 5.8s-5.8-2.6-5.8-5.8 2.6-5.8 5.8-5.8 5.8 2.6 5.8 5.8"/></clipPath><clipPath id="dO"><path fill="none" d="M52.2 141.7h11.6v11.6H52.2z"/></clipPath><clipPath id="aV"><path fill="none" d="M63.8 147.5c0 3.2-2.6 5.8-5.8 5.8s-5.8-2.6-5.8-5.8 2.6-5.8 5.8-5.8 5.8 2.6 5.8 5.8"/></clipPath><clipPath id="dQ"><path fill="none" d="M52.2 141.7h11.6v11.6H52.2z"/></clipPath><clipPath id="dR"><path fill="none" d="M63.8 147.5c0 3.2-2.6 5.8-5.8 5.8s-5.8-2.6-5.8-5.8 2.6-5.8 5.8-5.8 5.8 2.6 5.8 5.8"/></clipPath><clipPath id="aY"><path fill="none" d="M63.8 110.2c0 3.2-2.6 5.8-5.8 5.8s-5.8-2.6-5.8-5.8 2.6-5.8 5.8-5.8 5.8 2.6 5.8 5.8"/></clipPath><clipPath id="dU"><path fill="none" d="M52.2 104.4h11.6V116H52.2z"/></clipPath><clipPath id="bc"><path fill="none" d="M63.8 110.2c0 3.2-2.6 5.8-5.8 5.8s-5.8-2.6-5.8-5.8 2.6-5.8 5.8-5.8 5.8 2.6 5.8 5.8"/></clipPath><clipPath id="dW"><path fill="none" d="M52.2 104.4h11.6V116H52.2z"/></clipPath><clipPath id="dX"><path fill="none" d="M63.8 110.2c0 3.2-2.6 5.8-5.8 5.8s-5.8-2.6-5.8-5.8 2.6-5.8 5.8-5.8 5.8 2.6 5.8 5.8"/></clipPath><clipPath id="bf"><path fill="none" d="M36.5 104.4h11.6V116H36.5Z"/></clipPath><clipPath id="bg"><path fill="none" d="M48.1 110.1c0 3.2-2.5 5.8-5.7 5.9-3.2 0-5.8-2.5-5.9-5.7 0-3.2 2.5-5.8 5.7-5.9 3.2 0 5.8 2.5 5.9 5.7"/></clipPath><clipPath id="ea"><path fill="none" d="M36.5 104.4h11.6V116H36.5Z"/></clipPath><clipPath id="bk"><path fill="none" d="M36.5 104.4h11.6V116H36.5Z"/></clipPath><clipPath id="bl"><path fill="none" d="M48.1 110.1c0 3.2-2.5 5.8-5.7 5.9-3.2 0-5.8-2.5-5.9-5.7 0-3.2 2.5-5.8 5.7-5.9 3.2 0 5.8 2.5 5.9 5.7"/></clipPath><clipPath id="ec"><path fill="none" d="M36.5 104.4h11.6V116H36.5Z"/></clipPath><clipPath id="ed"><path fill="none" d="M48.1 110.1c0 3.2-2.5 5.8-5.7 5.9-3.2 0-5.8-2.5-5.9-5.7 0-3.2 2.5-5.8 5.7-5.9 3.2 0 5.8 2.5 5.9 5.7"/></clipPath><clipPath id="bo"><path fill="none" d="M139.3 120.7c0 3.2-2.6 5.8-5.8 5.8s-5.8-2.6-5.8-5.8 2.6-5.8 5.8-5.8 5.8 2.6 5.8 5.8"/></clipPath><clipPath id="eg"><path fill="none" d="M127.7 114.9h11.6v11.6h-11.6z"/></clipPath><clipPath id="bs"><path fill="none" d="M139.3 120.7c0 3.2-2.6 5.8-5.8 5.8s-5.8-2.6-5.8-5.8 2.6-5.8 5.8-5.8 5.8 2.6 5.8 5.8"/></clipPath><clipPath id="ei"><path fill="none" d="M127.7 114.9h11.6v11.6h-11.6z"/></clipPath><clipPath id="ej"><path fill="none" d="M139.3 120.7c0 3.2-2.6 5.8-5.8 5.8s-5.8-2.6-5.8-5.8 2.6-5.8 5.8-5.8 5.8 2.6 5.8 5.8"/></clipPath><clipPath id="bv"><path fill="none" d="M130.8 74.5c0 3.2-2.6 5.8-5.8 5.8s-5.8-2.6-5.8-5.8 2.6-5.8 5.8-5.8 5.8 2.6 5.8 5.8"/></clipPath><clipPath id="em"><path fill="none" d="M119.2 68.7h11.6v11.6h-11.6z"/></clipPath><clipPath id="bz"><path fill="none" d="M130.8 74.5c0 3.2-2.6 5.8-5.8 5.8s-5.8-2.6-5.8-5.8 2.6-5.8 5.8-5.8 5.8 2.6 5.8 5.8"/></clipPath><clipPath id="eo"><path fill="none" d="M119.2 68.7h11.6v11.6h-11.6z"/></clipPath><clipPath id="ep"><path fill="none" d="M130.8 74.5c0 3.2-2.6 5.8-5.8 5.8s-5.8-2.6-5.8-5.8 2.6-5.8 5.8-5.8 5.8 2.6 5.8 5.8"/></clipPath><clipPath id="bC"><path fill="none" d="M178.2 121.9c0 12.4-10.1 22.5-22.5 22.5s-22.5-10.1-22.5-22.5 10.1-22.5 22.5-22.5 22.5 10.1 22.5 22.5"/></clipPath><clipPath id="es"><path fill="none" d="M133.3 99.4h44.9v44.9h-44.9z"/></clipPath><clipPath id="bG"><path fill="none" d="M178.2 121.9c0 12.4-10.1 22.5-22.5 22.5s-22.5-10.1-22.5-22.5 10.1-22.5 22.5-22.5 22.5 10.1 22.5 22.5"/></clipPath><clipPath id="eu"><path fill="none" d="M133.3 99.4h44.9v44.9h-44.9z"/></clipPath><clipPath id="ev"><path fill="none" d="M178.2 121.9c0 12.4-10.1 22.5-22.5 22.5s-22.5-10.1-22.5-22.5 10.1-22.5 22.5-22.5 22.5 10.1 22.5 22.5"/></clipPath><clipPath id="bJ"><path fill="none" d="M161.8 107.6c0 3.2-2.6 5.8-5.8 5.8s-5.8-2.6-5.8-5.8 2.6-5.8 5.8-5.8 5.8 2.6 5.8 5.8"/></clipPath><clipPath id="ey"><path fill="none" d="M150.2 101.8h11.6v11.6h-11.6z"/></clipPath><clipPath id="bN"><path fill="none" d="M161.8 107.6c0 3.2-2.6 5.8-5.8 5.8s-5.8-2.6-5.8-5.8 2.6-5.8 5.8-5.8 5.8 2.6 5.8 5.8"/></clipPath><clipPath id="eA"><path fill="none" d="M150.2 101.8h11.6v11.6h-11.6z"/></clipPath><clipPath id="eB"><path fill="none" d="M161.8 107.6c0 3.2-2.6 5.8-5.8 5.8s-5.8-2.6-5.8-5.8 2.6-5.8 5.8-5.8 5.8 2.6 5.8 5.8"/></clipPath><clipPath id="bQ"><path fill="none" d="M39.5 75.1c0 3.2-2.6 5.8-5.8 5.8s-5.8-2.6-5.8-5.8 2.6-5.8 5.8-5.8 5.8 2.6 5.8 5.8"/></clipPath><clipPath id="eE"><path fill="none" d="M27.9 69.3h11.6v11.6H27.9Z"/></clipPath><clipPath id="bU"><path fill="none" d="M39.5 75.1c0 3.2-2.6 5.8-5.8 5.8s-5.8-2.6-5.8-5.8 2.6-5.8 5.8-5.8 5.8 2.6 5.8 5.8"/></clipPath><clipPath id="eG"><path fill="none" d="M27.9 69.3h11.6v11.6H27.9Z"/></clipPath><clipPath id="eH"><path fill="none" d="M39.5 75.1c0 3.2-2.6 5.8-5.8 5.8s-5.8-2.6-5.8-5.8 2.6-5.8 5.8-5.8 5.8 2.6 5.8 5.8"/></clipPath><clipPath id="bX"><path fill="none" d="M85.3 48.6c0 3.2-2.6 5.8-5.8 5.8s-5.8-2.6-5.8-5.8 2.6-5.8 5.8-5.8 5.8 2.6 5.8 5.8"/></clipPath><clipPath id="eK"><path fill="none" d="M73.7 42.8h11.6v11.6H73.7z"/></clipPath><clipPath id="cb"><path fill="none" d="M85.3 48.6c0 3.2-2.6 5.8-5.8 5.8s-5.8-2.6-5.8-5.8 2.6-5.8 5.8-5.8 5.8 2.6 5.8 5.8"/></clipPath><clipPath id="eM"><path fill="none" d="M73.7 42.8h11.6v11.6H73.7z"/></clipPath><clipPath id="eN"><path fill="none" d="M85.3 48.6c0 3.2-2.6 5.8-5.8 5.8s-5.8-2.6-5.8-5.8 2.6-5.8 5.8-5.8 5.8 2.6 5.8 5.8"/></clipPath><mask id="b" width="220.3" height="32766" x="-9.7" y="-8292" maskUnits="userSpaceOnUse"/><mask id="cl" width="220.3" height="220.3" x="-9.7" y="-13.2" maskUnits="userSpaceOnUse"><path d="M-9.7-13.2h220.3v220.3H-9.7Z"/><g clip-path="url(#a)" mask="url(#b)"><path fill="url(#c)" d="M-9.7-13.2h220.3v220.3H-9.7Z"/></g></mask><mask id="f" width="220.3" height="32766" x="-9.7" y="-8292" maskUnits="userSpaceOnUse"/><mask id="cn" width="220.3" height="220.3" x="-9.7" y="-13.2" maskUnits="userSpaceOnUse"><g filter="url(#d)"><g clip-path="url(#e)" mask="url(#f)"><path fill="url(#c)" d="M-9.7-13.2h220.3v220.3H-9.7Z"/></g></g></mask><mask id="i" width="220.3" height="32766" x="-9.7" y="-8292" maskUnits="userSpaceOnUse"/><mask id="cp" width="220.3" height="220.3" x="-9.7" y="-13.2" maskUnits="userSpaceOnUse"><g filter="url(#g)"><g clip-path="url(#h)" mask="url(#i)"><path fill="url(#c)" d="M-9.7-13.2h220.3v220.3H-9.7Z"/></g></g></mask><mask id="k" width="60.8" height="32766" x="83.7" y="-8292" maskUnits="userSpaceOnUse"/><mask id="ct" width="60.8" height="60.8" x="83.7" y="19.8" maskUnits="userSpaceOnUse"><path d="M83.7 19.8h60.8v60.8H83.7Z"/><g clip-path="url(#j)" mask="url(#k)"><path fill="url(#l)" d="M83.7 19.8h60.8v60.8H83.7Z"/></g></mask><mask id="o" width="60.8" height="32766" x="83.7" y="-8292" maskUnits="userSpaceOnUse"/><mask id="cv" width="60.8" height="60.8" x="83.7" y="19.8" maskUnits="userSpaceOnUse"><g filter="url(#m)"><g clip-path="url(#n)" mask="url(#o)"><path fill="url(#p)" d="M83.7 19.8h60.8v60.8H83.7Z"/></g></g></mask><mask id="s" width="60.8" height="32766" x="103" y="-8292" maskUnits="userSpaceOnUse"/><mask id="cz" width="60.8" height="60.8" x="103" y="64.8" maskUnits="userSpaceOnUse"><path d="M103 64.8h60.8v60.8H103Z"/><g clip-path="url(#r)" mask="url(#s)"><path fill="url(#t)" d="M103 64.8h60.8v60.8H103Z"/></g></mask><mask id="w" width="60.8" height="32766" x="103" y="-8292" maskUnits="userSpaceOnUse"/><mask id="cB" width="60.8" height="60.8" x="103" y="64.8" maskUnits="userSpaceOnUse"><g filter="url(#u)"><g clip-path="url(#v)" mask="url(#w)"><path fill="url(#x)" d="M103 64.8h60.8v60.8H103Z"/></g></g></mask><mask id="z" width="60.8" height="32766" x="120.3" y="-8292" maskUnits="userSpaceOnUse"/><mask id="cF" width="60.8" height="60.8" x="120.3" y="43.6" maskUnits="userSpaceOnUse"><path d="M120.3 43.6h60.8v60.8h-60.8z"/><g clip-path="url(#y)" mask="url(#z)"><path fill="url(#A)" d="M120.3 43.6h60.8v60.8h-60.8z"/></g></mask><mask id="D" width="60.8" height="32766" x="120.3" y="-8292" maskUnits="userSpaceOnUse"/><mask id="cH" width="60.8" height="60.8" x="120.3" y="43.6" maskUnits="userSpaceOnUse"><g filter="url(#B)"><g clip-path="url(#C)" mask="url(#D)"><path fill="url(#E)" d="M120.3 43.6h60.8v60.8h-60.8z"/></g></g></mask><mask id="G" width="60.8" height="32766" x="5.5" y="-8292" maskUnits="userSpaceOnUse"/><mask id="cL" width="60.8" height="60.8" x="5.5" y="65.6" maskUnits="userSpaceOnUse"><path d="M5.5 65.6h60.8v60.8H5.5Z"/><g clip-path="url(#F)" mask="url(#G)"><path fill="url(#H)" d="M5.5 65.6h60.8v60.8H5.5Z"/></g></mask><mask id="K" width="60.8" height="32766" x="5.5" y="-8292" maskUnits="userSpaceOnUse"/><mask id="cN" width="60.8" height="60.8" x="5.5" y="65.6" maskUnits="userSpaceOnUse"><g filter="url(#I)"><g clip-path="url(#J)" mask="url(#K)"><path fill="url(#L)" d="M5.5 65.6h60.8v60.8H5.5Z"/></g></g></mask><mask id="N" width="60.8" height="32766" x="62.3" y="-8292" maskUnits="userSpaceOnUse"/><mask id="cR" width="60.8" height="60.8" x="62.3" y="101.7" maskUnits="userSpaceOnUse"><path d="M62.3 101.7h60.8v60.8H62.3Z"/><g clip-path="url(#M)" mask="url(#N)"><path fill="url(#O)" d="M62.3 101.7h60.8v60.8H62.3Z"/></g></mask><mask id="R" width="60.8" height="32766" x="62.3" y="-8292" maskUnits="userSpaceOnUse"/><mask id="cT" width="60.8" height="60.8" x="62.3" y="101.7" maskUnits="userSpaceOnUse"><g filter="url(#P)"><g clip-path="url(#Q)" mask="url(#R)"><path fill="url(#S)" d="M62.3 101.7h60.8v60.8H62.3Z"/></g></g></mask><mask id="U" width="44.9" height="32766" x="89" y="-8292" maskUnits="userSpaceOnUse"/><mask id="cX" width="44.9" height="44.9" x="89" y="26.1" maskUnits="userSpaceOnUse"><path d="M89 26.1h44.9V71H89Z"/><g clip-path="url(#T)" mask="url(#U)"><path fill="url(#V)" d="M89 26.1h44.9V71H89Z"/></g></mask><mask id="Y" width="44.9" height="32766" x="89" y="-8292" maskUnits="userSpaceOnUse"/><mask id="cZ" width="44.9" height="44.9" x="89" y="26.1" maskUnits="userSpaceOnUse"><g filter="url(#W)"><g clip-path="url(#X)" mask="url(#Y)"><path fill="url(#Z)" d="M89 26.1h44.9V71H89Z"/></g></g></mask><mask id="ab" width="44.9" height="32766" x="128.3" y="-8292" maskUnits="userSpaceOnUse"/><mask id="dd" width="44.9" height="44.9" x="128.3" y="52.1" maskUnits="userSpaceOnUse"><path d="M128.3 52.1h44.9V97h-44.9z"/><g clip-path="url(#aa)" mask="url(#ab)"><path fill="url(#ac)" d="M128.3 52.1h44.9V97h-44.9z"/></g></mask><mask id="af" width="44.9" height="32766" x="128.3" y="-8292" maskUnits="userSpaceOnUse"/><mask id="df" width="44.9" height="44.9" x="128.3" y="52.1" maskUnits="userSpaceOnUse"><g filter="url(#ad)"><g clip-path="url(#ae)" mask="url(#af)"><path fill="url(#ag)" d="M128.3 52.1h44.9V97h-44.9z"/></g></g></mask><mask id="aj" width="53.9" height="32766" x="106.5" y="-8292" maskUnits="userSpaceOnUse"/><mask id="dj" width="53.9" height="53.9" x="106.5" y="67.4" maskUnits="userSpaceOnUse"><path d="M106.5 67.4h53.9v53.9h-53.9z"/><g clip-path="url(#ai)" mask="url(#aj)"><path fill="url(#ak)" d="M106.5 67.4h53.9v53.9h-53.9z"/></g></mask><mask id="an" width="53.9" height="32766" x="106.5" y="-8292" maskUnits="userSpaceOnUse"/><mask id="dl" width="53.9" height="53.9" x="106.5" y="67.4" maskUnits="userSpaceOnUse"><g filter="url(#al)"><g clip-path="url(#am)" mask="url(#an)"><path fill="url(#ao)" d="M106.5 67.4h53.9v53.9h-53.9z"/></g></g></mask><mask id="aq" width="44.9" height="32766" x="71.6" y="-8292" maskUnits="userSpaceOnUse"/><mask id="dp" width="44.9" height="44.9" x="71.6" y="61.6" maskUnits="userSpaceOnUse"><path d="M71.6 61.6h44.9v44.9H71.6Z"/><g clip-path="url(#ap)" mask="url(#aq)"><path fill="url(#ar)" d="M71.6 61.6h44.9v44.9H71.6Z"/></g></mask><mask id="au" width="44.9" height="32766" x="71.6" y="-8292" maskUnits="userSpaceOnUse"/><mask id="dr" width="44.9" height="44.9" x="71.6" y="61.6" maskUnits="userSpaceOnUse"><g filter="url(#as)"><g clip-path="url(#at)" mask="url(#au)"><path fill="url(#av)" d="M71.6 61.6h44.9v44.9H71.6Z"/></g></g></mask><mask id="ax" width="53.9" height="32766" x="9" y="-8292" maskUnits="userSpaceOnUse"/><mask id="dv" width="53.9" height="53.9" x="9" y="78.8" maskUnits="userSpaceOnUse"><path d="M9 78.8h53.9v53.9H9Z"/><g clip-path="url(#aw)" mask="url(#ax)"><path fill="url(#ay)" d="M9 78.8h53.9v53.9H9Z"/></g></mask><mask id="aB" width="53.9" height="32766" x="9" y="-8292" maskUnits="userSpaceOnUse"/><mask id="dx" width="53.9" height="53.9" x="9" y="78.8" maskUnits="userSpaceOnUse"><g filter="url(#az)"><g clip-path="url(#aA)" mask="url(#aB)"><path fill="url(#aC)" d="M9 78.8h53.9v53.9H9Z"/></g></g></mask><mask id="aE" width="60.8" height="32766" x="148.9" y="-8292" maskUnits="userSpaceOnUse"/><mask id="dB" width="60.8" height="60.8" x="148.9" y="65.6" maskUnits="userSpaceOnUse"><path d="M148.9 65.6h60.8v60.8h-60.8z"/><g clip-path="url(#aD)" mask="url(#aE)"><path fill="url(#aF)" d="M148.9 65.6h60.8v60.8h-60.8z"/></g></mask><mask id="aI" width="60.8" height="32766" x="148.9" y="-8292" maskUnits="userSpaceOnUse"/><mask id="dD" width="60.8" height="60.8" x="148.9" y="65.6" maskUnits="userSpaceOnUse"><g filter="url(#aG)"><g clip-path="url(#aH)" mask="url(#aI)"><path fill="url(#aJ)" d="M148.9 65.6h60.8v60.8h-60.8z"/></g></g></mask><mask id="aL" width="53.9" height="32766" x="152.3" y="-8292" maskUnits="userSpaceOnUse"/><mask id="dH" width="53.9" height="53.9" x="152.3" y="78.8" maskUnits="userSpaceOnUse"><path d="M152.3 78.8h53.9v53.9h-53.9z"/><g clip-path="url(#aK)" mask="url(#aL)"><path fill="url(#aM)" d="M152.3 78.8h53.9v53.9h-53.9z"/></g></mask><mask id="aP" width="53.9" height="32766" x="152.3" y="-8292" maskUnits="userSpaceOnUse"/><mask id="dJ" width="53.9" height="53.9" x="152.3" y="78.8" maskUnits="userSpaceOnUse"><g filter="url(#aN)"><g clip-path="url(#aO)" mask="url(#aP)"><path fill="url(#aQ)" d="M152.3 78.8h53.9v53.9h-53.9z"/></g></g></mask><mask id="aS" width="11.6" height="32766" x="52.2" y="-8292" maskUnits="userSpaceOnUse"/><mask id="dN" width="11.6" height="11.6" x="52.2" y="141.7" maskUnits="userSpaceOnUse"><path d="M52.2 141.7h11.6v11.6H52.2z"/><g clip-path="url(#aR)" mask="url(#aS)"><path fill="url(#aT)" d="M52.2 141.7h11.6v11.6H52.2z"/></g></mask><mask id="aW" width="11.6" height="32766" x="52.2" y="-8292" maskUnits="userSpaceOnUse"/><mask id="dP" width="11.6" height="11.6" x="52.2" y="141.7" maskUnits="userSpaceOnUse"><g filter="url(#aU)"><g clip-path="url(#aV)" mask="url(#aW)"><path fill="url(#aX)" d="M52.2 141.7h11.6v11.6H52.2z"/></g></g></mask><mask id="aZ" width="11.6" height="32766" x="52.2" y="-8292" maskUnits="userSpaceOnUse"/><mask id="dT" width="11.6" height="11.6" x="52.2" y="104.4" maskUnits="userSpaceOnUse"><path d="M52.2 104.4h11.6V116H52.2z"/><g clip-path="url(#aY)" mask="url(#aZ)"><path fill="url(#ba)" d="M52.2 104.4h11.6V116H52.2z"/></g></mask><mask id="bd" width="11.6" height="32766" x="52.2" y="-8292" maskUnits="userSpaceOnUse"/><mask id="dV" width="11.6" height="11.6" x="52.2" y="104.4" maskUnits="userSpaceOnUse"><g filter="url(#bb)"><g clip-path="url(#bc)" mask="url(#bd)"><path fill="url(#be)" d="M52.2 104.4h11.6V116H52.2z"/></g></g></mask><mask id="bh" width="11.9" height="32766" x="36.3" y="-8292" maskUnits="userSpaceOnUse"/><mask id="dZ" width="11.9" height="11.9" x="36.3" y="104.2" maskUnits="userSpaceOnUse"><g clip-path="url(#bf)"><path d="M36.4 104.3h11.7V116H36.4Z"/><g clip-path="url(#bg)" mask="url(#bh)"><path fill="url(#bi)" d="M36.4 104.3h11.8v11.8H36.4z" transform="rotate(-.7 40.275 106.655)"/></g></g></mask><mask id="bm" width="11.9" height="32766" x="36.3" y="-8292" maskUnits="userSpaceOnUse"/><mask id="eb" width="11.9" height="11.9" x="36.3" y="104.2" maskUnits="userSpaceOnUse"><g filter="url(#bj)"><g clip-path="url(#bk)"><g clip-path="url(#bl)" mask="url(#bm)"><path fill="url(#bn)" d="M36.4 104.3h11.8v11.8H36.4z" transform="rotate(-.7 40.275 106.655)"/></g></g></g></mask><mask id="bp" width="11.6" height="32766" x="127.7" y="-8292" maskUnits="userSpaceOnUse"/><mask id="ef" width="11.6" height="11.6" x="127.7" y="114.9" maskUnits="userSpaceOnUse"><path d="M127.7 114.9h11.6v11.6h-11.6z"/><g clip-path="url(#bo)" mask="url(#bp)"><path fill="url(#bq)" d="M127.7 114.9h11.6v11.6h-11.6z"/></g></mask><mask id="bt" width="11.6" height="32766" x="127.7" y="-8292" maskUnits="userSpaceOnUse"/><mask id="eh" width="11.6" height="11.6" x="127.7" y="114.9" maskUnits="userSpaceOnUse"><g filter="url(#br)"><g clip-path="url(#bs)" mask="url(#bt)"><path fill="url(#bu)" d="M127.7 114.9h11.6v11.6h-11.6z"/></g></g></mask><mask id="bw" width="11.6" height="32766" x="119.2" y="-8292" maskUnits="userSpaceOnUse"/><mask id="el" width="11.6" height="11.6" x="119.2" y="68.7" maskUnits="userSpaceOnUse"><path d="M119.2 68.7h11.6v11.6h-11.6z"/><g clip-path="url(#bv)" mask="url(#bw)"><path fill="url(#bx)" d="M119.2 68.7h11.6v11.6h-11.6z"/></g></mask><mask id="bA" width="11.6" height="32766" x="119.2" y="-8292" maskUnits="userSpaceOnUse"/><mask id="en" width="11.6" height="11.6" x="119.2" y="68.7" maskUnits="userSpaceOnUse"><g filter="url(#by)"><g clip-path="url(#bz)" mask="url(#bA)"><path fill="url(#bB)" d="M119.2 68.7h11.6v11.6h-11.6z"/></g></g></mask><mask id="bD" width="44.9" height="32766" x="133.3" y="-8292" maskUnits="userSpaceOnUse"/><mask id="er" width="44.9" height="44.9" x="133.3" y="99.4" maskUnits="userSpaceOnUse"><path d="M133.3 99.4h44.9v44.9h-44.9z"/><g clip-path="url(#bC)" mask="url(#bD)"><path fill="url(#bE)" d="M133.3 99.4h44.9v44.9h-44.9z"/></g></mask><mask id="bH" width="44.9" height="32766" x="133.3" y="-8292" maskUnits="userSpaceOnUse"/><mask id="et" width="44.9" height="44.9" x="133.3" y="99.4" maskUnits="userSpaceOnUse"><g filter="url(#bF)"><g clip-path="url(#bG)" mask="url(#bH)"><path fill="url(#bI)" d="M133.3 99.4h44.9v44.9h-44.9z"/></g></g></mask><mask id="bK" width="11.6" height="32766" x="150.2" y="-8292" maskUnits="userSpaceOnUse"/><mask id="ex" width="11.6" height="11.6" x="150.2" y="101.8" maskUnits="userSpaceOnUse"><path d="M150.2 101.8h11.6v11.6h-11.6z"/><g clip-path="url(#bJ)" mask="url(#bK)"><path fill="url(#bL)" d="M150.2 101.8h11.6v11.6h-11.6z"/></g></mask><mask id="bO" width="11.6" height="32766" x="150.2" y="-8292" maskUnits="userSpaceOnUse"/><mask id="ez" width="11.6" height="11.6" x="150.2" y="101.8" maskUnits="userSpaceOnUse"><g filter="url(#bM)"><g clip-path="url(#bN)" mask="url(#bO)"><path fill="url(#bP)" d="M150.2 101.8h11.6v11.6h-11.6z"/></g></g></mask><mask id="bR" width="11.6" height="32766" x="27.9" y="-8292" maskUnits="userSpaceOnUse"/><mask id="eD" width="11.6" height="11.6" x="27.9" y="69.3" maskUnits="userSpaceOnUse"><path d="M27.9 69.3h11.6v11.6H27.9Z"/><g clip-path="url(#bQ)" mask="url(#bR)"><path fill="url(#bS)" d="M27.9 69.3h11.6v11.6H27.9Z"/></g></mask><mask id="bV" width="11.6" height="32766" x="27.9" y="-8292" maskUnits="userSpaceOnUse"/><mask id="eF" width="11.6" height="11.6" x="27.9" y="69.3" maskUnits="userSpaceOnUse"><g filter="url(#bT)"><g clip-path="url(#bU)" mask="url(#bV)"><path fill="url(#bW)" d="M27.9 69.3h11.6v11.6H27.9Z"/></g></g></mask><mask id="bY" width="11.6" height="32766" x="73.7" y="-8292" maskUnits="userSpaceOnUse"/><mask id="eJ" width="11.6" height="11.6" x="73.7" y="42.8" maskUnits="userSpaceOnUse"><path d="M73.7 42.8h11.6v11.6H73.7z"/><g clip-path="url(#bX)" mask="url(#bY)"><path fill="url(#bZ)" d="M73.7 42.8h11.6v11.6H73.7z"/></g></mask><mask id="cc" width="11.6" height="32766" x="73.7" y="-8292" maskUnits="userSpaceOnUse"/><mask id="eL" width="11.6" height="11.6" x="73.7" y="42.8" maskUnits="userSpaceOnUse"><g filter="url(#ca)"><g clip-path="url(#cb)" mask="url(#cc)"><path fill="url(#cd)" d="M73.7 42.8h11.6v11.6H73.7z"/></g></g></mask><radialGradient id="cf" cx="-320" cy="397.10001" r="0.60000002" fx="-320" fy="397.10001" gradientTransform="matrix(120.5 0 0 -120.5 38654.266 47939.889)" gradientUnits="userSpaceOnUse"><stop offset="0" stop-color="#e10600"/><stop offset="1" stop-color="#72160d"/><stop offset="1" stop-color="#72160d"/></radialGradient><radialGradient id="c" cx="-320" cy="397.10001" r="0.60000002" fx="-320" fy="397.10001" gradientTransform="matrix(173.8 0 0 -173.8 55717.5 69109)" gradientUnits="userSpaceOnUse"><stop offset="0" stop-color="#fff"/><stop offset=".1" stop-color="#fff"/><stop offset="1" stop-color="#1d1d1b"/></radialGradient><radialGradient id="q" cx="-320" cy="397.10001" r="0.60000002" fx="-320" fy="397.10001" gradientTransform="matrix(173.8 0 0 -173.8 55717.5 69109)" gradientUnits="userSpaceOnUse"><stop offset="0" stop-color="#fff"/><stop offset=".1" stop-color="#fff"/><stop offset="1" stop-color="#fff"/></radialGradient><radialGradient xlink:href="#c" id="l" cx="-320.20001" cy="396.70001" r="0.60000002" fx="-320.20001" fy="396.70001" gradientTransform="matrix(48 0 0 -48 15476.7 19084.7)"/><radialGradient xlink:href="#c" id="p" cx="-320.20001" cy="396.70001" r="0.60000002" fx="-320.20001" fy="396.70001" gradientTransform="matrix(48 0 0 -48 15476.7 19084.7)"/><radialGradient xlink:href="#q" id="cy" cx="-320.20001" cy="396.70001" r="0.60000002" fx="-320.20001" fy="396.70001" gradientTransform="matrix(48 0 0 -48 15479.166 19087.689)"/><radialGradient xlink:href="#c" id="t" cx="-320.39999" cy="397.20001" r="0.60000002" fx="-320.39999" fy="397.20001" gradientTransform="matrix(48 0 0 -48 15507.2 19155.8)"/><radialGradient xlink:href="#c" id="x" cx="-320.39999" cy="397.20001" r="0.60000002" fx="-320.39999" fy="397.20001" gradientTransform="matrix(48 0 0 -48 15507.2 19155.8)"/><radialGradient xlink:href="#q" id="cE" cx="-320.39999" cy="397.20001" r="0.60000002" fx="-320.39999" fy="397.20001" gradientTransform="matrix(48 0 0 -48 15509.666 19158.789)"/><radialGradient xlink:href="#c" id="A" cx="-320.60001" cy="397" r="0.60000002" fx="-320.60001" fy="397" gradientTransform="matrix(48 0 0 -48 15534.4 19122.3)"/><radialGradient xlink:href="#c" id="E" cx="-320.60001" cy="397" r="0.60000002" fx="-320.60001" fy="397" gradientTransform="matrix(48 0 0 -48 15534.4 19122.3)"/><radialGradient xlink:href="#q" id="cK" cx="-320.60001" cy="397" r="0.60000002" fx="-320.60001" fy="397" gradientTransform="matrix(48 0 0 -48 15536.866 19125.289)"/><radialGradient xlink:href="#c" id="H" cx="-319.20001" cy="397.20001" r="0.60000002" fx="-319.20001" fy="397.20001" gradientTransform="matrix(48 0 0 -48 15353.3 19157.1)"/><radialGradient xlink:href="#c" id="L" cx="-319.20001" cy="397.20001" r="0.60000002" fx="-319.20001" fy="397.20001" gradientTransform="matrix(48 0 0 -48 15353.3 19157.1)"/><radialGradient xlink:href="#q" id="cQ" cx="-319.20001" cy="397.20001" r="0.60000002" fx="-319.20001" fy="397.20001" gradientTransform="matrix(48 0 0 -48 15355.766 19160.089)"/><radialGradient xlink:href="#c" id="O" cx="-319.89999" cy="397.70001" r="0.60000002" fx="-319.89999" fy="397.70001" gradientTransform="matrix(48 0 0 -48 15442.8 19214)"/><radialGradient xlink:href="#c" id="S" cx="-319.89999" cy="397.70001" r="0.60000002" fx="-319.89999" fy="397.70001" gradientTransform="matrix(48 0 0 -48 15442.8 19214)"/><radialGradient xlink:href="#q" id="cW" cx="-319.89999" cy="397.70001" r="0.60000002" fx="-319.89999" fy="397.70001" gradientTransform="matrix(48 0 0 -48 15445.266 19216.989)"/><radialGradient xlink:href="#c" id="V" cx="-320.20001" cy="396.60001" r="0.60000002" fx="-320.20001" fy="396.60001" gradientTransform="matrix(35.4 0 0 -35.4 11456.6 14100)"/><radialGradient xlink:href="#c" id="Z" cx="-320.20001" cy="396.60001" r="0.60000002" fx="-320.20001" fy="396.60001" gradientTransform="matrix(35.4 0 0 -35.4 11456.6 14100)"/><radialGradient id="ah" cx="-320.20001" cy="396.60001" r="0.60000002" fx="-320.20001" fy="396.60001" gradientTransform="matrix(35.4 0 0 -35.4 11456.6 14100)" gradientUnits="userSpaceOnUse"><stop offset="0" stop-color="#fff"/><stop offset=".1" stop-color="#fff"/><stop offset="1" stop-color="#221f20"/></radialGradient><radialGradient xlink:href="#c" id="ac" cx="-320.79999" cy="397" r="0.60000002" fx="-320.79999" fy="397" gradientTransform="matrix(35.4 0 0 -35.4 11518.6 14140.9)"/><radialGradient xlink:href="#c" id="ag" cx="-320.79999" cy="397" r="0.60000002" fx="-320.79999" fy="397" gradientTransform="matrix(35.4 0 0 -35.4 11518.6 14140.9)"/><radialGradient xlink:href="#ah" id="di" cx="-320.79999" cy="397" r="0.60000002" fx="-320.79999" fy="397" gradientTransform="matrix(35.4 0 0 -35.4 11521.066 14143.889)"/><radialGradient xlink:href="#c" id="ak" cx="-320.5" cy="397.29999" r="0.60000002" fx="-320.5" fy="397.29999" gradientTransform="matrix(42.5 0 0 -42.5 13759.1 16985.6)"/><radialGradient xlink:href="#c" id="ao" cx="-320.5" cy="397.29999" r="0.60000002" fx="-320.5" fy="397.29999" gradientTransform="matrix(42.5 0 0 -42.5 13759.1 16985.6)"/><radialGradient xlink:href="#ah" id="do" cx="-320.5" cy="397.29999" r="0.60000002" fx="-320.5" fy="397.29999" gradientTransform="matrix(42.5 0 0 -42.5 13761.566 16988.589)"/><radialGradient xlink:href="#c" id="ar" cx="-319.89999" cy="397.10001" r="0.60000002" fx="-319.89999" fy="397.10001" gradientTransform="matrix(35.4 0 0 -35.4 11429.2 14156.1)"/><radialGradient xlink:href="#c" id="av" cx="-319.89999" cy="397.10001" r="0.60000002" fx="-319.89999" fy="397.10001" gradientTransform="matrix(35.4 0 0 -35.4 11429.2 14156.1)"/><radialGradient xlink:href="#ah" id="du" cx="-319.89999" cy="397.10001" r="0.60000002" fx="-319.89999" fy="397.10001" gradientTransform="matrix(35.4 0 0 -35.4 11431.666 14159.089)"/><radialGradient xlink:href="#c" id="ay" cx="-319.10001" cy="397.39999" r="0.60000002" fx="-319.10001" fy="397.39999" gradientTransform="matrix(42.5 0 0 -42.5 13605.2 17003.6)"/><radialGradient xlink:href="#c" id="aC" cx="-319.10001" cy="397.39999" r="0.60000002" fx="-319.10001" fy="397.39999" gradientTransform="matrix(42.5 0 0 -42.5 13605.2 17003.6)"/><radialGradient xlink:href="#ah" id="dA" cx="-319.10001" cy="397.39999" r="0.60000002" fx="-319.10001" fy="397.39999" gradientTransform="matrix(42.5 0 0 -42.5 13607.666 17006.589)"/><radialGradient xlink:href="#c" id="aF" cx="-321" cy="397.20001" r="0.60000002" fx="-321" fy="397.20001" gradientTransform="matrix(48 0 0 -48 15579.5 19157.1)"/><radialGradient xlink:href="#c" id="aJ" cx="-321" cy="397.20001" r="0.60000002" fx="-321" fy="397.20001" gradientTransform="matrix(48 0 0 -48 15579.5 19157.1)"/><radialGradient xlink:href="#q" id="dG" cx="-321" cy="397.20001" r="0.60000002" fx="-321" fy="397.20001" gradientTransform="matrix(48 0 0 -48 15581.966 19160.089)"/><radialGradient xlink:href="#c" id="aM" cx="-321.10001" cy="397.39999" r="0.60000002" fx="-321.10001" fy="397.39999" gradientTransform="matrix(42.5 0 0 -42.5 13831.4 17003.6)"/><radialGradient xlink:href="#c" id="aQ" cx="-321.10001" cy="397.39999" r="0.60000002" fx="-321.10001" fy="397.39999" gradientTransform="matrix(42.5 0 0 -42.5 13831.4 17003.6)"/><radialGradient xlink:href="#ah" id="dM" cx="-321.10001" cy="397.39999" r="0.60000002" fx="-321.10001" fy="397.39999" gradientTransform="matrix(42.5 0 0 -42.5 13833.866 17006.589)"/><radialGradient xlink:href="#c" id="aT" cx="-317.29999" cy="401.60001" r="0.60000002" fx="-317.29999" fy="401.60001" gradientTransform="matrix(9.2 0 0 -9.2 2962.4 3822.5)"/><radialGradient xlink:href="#c" id="aX" cx="-317.29999" cy="401.60001" r="0.60000002" fx="-317.29999" fy="401.60001" gradientTransform="matrix(9.2 0 0 -9.2 2962.4 3822.5)"/><radialGradient xlink:href="#ah" id="dS" cx="-317.29999" cy="401.60001" r="0.60000002" fx="-317.29999" fy="401.60001" gradientTransform="matrix(9.2 0 0 -9.2 2964.866 3825.489)"/><radialGradient xlink:href="#c" id="ba" cx="-317.29999" cy="399.20001" r="0.60000002" fx="-317.29999" fy="399.20001" gradientTransform="matrix(9.2 0 0 -9.2 2962.4 3763.7)"/><radialGradient xlink:href="#c" id="be" cx="-317.29999" cy="399.20001" r="0.60000002" fx="-317.29999" fy="399.20001" gradientTransform="matrix(9.2 0 0 -9.2 2962.4 3763.7)"/><radialGradient xlink:href="#ah" id="dY" cx="-317.29999" cy="399.20001" r="0.60000002" fx="-317.29999" fy="399.20001" gradientTransform="matrix(9.2 0 0 -9.2 2964.866 3766.689)"/><radialGradient xlink:href="#c" id="bi" cx="-316.29999" cy="399.20001" r="0.60000002" fx="-316.29999" fy="399.20001" gradientTransform="matrix(9.2 0 0 -9.2 2937.3 3763.3)"/><radialGradient xlink:href="#c" id="bn" cx="-316.29999" cy="399.20001" r="0.60000002" fx="-316.29999" fy="399.20001" gradientTransform="matrix(9.2 0 0 -9.2 2937.3 3763.3)"/><radialGradient xlink:href="#ah" id="ee" cx="-316.29999" cy="399.20001" r="0.60000002" fx="-316.29999" fy="399.20001" gradientTransform="matrix(9.2 0 0 -9.2 2939.73 3766.318)"/><radialGradient xlink:href="#c" id="bq" cx="-322.10001" cy="399.89999" r="0.60000002" fx="-322.10001" fy="399.89999" gradientTransform="matrix(9.2 0 0 -9.2 3081.4 3780.2)"/><radialGradient xlink:href="#c" id="bu" cx="-322.10001" cy="399.89999" r="0.60000002" fx="-322.10001" fy="399.89999" gradientTransform="matrix(9.2 0 0 -9.2 3081.4 3780.2)"/><radialGradient xlink:href="#ah" id="ek" cx="-322.10001" cy="399.89999" r="0.60000002" fx="-322.10001" fy="399.89999" gradientTransform="matrix(9.2 0 0 -9.2 3083.866 3783.189)"/><radialGradient xlink:href="#c" id="bx" cx="-321.60001" cy="396.89999" r="0.60000002" fx="-321.60001" fy="396.89999" gradientTransform="matrix(9.2 0 0 -9.2 3068 3707.4)"/><radialGradient xlink:href="#c" id="bB" cx="-321.60001" cy="396.89999" r="0.60000002" fx="-321.60001" fy="396.89999" gradientTransform="matrix(9.2 0 0 -9.2 3068 3707.4)"/><radialGradient xlink:href="#ah" id="eq" cx="-321.60001" cy="396.89999" r="0.60000002" fx="-321.60001" fy="396.89999" gradientTransform="matrix(9.2 0 0 -9.2 3070.466 3710.389)"/><radialGradient xlink:href="#c" id="bE" cx="-320.89999" cy="397.79999" r="0.60000002" fx="-320.89999" fy="397.79999" gradientTransform="matrix(35.4 0 0 -35.4 11526.6 14215.7)"/><radialGradient xlink:href="#c" id="bI" cx="-320.89999" cy="397.79999" r="0.60000002" fx="-320.89999" fy="397.79999" gradientTransform="matrix(35.4 0 0 -35.4 11526.6 14215.7)"/><radialGradient xlink:href="#ah" id="ew" cx="-320.89999" cy="397.79999" r="0.60000002" fx="-320.89999" fy="397.79999" gradientTransform="matrix(35.4 0 0 -35.4 11529.066 14218.689)"/><radialGradient xlink:href="#c" id="bL" cx="-323.5" cy="399" r="0.60000002" fx="-323.5" fy="399" gradientTransform="matrix(9.2 0 0 -9.2 3117 3759.7)"/><radialGradient xlink:href="#c" id="bP" cx="-323.5" cy="399" r="0.60000002" fx="-323.5" fy="399" gradientTransform="matrix(9.2 0 0 -9.2 3117 3759.7)"/><radialGradient xlink:href="#ah" id="eC" cx="-323.5" cy="399" r="0.60000002" fx="-323.5" fy="399" gradientTransform="matrix(9.2 0 0 -9.2 3119.466 3762.689)"/><radialGradient xlink:href="#c" id="bS" cx="-315.79999" cy="397" r="0.60000002" fx="-315.79999" fy="397" gradientTransform="matrix(9.2 0 0 -9.2 2924.1 3708.4)"/><radialGradient xlink:href="#c" id="bW" cx="-315.79999" cy="397" r="0.60000002" fx="-315.79999" fy="397" gradientTransform="matrix(9.2 0 0 -9.2 2924.1 3708.4)"/><radialGradient xlink:href="#ah" id="eI" cx="-315.79999" cy="397" r="0.60000002" fx="-315.79999" fy="397" gradientTransform="matrix(9.2 0 0 -9.2 2926.566 3711.389)"/><radialGradient xlink:href="#c" id="bZ" cx="-318.70001" cy="395.29999" r="0.60000002" fx="-318.70001" fy="395.29999" gradientTransform="matrix(9.2 0 0 -9.2 2996.3 3666.5)"/><radialGradient xlink:href="#c" id="cd" cx="-318.70001" cy="395.29999" r="0.60000002" fx="-318.70001" fy="395.29999" gradientTransform="matrix(9.2 0 0 -9.2 2996.3 3666.5)"/><radialGradient xlink:href="#ah" id="eO" cx="-318.70001" cy="395.29999" r="0.60000002" fx="-318.70001" fy="395.29999" gradientTransform="matrix(9.2 0 0 -9.2 2998.766 3669.489)"/><radialGradient xlink:href="#_무제_그라디언트_36" id="cs" cx="-320" cy="397.10001" r="0.60000002" fx="-320" fy="397.10001" gradientTransform="matrix(173.8 0 0 -173.8 55719.966 69111.989)" gradientUnits="userSpaceOnUse"/><radialGradient xlink:href="#_무제_그라디언트_66" id="dc" cx="-320.20001" cy="396.60001" r="0.60000002" fx="-320.20001" fy="396.60001" gradientTransform="matrix(35.4 0 0 -35.4 11459.066 14102.989)" gradientUnits="userSpaceOnUse"/><filter id="d" width="220.3" height="220.3" x="-9.6999998" y="-13.2" color-interpolation-filters="sRGB" filterUnits="userSpaceOnUse"><feFlood flood-color="#fff" result="bg"/><feBlend in="SourceGraphic" in2="bg"/></filter><filter id="g" width="220.3" height="220.3" x="-9.6999998" y="-13.2" color-interpolation-filters="sRGB" filterUnits="userSpaceOnUse"><feFlood flood-color="#fff" result="bg"/><feBlend in="SourceGraphic" in2="bg"/></filter><filter id="m" width="60.799999" height="60.799999" x="83.699997" y="19.799999" color-interpolation-filters="sRGB" filterUnits="userSpaceOnUse"><feFlood flood-color="#fff" result="bg"/><feBlend in="SourceGraphic" in2="bg"/></filter><filter id="u" width="60.799999" height="60.799999" x="103" y="64.800003" color-interpolation-filters="sRGB" filterUnits="userSpaceOnUse"><feFlood flood-color="#fff" result="bg"/><feBlend in="SourceGraphic" in2="bg"/></filter><filter id="B" width="60.799999" height="60.799999" x="120.3" y="43.599998" color-interpolation-filters="sRGB" filterUnits="userSpaceOnUse"><feFlood flood-color="#fff" result="bg"/><feBlend in="SourceGraphic" in2="bg"/></filter><filter id="I" width="60.799999" height="60.799999" x="5.5" y="65.599998" color-interpolation-filters="sRGB" filterUnits="userSpaceOnUse"><feFlood flood-color="#fff" result="bg"/><feBlend in="SourceGraphic" in2="bg"/></filter><filter id="P" width="60.799999" height="60.799999" x="62.299999" y="101.7" color-interpolation-filters="sRGB" filterUnits="userSpaceOnUse"><feFlood flood-color="#fff" result="bg"/><feBlend in="SourceGraphic" in2="bg"/></filter><filter id="W" width="44.900002" height="44.900002" x="89" y="26.1" color-interpolation-filters="sRGB" filterUnits="userSpaceOnUse"><feFlood flood-color="#fff" result="bg"/><feBlend in="SourceGraphic" in2="bg"/></filter><filter id="ad" width="44.900002" height="44.900002" x="128.3" y="52.099998" color-interpolation-filters="sRGB" filterUnits="userSpaceOnUse"><feFlood flood-color="#fff" result="bg"/><feBlend in="SourceGraphic" in2="bg"/></filter><filter id="al" width="53.900002" height="53.900002" x="106.5" y="67.400002" color-interpolation-filters="sRGB" filterUnits="userSpaceOnUse"><feFlood flood-color="#fff" result="bg"/><feBlend in="SourceGraphic" in2="bg"/></filter><filter id="as" width="44.900002" height="44.900002" x="71.599998" y="61.599998" color-interpolation-filters="sRGB" filterUnits="userSpaceOnUse"><feFlood flood-color="#fff" result="bg"/><feBlend in="SourceGraphic" in2="bg"/></filter><filter id="az" width="53.900002" height="53.900002" x="9" y="78.800003" color-interpolation-filters="sRGB" filterUnits="userSpaceOnUse"><feFlood flood-color="#fff" result="bg"/><feBlend in="SourceGraphic" in2="bg"/></filter><filter id="aG" width="60.799999" height="60.799999" x="148.89999" y="65.599998" color-interpolation-filters="sRGB" filterUnits="userSpaceOnUse"><feFlood flood-color="#fff" result="bg"/><feBlend in="SourceGraphic" in2="bg"/></filter><filter id="aN" width="53.900002" height="53.900002" x="152.3" y="78.800003" color-interpolation-filters="sRGB" filterUnits="userSpaceOnUse"><feFlood flood-color="#fff" result="bg"/><feBlend in="SourceGraphic" in2="bg"/></filter><filter id="aU" width="11.6" height="11.6" x="52.200001" y="141.7" color-interpolation-filters="sRGB" filterUnits="userSpaceOnUse"><feFlood flood-color="#fff" result="bg"/><feBlend in="SourceGraphic" in2="bg"/></filter><filter id="bb" width="11.6" height="11.6" x="52.200001" y="104.4" color-interpolation-filters="sRGB" filterUnits="userSpaceOnUse"><feFlood flood-color="#fff" result="bg"/><feBlend in="SourceGraphic" in2="bg"/></filter><filter id="bj" width="11.9" height="11.9" x="36.299999" y="104.2" color-interpolation-filters="sRGB" filterUnits="userSpaceOnUse"><feFlood flood-color="#fff" result="bg"/><feBlend in="SourceGraphic" in2="bg"/></filter><filter id="br" width="11.6" height="11.6" x="127.7" y="114.9" color-interpolation-filters="sRGB" filterUnits="userSpaceOnUse"><feFlood flood-color="#fff" result="bg"/><feBlend in="SourceGraphic" in2="bg"/></filter><filter id="by" width="11.6" height="11.6" x="119.2" y="68.699997" color-interpolation-filters="sRGB" filterUnits="userSpaceOnUse"><feFlood flood-color="#fff" result="bg"/><feBlend in="SourceGraphic" in2="bg"/></filter><filter id="bF" width="44.900002" height="44.900002" x="133.3" y="99.400002" color-interpolation-filters="sRGB" filterUnits="userSpaceOnUse"><feFlood flood-color="#fff" result="bg"/><feBlend in="SourceGraphic" in2="bg"/></filter><filter id="bM" width="11.6" height="11.6" x="150.2" y="101.8" color-interpolation-filters="sRGB" filterUnits="userSpaceOnUse"><feFlood flood-color="#fff" result="bg"/><feBlend in="SourceGraphic" in2="bg"/></filter><filter id="bT" width="11.6" height="11.6" x="27.9" y="69.300003" color-interpolation-filters="sRGB" filterUnits="userSpaceOnUse"><feFlood flood-color="#fff" result="bg"/><feBlend in="SourceGraphic" in2="bg"/></filter><filter id="ca" width="11.6" height="11.6" x="73.699997" y="42.799999" color-interpolation-filters="sRGB" filterUnits="userSpaceOnUse"><feFlood flood-color="#fff" result="bg"/><feBlend in="SourceGraphic" in2="bg"/></filter></defs><g clip-path="url(#ce)" transform="matrix(3.217 0 0 3.39036 -14.758 -69.841)"><path fill="url(#cf)" d="M24.1 20.6h152.7v152.7H24.1Z" style="fill:url(#cf)"/></g><g clip-path="url(#cg)" transform="matrix(3.217 0 0 3.39036 -14.758 -69.841)"><g clip-path="url(#ch)" opacity="0.2"><path fill="#fff" d="M144.1 124.2c-14.3 7.3-30.6 12.3-48.4 14.8l-2.7.4-.2-2.7c-.9-12.8 1.1-26 6.1-39.3l.5-1.3 1.3-.3c17-4.3 32.8-10.8 47-19.3 7-4.2 13.8-9.1 20.2-14.3l.5-.4c-.7-1.4-1.5-2.8-2.3-4.1-6.5 5.5-13.5 10.5-20.7 14.9h-.1l-1.9 1.2L142 72c-10.4-13.4-22.9-24.4-37.3-32.9-8.5-5-18-9.3-28-12.6l-3.2-1c-2.3.9-4.5 1.8-6.6 2.9 12.9 3.5 24.9 8.5 35.5 14.7 13.4 7.9 25.2 18.2 35 30.5l1.9 2.4-2.7 1.4c-11.6 6-24.2 10.7-37.5 14l-1.3.3-1-.9C84.3 79.3 70.7 70.1 57.6 64.2c-7.3-3.3-14.4-5.6-21.1-6.8l-1-.2c-.9 1.4-1.7 2.8-2.4 4.3 7.1 1 14.7 3.3 22.7 6.9 1.1.5 2.3 1.1 3.7 1.7l2.5 1.2-1.5 2.4c-7.5 12.2-11.9 28-12.9 45.7-.6 10.2.1 21 1.9 31.2l.6 3.3c1.9 1.7 3.8 3.2 5.8 4.7-3.1-12.1-4.5-25.8-3.8-38.9.9-17.2 5.2-32.4 12.5-44l1.3-2.1 2.1 1.3c8.8 5.2 17.4 11.7 25.7 19.3l1.2 1.1-.6 1.6c-6.1 17-7.7 34.4-4.5 50.3 1.7 8.8 4.9 17.1 9.3 24.6l.8 1.3h.7c1.6 0 3.1 0 4.7-.1-5.4-8-9.1-16.9-11-26.5l-.5-2.6 2.7-.4c18.4-2.6 35.2-7.7 49.9-15.3 10-5.1 19.3-11.4 27.6-18.8l2.3-2c.3-2.3.6-4.7.7-7.1-9.6 9.6-20.6 17.6-32.6 23.8"/></g><g fill="#fff" clip-path="url(#ci)" opacity="0.7"><path d="M156.6 148.5c-.2.2-.3.3-.4.5-.4-1-.7-2-.7-3.1v-41.7c0-3.9-3.1-7-7-7h-78c-4.2 0-7.6-3.4-7.6-7.6V60.2c0-3.9-3.1-7-7-7h-4.6c-4.1 0-7.5-3.3-7.6-7.5.2-.2.4-.4.6-.7v.5c0 3.9 3.1 7 7 7h4.6c4.2 0 7.6 3.4 7.6 7.6v29.4c0 3.9 3.1 7 7 7h78c4.2 0 7.6 3.4 7.6 7.6v41.7c0 .9.2 1.8.5 2.6"/><path d="M107 74.7v.9H27.1c0-.3.2-.6.3-.9z"/><path d="M81.5 129.8v19.5h-.3v-19.5c0-2.2-1.8-4-4-4H45.7c-2.4 0-4.3-1.9-4.3-4.3v-64c0-2.2-1.8-3.9-3.9-4 0-.1.1-.2.2-.3 2.2.1 4 2 4 4.2v64.2c0 2.2 1.8 4 4 4h31.5c2.3 0 4.3 1.9 4.3 4.3"/><path d="M133.9 57.4v82.9c0 5.2-4.2 9.3-9.3 9.3H83.2c-4.7 0-8.4 3.8-8.4 8.4v10.8l-.9-.3v-10.4c0-4.5 3.1-8.2 7.3-9.1h.3c.6-.1 1.1-.2 1.7-.2h41.4c4.7 0 8.4-3.8 8.4-8.4v-83c0-4.4-3.4-8.1-7.8-8.4H78.5c-5.2 0-9.4-4.2-9.4-9.3V27.3c.3-.1.6-.3.9-.4v12.8c0 4.7 3.8 8.4 8.4 8.4h46.7c4.8.3 8.7 4.4 8.7 9.3"/><path d="M138.8 142.6v20.3c-.2.1-.4.2-.6.4v-20.6c0-3-1.7-5.6-4.3-6.9-.3-.2-.6-.3-.9-.4-.8-.3-1.6-.4-2.5-.4H37.9c-1.2 0-2.3.3-3.3.7-.1-.2-.2-.3-.3-.5 1.1-.5 2.3-.8 3.6-.8h92.6c.9 0 1.7.1 2.5.4.3.1.6.2.9.4 2.9 1.3 4.9 4.2 4.9 7.5M175.7 84.4H158c-4 0-7.3-3.3-7.3-7.3v-7.9c0-3.7-3-6.7-6.7-6.7H62.9v-.6H144c4 0 7.3 3.3 7.3 7.3v7.9c0 3.7 3 6.7 6.7 6.7h17.6c0 .2 0 .4.1.6"/><path d="M125.2 24.7v65.8c0 2.3-.6 4.4-1.8 6.1-.1.2-.3.4-.4.6-2.1 2.9-5.5 4.8-9.4 4.8H69.2c-6 0-10.9 4.9-10.9 11v47.7c-.2-.1-.4-.3-.6-.4V113c0-6.4 5.2-11.6 11.6-11.6h44.4c3.5 0 6.6-1.6 8.6-4.2.2-.2.3-.4.4-.6 1.2-1.7 1.9-3.9 1.9-6.1v-66c.2 0 .4.1.6.2"/><path d="M107 20.8v75.9h-.6V20.8zM173 120.5c0 .1 0 .2-.1.3h-68.3c-3.5 0-6.4-2.9-6.4-6.4V108l.3.3v6.1c0 3.4 2.7 6.1 6.1 6.1z"/></g><g fill="#fff" clip-path="url(#cj)" opacity="0.7"><path d="M135.5 120.7c0 1.1-.9 2.1-2.1 2.1s-2.1-.9-2.1-2.1.9-2.1 2.1-2.1 2.1.9 2.1 2.1M60.1 147.5c0 1.1-.9 2.1-2.1 2.1s-2.1-.9-2.1-2.1.9-2.1 2.1-2.1 2.1.9 2.1 2.1M65.4 62.2c0 1.1-.9 2.1-2.1 2.1s-2.1-.9-2.1-2.1.9-2.1 2.1-2.1 2.1.9 2.1 2.1M127 74.5c0 1.1-.9 2.1-2.1 2.1s-2.1-.9-2.1-2.1.9-2.1 2.1-2.1 2.1.9 2.1 2.1M81.6 48.6c0 1.1-.9 2.1-2.1 2.1s-2.1-.9-2.1-2.1.9-2.1 2.1-2.1 2.1.9 2.1 2.1M135.5 62.2c0 1.1-.9 2.1-2.1 2.1s-2.1-.9-2.1-2.1.9-2.1 2.1-2.1 2.1.9 2.1 2.1M133.5 140.4c-2.6 0-4.7-2.1-4.7-4.7s2.1-4.7 4.7-4.7 4.7 2.1 4.7 4.7-2.1 4.7-4.7 4.7m0-8.8c-2.2 0-4.1 1.8-4.1 4.1s1.8 4.1 4.1 4.1 4.1-1.8 4.1-4.1-1.8-4.1-4.1-4.1M106.7 65.7c-1.9 0-3.5-1.6-3.5-3.5s1.6-3.5 3.5-3.5 3.5 1.6 3.5 3.5-1.6 3.5-3.5 3.5m0-6.6c-1.7 0-3 1.4-3 3s1.4 3 3 3 3-1.4 3-3-1.4-3-3-3"/><path d="M106.7 64.1c-1.1 0-2-.9-2-2s.9-2 2-2 2 .9 2 2-.9 2-2 2m0-3.6c-.9 0-1.7.8-1.7 1.7s.8 1.7 1.7 1.7 1.7-.8 1.7-1.7-.8-1.7-1.7-1.7M155.8 139.9c-1.1 0-2-.9-2-2s.9-2 2-2 2 .9 2 2-.9 2-2 2m0-3.6c-.9 0-1.7.8-1.7 1.7s.8 1.7 1.7 1.7 1.7-.8 1.7-1.7-.8-1.7-1.7-1.7M96 77.1c-1.1 0-2-.9-2-2s.9-2 2-2 2 .9 2 2-.9 2-2 2m0-3.6c-.9 0-1.7.8-1.7 1.7s.8 1.7 1.7 1.7 1.7-.8 1.7-1.7-.8-1.7-1.7-1.7M42.5 136.7c-1.1 0-2-.9-2-2s.9-2 2-2 2 .9 2 2-.9 2-2 2m0-3.7c-.9 0-1.7.8-1.7 1.7s.8 1.7 1.7 1.7 1.7-.8 1.7-1.7-.8-1.7-1.7-1.7M35.8 75.1c0 1.1-.9 2.1-2.1 2.1s-2.1-.9-2.1-2.1.9-2.1 2.1-2.1 2.1.9 2.1 2.1"/></g><g clip-path="url(#ck)" opacity="0.7"><g clip-path="url(#cm)" mask="url(#cl)"><g clip-path="url(#co)" mask="url(#cn)"><g clip-path="url(#cq)" mask="url(#cp)"><g clip-path="url(#cr)"><path fill="url(#q)" d="M-9.7-13.2h220.3v220.3H-9.7Z" style="fill:url(#cs)"/></g></g></g></g><g clip-path="url(#cu)" mask="url(#ct)"><g clip-path="url(#cw)" mask="url(#cv)"><g clip-path="url(#cx)"><path fill="url(#cy)" d="M83.7 19.8h60.8v60.8H83.7Z" style="fill:url(#cy)"/></g></g></g><g clip-path="url(#cA)" mask="url(#cz)"><g clip-path="url(#cC)" mask="url(#cB)"><g clip-path="url(#cD)"><path fill="url(#cE)" d="M103 64.8h60.8v60.8H103Z" style="fill:url(#cE)"/></g></g></g><g clip-path="url(#cG)" mask="url(#cF)"><g clip-path="url(#cI)" mask="url(#cH)"><g clip-path="url(#cJ)"><path fill="url(#cK)" d="M120.3 43.6h60.8v60.8h-60.8z" style="fill:url(#cK)"/></g></g></g><g clip-path="url(#cM)" mask="url(#cL)"><g clip-path="url(#cO)" mask="url(#cN)"><g clip-path="url(#cP)"><path fill="url(#cQ)" d="M5.5 65.6h60.8v60.8H5.5Z" style="fill:url(#cQ)"/></g></g></g><g clip-path="url(#cS)" mask="url(#cR)"><g clip-path="url(#cU)" mask="url(#cT)"><g clip-path="url(#cV)"><path fill="url(#cW)" d="M62.3 101.7h60.8v60.8H62.3Z" style="fill:url(#cW)"/></g></g></g><g clip-path="url(#cY)" mask="url(#cX)"><g clip-path="url(#da)" mask="url(#cZ)"><g clip-path="url(#db)"><path fill="url(#ah)" d="M89 26.1h44.9V71H89Z" style="fill:url(#dc)"/></g></g></g><g clip-path="url(#de)" mask="url(#dd)"><g clip-path="url(#dg)" mask="url(#df)"><g clip-path="url(#dh)"><path fill="url(#di)" d="M128.3 52.1h44.9V97h-44.9z" style="fill:url(#di)"/></g></g></g><g clip-path="url(#dk)" mask="url(#dj)"><g clip-path="url(#dm)" mask="url(#dl)"><g clip-path="url(#dn)"><path fill="url(#do)" d="M106.5 67.4h53.9v53.9h-53.9z" style="fill:url(#do)"/></g></g></g><g clip-path="url(#dq)" mask="url(#dp)"><g clip-path="url(#ds)" mask="url(#dr)"><g clip-path="url(#dt)"><path fill="url(#du)" d="M71.6 61.6h44.9v44.9H71.6Z" style="fill:url(#du)"/></g></g></g><g clip-path="url(#dw)" mask="url(#dv)"><g clip-path="url(#dy)" mask="url(#dx)"><g clip-path="url(#dz)"><path fill="url(#dA)" d="M9 78.8h53.9v53.9H9Z" style="fill:url(#dA)"/></g></g></g><g clip-path="url(#dC)" mask="url(#dB)"><g clip-path="url(#dE)" mask="url(#dD)"><g clip-path="url(#dF)"><path fill="url(#dG)" d="M148.9 65.6h60.8v60.8h-60.8z" style="fill:url(#dG)"/></g></g></g><g clip-path="url(#dI)" mask="url(#dH)"><g clip-path="url(#dK)" mask="url(#dJ)"><g clip-path="url(#dL)"><path fill="url(#dM)" d="M152.3 78.8h53.9v53.9h-53.9z" style="fill:url(#dM)"/></g></g></g><g clip-path="url(#dO)" mask="url(#dN)"><g clip-path="url(#dQ)" mask="url(#dP)"><g clip-path="url(#dR)"><path fill="url(#dS)" d="M52.2 141.7h11.6v11.6H52.2z" style="fill:url(#dS)"/></g></g></g><g clip-path="url(#dU)" mask="url(#dT)"><g clip-path="url(#dW)" mask="url(#dV)"><g clip-path="url(#dX)"><path fill="url(#dY)" d="M52.2 104.4h11.6V116H52.2z" style="fill:url(#dY)"/></g></g></g><g clip-path="url(#ea)" mask="url(#dZ)"><g clip-path="url(#ec)" mask="url(#eb)"><g clip-path="url(#ed)"><path fill="url(#ee)" d="M36.4 104.3h11.8v11.8H36.4z" style="fill:url(#ee)" transform="rotate(-.7 40.275 106.655)"/></g></g></g><g clip-path="url(#eg)" mask="url(#ef)"><g clip-path="url(#ei)" mask="url(#eh)"><g clip-path="url(#ej)"><path fill="url(#ek)" d="M127.7 114.9h11.6v11.6h-11.6z" style="fill:url(#ek)"/></g></g></g><g clip-path="url(#em)" mask="url(#el)"><g clip-path="url(#eo)" mask="url(#en)"><g clip-path="url(#ep)"><path fill="url(#eq)" d="M119.2 68.7h11.6v11.6h-11.6z" style="fill:url(#eq)"/></g></g></g><g clip-path="url(#es)" mask="url(#er)"><g clip-path="url(#eu)" mask="url(#et)"><g clip-path="url(#ev)"><path fill="url(#ew)" d="M133.3 99.4h44.9v44.9h-44.9z" style="fill:url(#ew)"/></g></g></g><g clip-path="url(#ey)" mask="url(#ex)"><g clip-path="url(#eA)" mask="url(#ez)"><g clip-path="url(#eB)"><path fill="url(#eC)" d="M150.2 101.8h11.6v11.6h-11.6z" style="fill:url(#eC)"/></g></g></g><g clip-path="url(#eE)" mask="url(#eD)"><g clip-path="url(#eG)" mask="url(#eF)"><g clip-path="url(#eH)"><path fill="url(#eI)" d="M27.9 69.3h11.6v11.6H27.9Z" style="fill:url(#eI)"/></g></g></g><g clip-path="url(#eK)" mask="url(#eJ)"><g clip-path="url(#eM)" mask="url(#eL)"><g clip-path="url(#eN)"><path fill="url(#eO)" d="M73.7 42.8h11.6v11.6H73.7z" style="fill:url(#eO)"/></g></g></g></g></g><g fill="#9c0d17"><path d="M116.174 274.958h-.643v-32.547h.321c6.113 0 10.295-4.747 10.295-10.85v-11.527c0-6.441-4.504-10.849-10.295-10.849H80.465c-6.112 0-10.294 4.747-10.294 10.85v11.526c0 6.442 4.504 10.85 10.294 10.85v22.715l-17.372-48.143c-.965-2.373-2.573-4.408-4.503-5.764s-4.183-2.034-6.113-2.034H38.322c-2.251 0-4.503.678-6.112 2.034-2.252 1.356-3.539 3.39-4.504 6.103L.684 295.639c-1.609 4.747 0 7.798.965 9.493s3.538 4.069 8.042 4.069h16.085c2.252 0 4.504-.678 6.112-2.035 2.252-1.356 3.54-3.39 4.504-5.763l3.86-10.51h12.225l2.896 10.51c.965 2.373 2.573 4.407 4.503 6.102 1.93 1.357 4.182 2.035 6.113 2.035h49.863c6.113 0 10.295-4.747 10.295-10.85v-11.866c0-6.441-4.504-10.849-10.295-10.849zM609.019 251.565c-.322-.34-.644-1.018-1.287-1.357 3.86-1.695 6.112-5.763 5.79-10.51v-2.0340000000000003c-.321-5.424-1.608-10.51-3.86-14.24-2.252-4.068-5.147-7.12-9.008-9.492-3.538-2.035-7.399-3.73-11.902-4.408-3.86-.678-8.365-1.017-13.19-1.017-4.826 0-9.33.34-13.512 1.356-4.503 1.017-8.685 2.712-11.902 5.086s-6.113 5.763-7.721 9.832c-1.609-3.052-3.217-5.425-5.79-7.459q-9.17-8.137-24.128-8.137h-31.527c-2.895 0-5.469 1.017-7.4 3.051-1.93-2.034-4.503-3.05-7.398-3.05h-46.325c-6.112 0-10.294 4.746-10.294 10.848v2.034c-5.791-8.475-15.442-12.883-28.31-12.883H350.05c-6.112 0-10.294 4.747-10.294 10.85v2.033c-5.791-8.475-15.442-12.883-28.31-12.883H280.24c-2.895 0-5.469 1.017-7.4 3.051-1.93-2.034-4.503-3.05-7.398-3.05h-46.325c-6.112 0-10.294 4.746-10.294 10.848v2.034c-5.791-8.475-15.442-12.883-28.31-12.883h-31.205c-6.112 0-10.294 4.747-10.294 10.85v77.3c0 6.441 4.503 10.849 10.294 10.849h15.12c6.112 0 10.294-4.747 10.294-10.85v-16.273l9.008-1.017c4.504-.678 8.686-1.696 12.225-3.052 4.182-1.695 7.72-4.068 10.294-7.12.643-.678 1.608-1.695 2.252-2.712v30.513c0 6.442 4.504 10.85 10.294 10.85h46.647c2.895 0 5.79-1.357 7.399-3.052 1.93 1.695 4.182 3.052 7.399 3.052h15.12c6.112 0 10.294-4.747 10.294-10.85V281.4l9.008-1.017c4.504-.678 8.686-1.696 12.225-3.052 4.182-1.695 7.72-4.068 10.294-7.12.643-.678 1.608-1.695 2.252-2.712v30.174c0 6.442 4.504 10.85 10.294 10.85h15.12c6.112 0 10.295-4.747 10.295-10.85V281.4l9.007-1.017c4.504-.678 8.686-1.696 12.225-3.052 4.182-1.695 7.72-4.068 10.294-7.12.644-.678 1.609-1.695 2.252-2.712v30.513c0 6.442 4.504 10.85 10.295 10.85h46.646c2.895 0 5.79-1.357 7.4-3.052 1.93 1.695 4.181 3.052 7.398 3.052h15.12c6.112 0 10.295-4.747 10.295-10.85v-17.63h.321l5.79 20.004c.644 2.373 2.253 4.746 4.183 6.102 1.93 1.357 4.182 2.374 6.434 2.374h14.155c3.217 0 6.112-1.357 7.72-4.069a9.52 9.52 0 0 0 1.93-5.763c1.288 1.356 2.574 2.712 4.183 3.729 3.217 2.373 7.399 4.068 11.903 5.086 4.182.678 9.007 1.356 14.476 1.356s9.973-.34 14.155-1.356a30.96 30.96 0 0 0 12.546-5.764c3.86-2.712 6.756-6.78 8.686-11.527q2.895-6.611 2.896-16.274c0-9.493-2.252-17.29-6.756-22.715z"/></g><g fill="#fff"><path d="M116.174 283.434H99.767l8.043-5.086v-44.413h8.364c1.608 0 2.574-1.017 2.574-2.713v-11.527c0-1.695-.966-2.712-2.574-2.712H80.787c-1.609 0-2.574 1.017-2.574 2.712v11.527c0 1.696.965 2.713 2.574 2.713h8.042v49.499h-9.65l-21.876-63.4c0-.678-.644-1.356-1.287-1.695s-1.287-.678-1.93-.678h-15.12c-.644 0-1.287 0-1.93.678-.644.34-.965 1.017-1.287 1.695L8.726 298.012c-.643 1.696 0 2.374 1.609 2.374H26.42c.643 0 1.286 0 1.93-.678.643-.34.965-1.017 1.287-1.696l5.147-15.256h23.484l5.147 15.256c0 .679.643 1.357 1.287 1.696s1.287.678 1.93.678h49.864c1.608 0 2.573-1.017 2.573-2.713v-11.866c0-1.695-.965-2.712-2.573-2.712zm-82.034-17.63 7.721-5.085 4.182-13.9 5.79 18.646H34.14zM180.514 217.661h-31.205c-1.608 0-2.574 1.017-2.574 2.712v77.3c0 1.696.966 2.713 2.574 2.713h15.12c1.608 0 2.574-1.017 2.574-2.713v-23.732l16.085-2.034c3.86-.678 7.399-1.356 10.616-2.713 2.895-1.356 5.469-3.05 7.399-5.085 1.93-2.034 3.538-4.747 4.504-8.137.965-3.051 1.608-7.12 1.608-11.527 0-17.97-8.686-26.784-26.38-26.784zm6.112 31.191c0 1.017-.643 2.035-.965 3.052-.643.678-1.287 1.356-2.252 1.695s-2.252.678-3.538 1.017l-20.59 2.712 7.722-5.763v-16.613h12.224c3.217 0 5.147 1.017 6.112 2.712.966 1.695 1.609 4.069 1.609 7.12v4.068zM265.443 282.756H236.49v-15.257l27.344-2.712c1.609 0 2.574-1.017 2.574-2.712v-12.206c0-1.695-.965-2.373-2.574-2.373-2.252 0-4.825.34-8.042.678-3.217.34-6.434.678-9.973 1.017-3.217.34-6.756.678-9.65 1.017-3.218 0-5.792.679-7.722.679l8.043-6.442v-9.493h28.953c1.608 0 2.573-1.017 2.573-2.712v-12.206c0-1.695-.965-2.712-2.573-2.712h-46.325c-1.609 0-2.574 1.017-2.574 2.712v77.64c0 1.695.965 2.712 2.574 2.712h46.647c1.608 0 2.573-1.017 2.573-2.713V285.13c0-1.695-.965-2.712-2.573-2.712zM311.446 217.661H280.24c-1.608 0-2.574 1.017-2.574 2.712v77.3c0 1.696.966 2.713 2.574 2.713h15.12c1.608 0 2.574-1.017 2.574-2.713v-23.732l16.085-2.034c3.86-.678 7.399-1.356 10.616-2.713 2.895-1.356 5.469-3.05 7.399-5.085 1.93-2.034 3.538-4.747 4.504-8.137.965-3.051 1.608-7.12 1.608-11.527 0-17.97-8.686-26.784-26.38-26.784zm6.112 31.191c0 1.017-.643 2.035-.965 3.052-.643.678-1.287 1.356-2.252 1.695s-2.252.678-3.538 1.017l-20.59 2.712 7.722-5.763v-16.613h12.224c3.217 0 5.147 1.017 6.112 2.712.966 1.695 1.609 4.069 1.609 7.12v4.068zM381.255 217.661H350.05c-1.609 0-2.574 1.017-2.574 2.712v77.3c0 1.696.965 2.713 2.574 2.713h15.12c1.608 0 2.573-1.017 2.573-2.713v-23.732l16.085-2.034c3.86-.678 7.4-1.356 10.617-2.713 2.895-1.356 5.469-3.05 7.399-5.085 1.93-2.034 3.538-4.747 4.504-8.137.965-3.051 1.608-7.12 1.608-11.527 0-17.97-8.686-26.784-26.38-26.784zm6.112 31.191c0 1.017-.643 2.035-.965 3.052-.643.678-1.287 1.356-2.252 1.695s-2.252.678-3.539 1.017l-20.588 2.712 7.72-5.763v-16.613h12.225c3.217 0 5.147 1.017 6.112 2.712s1.609 4.069 1.609 7.12v4.068zM466.184 282.756H437.23v-15.257l27.344-2.712c1.609 0 2.574-1.017 2.574-2.712v-12.206c0-1.695-.965-2.373-2.574-2.373-2.252 0-4.825.34-8.042.678-3.217.34-6.434.678-9.973 1.017-3.217.34-6.756.678-9.651 1.017-3.217 0-5.79.679-7.72.679l8.042-6.442v-9.493h28.953c1.608 0 2.573-1.017 2.573-2.712v-12.206c0-1.695-.965-2.712-2.573-2.712h-46.325c-1.609 0-2.574 1.017-2.574 2.712v77.64c0 1.695.965 2.712 2.574 2.712h46.646c1.609 0 2.574-1.017 2.574-2.713V285.13c0-1.695-.965-2.712-2.574-2.712zM531.489 271.907l-.965-4.069c-.322-1.356-.644-2.712-.965-3.73 1.608-1.355 3.217-2.711 4.182-4.407q1.93-2.542 2.895-5.085c.644-1.695 1.287-3.73 1.609-5.425.321-2.034.643-3.73.643-5.424 0-8.815-2.252-15.596-6.756-19.664S521.194 218 513.152 218h-31.527c-1.608 0-2.573 1.017-2.573 2.712v77.3c0 1.696.965 2.713 2.573 2.713h15.12c1.609 0 2.574-1.017 2.574-2.713v-24.75l14.155-2.033 7.72 26.783c0 .679.644 1.357 1.287 1.696.644.339 1.287.678 1.93.678h14.155c.644 0 1.287 0 1.609-.678.322-.34.322-1.017 0-1.696l-7.721-25.766zm-14.477-21.36c-.965 1.357-3.217 2.374-6.112 2.713l-20.91 2.712 8.364-6.78v-14.58H510.9q3.861 0 5.79 2.035c1.287 1.356 1.61 3.39 1.61 6.442s-.644 5.763-1.61 7.12zM603.228 256.99c-3.217-4.07-8.686-6.443-16.407-7.46l-15.12-2.373c-1.608 0-2.895-1.017-3.538-2.373-.644-1.356-.965-2.712-.965-4.747s.965-4.068 2.573-5.085 3.86-1.356 6.756-1.356q4.343 0 6.756 2.034c1.608 1.356 2.252 3.051 2.895 5.085v1.696c.643 1.695 1.608 2.373 3.217 2.034l14.798-2.034c1.609 0 2.252-1.017 2.252-2.713v-1.6949999999999998c-.322-4.407-1.287-7.798-2.895-10.51s-3.539-5.086-6.113-6.442c-2.573-1.695-5.79-2.712-9.329-3.39s-7.399-1.017-11.903-1.017-8.364.339-11.903 1.017-6.434 2.034-9.007 3.73c-2.574 1.695-4.504 4.407-5.79 7.458-1.288 3.052-1.931 7.12-1.931 11.866 0 7.12 1.608 12.545 4.825 16.952s8.686 6.78 15.764 7.798l14.155 1.695c1.286 0 2.251.34 3.217 1.017.643.678 1.286 1.017 1.93 2.035.321.678.643 1.695.965 2.373v2.712q0 4.068-2.895 6.103c-1.93 1.356-4.504 1.695-7.4 1.695-2.895 0-6.112-.678-7.72-2.373-1.609-1.696-2.574-4.069-2.896-7.46v-2.033q-.481-2.544-2.895-2.035l-15.12 2.035c-.643 0-1.287.339-1.608 1.017s-.644 1.017-.644 2.034v3.3899999999999997c.644 4.408 1.609 7.798 2.896 10.51 1.286 2.713 3.538 5.086 5.79 6.781 2.574 1.695 5.469 3.051 9.008 3.73s8.042 1.017 12.868 1.017c4.825 0 8.686-.34 12.546-1.356q5.79-1.018 9.651-4.069c2.574-2.034 4.504-4.746 6.112-8.137 1.287-3.39 2.252-7.459 2.252-12.883q0-11.189-4.825-17.291z"/></g><path fill="#9c0d17" d="M101.376 291.232c0-1.017-1.287-2.034-2.252-2.373v-59.67c.965 0 1.93-1.357 2.252-2.374h16.728v-1.695h-16.728c-.322-1.356-1.609-2.373-2.896-2.373s-2.573 1.017-2.895 2.373H78.213v1.695h17.372c0 1.017 1.287 2.034 2.252 2.373v59.67c-.965 0-1.93 1.357-2.252 2.374H71.78l-4.504-13.562c.966-.678 1.287-1.695 1.287-2.712 0-1.695-1.287-3.39-3.217-3.39h-.321L50.225 228.17h-9.007L26.42 271.568c-1.609 0-3.217 1.356-3.217 3.39s.643 2.034 1.286 2.712l-7.72 23.055h1.608l7.72-22.377h.323c1.608 0 2.573-1.017 2.895-2.373h32.813c.322 1.356 1.609 2.373 2.896 2.373l5.147 14.579h24.77c.322 1.356 1.61 2.373 2.896 2.373 1.287 0 2.574-1.017 2.895-2.373h17.05v-1.695h-17.05ZM62.45 273.94H29.637c0-.678-.644-1.695-1.287-2.034l14.476-42.38h6.756l14.476 42.38c-.643.339-.965 1.017-1.286 2.034z"/><g fill="#fff"><path d="M232.308 477.362c0 .34-.322.679-.965.34l-3.217-1.357-.322-.339v-1.6949999999999998c-.644.34-1.609.678-2.895.34q-1.93 0-3.86-1.018c-2.253-1.017-3.54-2.034-4.826-3.051-.965-1.017-1.609-2.374-1.93-3.73v-4.746c.321-1.695 1.286-3.73 1.93-6.103s1.93-4.068 2.895-5.763 1.93-2.713 3.217-3.73c1.287-.678 2.574-1.356 4.182-1.017 1.609 0 3.539.678 5.469 1.695s5.147 3.052 6.112 5.086c1.287 2.034 1.287 4.407.644 7.12 0 0 0 .339-.322.339h-.643l-4.183-1.357c-.321 0-.643-.339-.321-1.017.321-1.356.321-2.712 0-3.73-.644-1.016-1.609-1.694-2.896-2.711s-2.251-.678-2.895-.678c-.965 0-1.608.339-2.252 1.017s-1.287 1.356-1.93 2.373-.965 2.373-1.608 3.73c-.644 1.355-.966 2.712-1.609 4.068-.322 1.017-.643 2.034-.643 3.051s0 1.695.965 2.373c.643.678 1.287 1.356 2.573 1.696 1.93 1.017 3.54 1.017 4.826.339 1.287-.679 2.252-2.035 3.217-4.069l-5.79-1.695c-.322 0-.644-.34-.322-.678l1.286-3.051c0-.34.644-.679.965-.34l10.295 3.052c.322 0 .643.339.322.678l-5.791 13.9zM276.702 462.445c.322 0 .644.339.322.678l-12.868 23.732c0 .34-.643.679-.965.34l-4.182-1.018c-.322 0-.644-.339-.644-1.017v-17.969l-8.042 15.935c0 .34-.643.678-.965.34l-4.182-1.018c-.322 0-.644-.34-.644-1.017v-27.123c0-.339 0-.678.644-.678l4.182 1.017c.322 0 .643.34.643 1.017v17.969c-.321 0 7.721-15.935 7.721-15.935 0-.339.643-.678.965-.339l3.86 1.017c.322 0 .644.34.644 1.018V477.7l8.042-15.934c0-.34.644-.678.966-.34l4.182 1.018zM290.214 484.821h-9.33l-2.251 5.086s0 .339-.322.339h-.644l-4.503-.678c-.322 0-.644 0-.322-.678l11.903-25.089s0-.339.322-.339h.643l4.182.678h.643v.678l6.434 27.123c0 .339 0 .678-.643.678l-4.504-.678h-.643v-.678l-1.609-6.442zm-.965-4.746-1.93-8.476-3.54 7.459-2.573 1.356h7.72zM324.314 491.602c0 .339 0 .678-.643.678h-4.183c-.321 0-.643 0-.965-.339l-10.937-17.63.643 17.969c0 .339 0 .678-.643.678h-4.183c-.321 0-.643 0-.643-.678l-.965-26.106c0-.339 0-.678.643-.678h4.504c.322 0 .644 0 .965.34l10.938 17.29-.643-17.63c0-.339 0-.678.643-.678h4.182c.322 0 .644 0 .644.678l.965 26.106zM354.232 486.855c0 .34 0 .679-.643.679l-3.217.678h-.644v-1.357c-.643.679-1.608 1.696-2.573 2.374s-2.252 1.017-3.539 1.356c-2.252.339-4.182.339-5.469 0-1.608 0-2.574-1.017-3.539-2.034s-1.608-2.374-2.252-4.069-.965-3.73-1.608-6.441c-.643-2.713-.643-4.408-.643-6.442s0-3.39.643-4.747 1.608-2.373 2.895-3.39 3.217-1.356 5.47-2.034c2.251-.678 5.79 0 8.042.678 2.252 1.017 3.538 3.051 4.182 5.763v.679l-.322.339-4.182 1.356c-.322 0-.643 0-.643-.34q-.484-2.034-1.93-3.05c-.966-.679-2.253-.679-3.861-.34-1.609.34-2.252.678-2.895 1.017-.644.678-.965 1.357-1.287 2.035v3.05c0 1.357 0 2.713.643 4.07.644 1.356.644 3.05.965 4.068 0 1.017.644 2.034 1.287 2.712.644.678.965 1.356 1.93 1.356h2.896c1.93-.339 3.538-1.356 4.182-2.373.643-1.356.965-3.051.643-5.086l-5.79 2.035c-.322 0-.644 0-.644-.34l-.643-3.39c0-.339 0-.678.643-1.017l10.295-3.39c.321 0 .643 0 .643.339l2.574 14.917zM358.092 477.701v-.678l.322-.339 3.539-1.695c.322 0 .643 0 .965.34 0 .677.643 1.016.965 1.694 0 .678.643 1.018.965 1.696.322.339.965.678 1.287 1.017h1.608c.644 0 1.287-.34 1.609-.678.322 0 .643-.678.643-1.017v-1.696c0-.678 0-1.356-.643-2.373l-4.826-16.952c0-.339 0-.678.322-1.017l3.86-1.356c.322 0 .644 0 .966.34l4.825 16.95c.644 1.696.965 3.391.965 4.747 0 1.357 0 2.374-.321 3.39-.322 1.018-1.287 1.696-2.252 2.374s-2.252 1.356-4.182 1.695c-1.93.34-2.896.678-3.86.678q-1.932 0-2.896-1.017c-.965-.678-1.609-1.356-2.252-2.373s-1.287-2.373-1.609-3.73M374.82 453.969c0-.34 0-.678.323-1.017l3.86-1.695c.322 0 .643 0 .965.339l6.434 16.612c.643 1.696 1.609 2.713 2.574 3.052s2.252 0 3.86-.34c1.609-.338 1.287-.677 1.93-1.016.644-.34.965-1.017.965-1.356v-1.696c0-.678 0-1.356-.643-2.373l-6.434-16.613c0-.339 0-.678.322-1.017l3.86-1.695c.322 0 .644 0 .965.34l6.756 16.95c.643 1.696.965 3.052.965 4.408s0 2.374-.643 3.73c-.644 1.017-1.287 2.034-2.252 2.712s-2.252 1.695-3.86 2.034c-1.61.34-2.896 1.017-4.183 1.356h-3.539c-.965 0-1.93-1.017-2.895-2.034s-1.608-2.373-2.252-4.068l-6.755-16.952z"/></g><g fill="#fff"><path d="M138.371 156.974c.322 0 .322.678 0 1.017l-1.93 3.73c0 .338-.643.338-.965 0l-22.52-13.223c-.32 0-.32-.678 0-1.017l5.148-9.493c1.287-2.713 2.895-4.408 4.826-4.747 1.93-.678 4.182 0 6.434 1.356s2.252 1.356 2.895 2.373c.643.679 1.287 1.696 1.608 2.713 0 1.017.322 2.034 0 3.051 0 1.017-.321 2.373-.965 3.73l-2.252 6.102zm-11.581-17.291c-.643 0-.965-.678-1.608-.678h-1.287c-.322 0-.644 0-1.287.678s-.643.678-.965 1.356l-2.574 4.746 6.434 3.73v2.712l2.896-7.459c0-.678.321-1.356.321-1.695v-1.356c0-.34-.321-.678-.643-1.017-.322 0-.965-.678-1.287-1.017M156.386 127.477c.322 0 .322.679 0 1.018l-9.007 12.883c0 .339-.644.339-.965 0l-19.946-15.596c-.321 0-.321-.678 0-1.017l9.008-12.883c0-.34.643-.34.965 0l2.574 2.034c.321 0 .321.678 0 1.017l-6.113 8.815 4.182 3.051v2.713l5.791-10.51c0-.34.643-.678 1.287 0l2.573 2.034c.322 0 .322.678 0 1.017l-5.147 8.815 4.826 3.73 6.112-8.816c0-.339.643-.339.965 0l2.574 2.035zM164.75 119.002c.322 0 .322.678 0 1.017l-2.895 3.051c0 .339-.643.339-.965 0l-18.658-18.647c-.322 0-.322-.678 0-1.017l7.077-7.798c1.93-2.034 3.86-3.39 5.79-3.39s3.861 1.017 6.113 3.051 1.93 2.034 2.252 3.051c.643 1.017.643 2.035.965 3.052 0 1.017 0 2.034-.643 3.051q-.483 1.526-1.93 3.051l-3.861 5.425 6.434 6.442zm-7.72-19.665c-.322-.339-.965-.678-1.287-1.017-.322 0-.965-.339-1.287-.339h-1.287c-.321 0-.965.678-1.286 1.017l-3.54 3.73 5.47 5.424-.644 2.713 4.504-6.442c.322-.678.644-1.017.644-1.356v-1.356c0-.34 0-.678-.644-1.017 0-.34-.643-.678-.965-1.357zM181.157 102.389v1.017l-3.217 2.712h-.965l-16.728-20.681V84.42l7.72-7.12c2.253-2.034 4.183-3.051 6.113-2.712 1.93 0 3.86 1.356 5.79 3.73s1.61 2.373 1.93 3.39c.322 1.017.644 2.034.644 3.051s0 2.034-.643 3.051l-1.93 3.052-4.183 4.746 5.791 7.12zm-5.469-20.342c-.321-.34-.965-1.017-1.286-1.356-.322 0-.644-.679-1.287-.679h-1.287c-.322 0-.965.34-1.608 1.018l-3.86 3.39 4.825 5.764-.965 2.712 5.147-6.103c.321-.678.643-1.017.965-1.356v-1.356c0-.34 0-.678-.322-1.356 0-.34-.643-1.017-.965-1.356zM207.537 81.03v1.017l-12.868 8.476h-.965l-13.512-22.038v-1.017l12.868-8.476h.965l1.609 3.052v1.017l-8.686 5.763 2.895 4.408-.965 2.373 9.33-7.459c.321-.339.965 0 1.286 0l1.609 2.712v1.018l-7.721 6.441 3.217 5.425 8.686-5.764h.965l1.93 3.052zM229.734 69.502v1.017l-3.217 2.035h-.965l-7.077-7.798-5.148 3.73 4.504 8.475v1.017l-3.539 2.034h-.965l-12.546-24.071v-1.017l9.33-5.425c2.251-1.356 4.503-1.695 6.433-1.356 1.93.34 3.54 2.034 4.826 4.408 1.287 2.373.643 1.017.643 1.695s.322 1.356.322 2.034v2.034c0 .678-.322 1.356-.643 2.034.643.678 1.286 1.696 2.251 2.374l2.252 2.373 2.252 2.373 1.93 2.034zm-13.833-14.24q-.965-2.033-1.93-2.033c-.644 0-1.609 0-2.574.678l-4.504 2.712 3.217 6.442-1.286 2.373 5.79-4.408c.644-.339.965-.678 1.287-1.017 0-.339.322-.678.643-1.017v-1.356c0-.339-.321-1.017-.643-1.695zM239.385 57.636v-.678s0-.339.643-.678l3.54-1.695c.643 0 .964 0 .964.678.322 1.356.965 2.034 1.93 2.712.644.34 1.93.34 3.54 0 1.608-.339 1.286-.339 1.608-.678.643 0 .965-.678 1.287-1.017 0-.34.321-.678.643-1.356v-1.695c0-.678-.643-1.696-.965-2.374s-1.287-.678-2.252-.678l-5.147 1.017c-2.252.34-4.182 0-5.47-1.017q-1.929-1.526-2.895-5.085c-.643-2.373-.643-3.052-.321-4.069q0-1.526.965-3.051c.643-.678 1.287-1.695 2.573-2.034.966-.678 2.252-1.017 3.54-1.356q1.93-.51 3.86-1.017h3.217c.965 0 1.608.678 2.573 1.356q.966 1.017 1.93 3.051v.678s0 .34-.643.678l-3.539 1.695c-.643 0-.965 0-.965-.678-.321-1.017-.965-1.695-1.608-2.034h-2.896c-1.286 0-2.252 1.017-2.573 1.356-.644.678-.644 1.356 0 2.712.643 1.357.643 1.696.965 2.035s.965.678 1.93.339l5.147-.678h3.217c.965 0 1.609.339 2.574 1.017q.965.508 1.93 2.034c.644 1.017.965 2.034 1.287 3.39s.643 3.39.643 4.408c0 1.356-.643 2.373-1.286 3.051a5.03 5.03 0 0 1-2.574 2.034c-.965.678-2.252 1.017-3.86 1.696-1.609.678-2.896.678-4.183 1.017s-2.251 0-3.217-.34c-.965-.338-1.608-1.017-2.573-2.034-.644-1.017-1.287-2.034-1.93-3.729zM278.633 47.465l-8.686 3.051-.965 5.425v.678h-.644l-4.504.678c-.321 0-.643 0-.643-.678l4.504-27.462v-.678h.643l4.182-.678h.644s.321 0 .321.339l13.512 24.072v.678l-4.504.678h-.643s-.322 0-.322-.34l-3.217-5.763zm-2.252-4.068-4.182-7.46-1.287 8.138-1.93 2.034 7.399-2.373zM306.942 24.75c.322 0 .644 0 .644.678l-7.078 26.784c0 .339-.322.678-.965.678h-4.825l-.322-.34-9.973-25.766c0-.34 0-.678.322-.678h4.504c.321 0 .643 0 .965.339l6.434 18.308 4.825-18.986c0-.34.322-.678.965-.678h4.504zM312.411 25.428c0-.34 0-.678.643-.678l11.26.678c.322 0 .643 0 .643.678v3.051c0 .34-.321.678-.965.678h-2.895l-.965 16.952-1.93 1.356h5.147c.322 0 .643.678.643 1.017v3.39c0 .34-.321.679-.965.679l-11.581-.678c-.322 0-.643 0-.643-.679v-3.39c0-.339.321-.678.965-.678h3.217l.965-18.308h-2.896c-.321 0-.643-.339-.643-1.017zM351.658 56.958c0 .34-.321.678-.643.678l-4.182-.678c-.322 0-.643 0-.965-.678l-7.4-19.325-2.895 17.63c0 .339-.321.678-.643.678l-4.182-.678c-.322 0-.643-.34-.643-.678l4.182-25.767c0-.34.321-.678.643-.678l4.504.678c.322 0 .643 0 .965.678l7.077 19.325 2.574-17.29c0-.34.322-.679.643-.679l4.182.678c.322 0 .644.34.644.678l-4.182 25.767zM377.073 65.095c0 .339-.322.678-.965.339l-3.217-1.017s-.322 0-.322-.34v-1.694c-.643.678-1.609.678-2.895 1.017-1.287 0-2.574 0-3.86-.678-2.253-.678-3.861-1.357-5.148-2.374s-1.93-2.034-2.574-3.39c-.321-1.356-.643-3.051 0-4.746 0-1.696.644-4.069 1.287-6.442.644-2.373 1.287-4.408 2.252-6.103q.966-2.543 2.895-4.068c.966-1.017 2.252-1.356 3.86-1.695 1.61 0 3.54 0 5.791.678s5.148 2.373 6.756 4.407 1.93 4.408 1.287 7.12v.339h-.643l-4.183-.678c-.321 0-.643 0-.643-.678 0-1.356 0-2.713-.643-3.73-.644-1.017-1.609-1.695-3.217-2.034s-2.252-.339-2.896 0c-.965 0-1.608.678-1.93 1.356-.643.678-.965 1.695-1.608 2.713-.322 1.017-.965 2.373-1.287 4.068q-.483 2.543-.965 4.068v3.052c0 1.017.643 1.695.965 2.034.643.678 1.608 1.017 2.573 1.356q2.896 1.017 4.826 0c1.287-.678 1.93-2.373 2.574-4.407l-6.113-1.017c-.321 0-.643 0-.643-.679l.965-3.39c0-.339.322-.678.965-.678l10.616 1.695c.322 0 .644 0 .644.678l-4.183 14.579zM383.507 61.026s0-.339.321-.678h.644l3.539 1.017c.643 0 .643.679.643 1.018-.322 1.356-.643 2.373 0 3.39 0 1.017 1.287 1.695 2.574 2.373s1.286.678 1.608.678h1.287c.322 0 .965 0 1.287-.678.321 0 .643-.678.965-1.356s.643-1.695.643-2.373-.321-1.356-1.287-2.034l-4.503-3.052c-1.93-1.356-3.217-2.712-3.54-4.407-.32-1.695 0-3.73.966-5.764.965-2.034 1.287-2.712 2.252-3.39s1.608-1.356 2.574-1.695h3.217c.965 0 2.251.678 3.538 1.356s2.574 1.356 3.539 2.034 1.608 1.356 2.252 2.373.965 1.695.965 2.713c0 1.017 0 2.373-.643 3.729 0 0 0 .339-.322.678h-.644l-3.538-1.356c-.644 0-.644-.678-.644-1.017v-2.373c-.321-.679-.965-1.357-2.252-2.035s-2.251-.678-2.895-.678q-.965 0-1.93 2.034c-.643 1.357-.643 1.696-.322 2.374 0 .678.322 1.017 1.287 1.695l4.504 3.051c.965.678 1.93 1.356 2.573 2.034.644.678.966 1.696 1.287 2.374v2.712c0 1.017-.643 2.034-.965 3.39s-1.608 2.713-2.252 3.73c-.965.678-1.93 1.356-2.895 1.695h-3.217c-1.287 0-2.574-.678-3.86-1.695s-2.896-1.356-3.86-2.374c-.966-1.017-1.61-1.695-2.253-2.712-.322-1.017-.643-2.034-.643-3.051s0-2.373.965-4.069zM414.39 85.098c-.322 0-.322-.678 0-1.017l14.477-21.36c0-.338.643-.338.965 0l9.007 6.781c1.93 1.696 3.217 3.052 3.86 4.747.322 1.695 0 3.73-1.608 5.763-1.608 2.035-.643.679-.965 1.357-.322.339-.643.678-1.287 1.017-.321 0-.965.678-1.287.678h-1.608c.322.678.643 1.356.643 2.034v2.034c0 .678-.321 1.356-.643 1.695 0 .678-.643 1.017-.965 1.696-1.609 2.373-3.217 3.39-4.826 3.729-1.608 0-3.538-.34-5.79-2.034l-9.973-7.459zm21.876-8.137c.643-.678.965-1.356.643-2.034 0-.678-.322-1.356-1.287-1.695l-4.825-3.73-3.539 5.086h-2.252l6.756 3.73c.965.677 1.93.677 2.573.677.644 0 1.287-.678 1.93-1.695zm-5.791 10.171c0-.339.643-1.017.643-1.356V84.42c0-.34 0-.678-.321-1.356 0-.34-.644-.678-1.287-1.017l-5.469-2.713-3.217 4.747 5.147 3.73c.965.677 1.609 1.016 2.252 1.016.644 0 1.287-.678 1.93-1.695zM449.777 105.78l-7.4-5.764-4.503 2.373h-1.287l-3.217-3.052v-.678l23.806-12.544h1.287l3.217 3.051v1.3570000000000002l-10.294 26.105c0 .34-.322.34-.644 0l-3.217-3.051v-1.356l2.574-6.103zm1.93-4.408 3.217-8.137-6.755 3.73-2.574-.679 6.434 4.747zM467.792 137.649h-.965l-2.573-3.39c0-.34-.322-.679 0-1.357l6.755-19.664-13.19 11.188h-.965l-2.573-3.39v-1.017l19.302-16.274h.965l2.895 3.73c0 .338.322.677 0 1.355l-6.755 19.326 12.868-10.85h.965l2.573 3.39v1.018l-19.302 16.274zM482.269 161.72c0 .678-.322.678-.644 0l-2.573-4.746c0-.34-.322-1.018 0-1.696l4.504-11.527-3.217-.678-6.113 3.73h-1.287l-1.93-3.39v-1.357l20.91-13.561h1.288l1.93 3.39v1.356l-7.4 4.747-3.538.678 15.12 1.695c.643 0 .965 0 1.287.678l2.573 4.407c0 .34 0 .678-.321.678l-14.477-1.356-6.112 16.274z"/></g></svg>