<svg xmlns="http://www.w3.org/2000/svg" xml:space="preserve" width="319.52426" height="166.77626" viewBox="0 0 319.52425 166.77626"><defs><clipPath id="a" clipPathUnits="userSpaceOnUse"><path d="M0 1602h1190V0H0Z"/></clipPath></defs><g clip-path="url(#a)" style="stroke-width:.280671" transform="matrix(4.75051 0 0 -4.75051 -500.229 6429.082)"><g style="stroke-width:.280671"><path d="M0 0c0 .427-.048.85-.14 1.261a6.4 6.4 0 0 1-.49 1.416 7 7 0 0 1-.979 1.502 9 9 0 0 1-.75.762l.498 2.169.327 3.959-1.247.558c-1.567.692-3.052 1.022-4.305 1.029-1.582.005-3.021-.527-4.032-1.509a5 5 0 0 1-.438-.489l-.591.774-1.528 2.001-.387.507a76 76 0 0 1-2.658 3.296c-.002.004.745.876.808.957a19 19 0 0 1 1.649 2.508c.134.245.281.525.417.809l.346 4.327h-6.111l-.415-.92a13 13 0 0 0-.749-1.436v2.356h-10.018v-3.89l-2.227 3.89h-10.111v-1.56c-.719.69-1.658 1.175-2.714 1.391a9.2 9.2 0 0 1-1.798.169h-5.228V12.445h-2.483l-.483.069c-.694.116-1.423.164-2.123.165-.813-.002-1.562-.059-2.22-.205-2.873-.607-5.083-2.823-5.433-5.662l-.004-.031-.004-.043a5.461 5.461 0 0 1 .194-1.917c.341-1.096 1.02-1.824 1.772-2.363 1.14-.77 2.241-.904 3.035-1.1q.174-.04.284-.069a1.5 1.5 0 0 0-.249-.318 3 3 0 0 0-.247-.197 5.4 5.4 0 0 0-1.667-.802q-.156-.043-.394-.099a8 8 0 0 0-.75-.133c-.858-.122-1.572-.124-1.572-.124l-2.046-7.193 2.015-1.693s7.338 2.949 10.28 3.724l.211.057c5.379 1.527 12.662 2.549 21.706 2.548 10.317.001 18.066-1.326 23.557-3.22l.655-.227c.83-.289 1.697-.521 2.601-.617.581-.063 1.17-.075 1.748.02q.244.042.484.099c.834.198 1.696.529 2.302 1.156.604.625.966 1.449 1.199 2.276.078.276.138.556.191.837.061.332.106.665.152.997 0 0 .15 1.081.15 1.276l-.001.001Q-.001-.171 0 0" style="fill:#2f1f66;fill-opacity:1;fill-rule:nonzero;stroke:none;stroke-width:.280671" transform="translate(172.561 1327.508)"/></g><g style="stroke-width:.280671"><path d="M0 0h.354C1.016 0 1.435.051 1.8.178c.663.223.986.737.986 1.571 0 1.168-.548 1.644-1.891 1.644H0Zm0-6.041h-2.817V5.684H1.07c.539 0 1.082-.05 1.528-.142 1.91-.393 3.144-1.813 3.144-3.62 0-2.122-1.165-3.549-3.281-4.019-.585-.136-1.247-.194-2.212-.194H0z" style="fill:#fff;fill-opacity:1;fill-rule:nonzero;stroke:none;stroke-width:.280671" transform="translate(123.84 1346.333)"/></g><g style="stroke-width:.280671"><path d="M0 0h.675c1.216 0 1.669-.385 1.669-1.423 0-.968-.476-1.241-.834-1.361-.345-.119-.743-.167-1.377-.167H0Zm.849 2.733h-4.108V-9.434H0v3.75h.029c.98 0 1.656.059 2.264.201 2.19.485 3.449 2.029 3.449 4.232 0 1.917-1.303 3.423-3.321 3.837a8 8 0 0 1-1.572.147M-.442-3.393h.575c.664 0 1.117.051 1.519.19.82.276 1.134.933 1.134 1.78C2.786.01 1.966.442.675.442H-.442zM.849 2.291c.541 0 1.065-.051 1.484-.138C4.182 1.773 5.3.391 5.3-1.251c0-1.814-.926-3.318-3.107-3.802-.593-.138-1.257-.19-2.164-.19h-.471v-3.749h-2.374V2.291z" style="fill:#ec008c;fill-opacity:1;fill-rule:nonzero;stroke:none;stroke-width:.280671" transform="translate(124.061 1349.505)"/></g><path d="M133.58 1340.292h-2.818v11.726h2.818z" style="fill:#fff;fill-opacity:1;fill-rule:nonzero;stroke:none;stroke-width:.280671"/><path d="M133.8 1352.238h-3.259v-12.167h3.259zm-.442-11.725h-2.374v11.283h2.374z" style="fill:#ec008c;fill-opacity:1;fill-rule:nonzero;stroke:none;stroke-width:.280671"/><g style="stroke-width:.280671"><path d="M0 0h-3.352l-.063.111-4.211 7.393V0h-2.606v11.725h3.281l.063-.111 4.282-7.482v7.593H0Z" style="fill:#fff;fill-opacity:1;fill-rule:nonzero;stroke:none;stroke-width:.280671" transform="translate(145.669 1340.33)"/></g><g style="stroke-width:.280671"><path d="M0 0h-3.049v-6.981L-6.917-.223-7.045 0h-3.63v-12.167h3.048v6.888l3.798-6.665.127-.223H0Zm-.443-.442v-11.284h-3.002l-4.607 8.088h-.017v-8.088h-2.164V-.442h2.932l4.677-8.173h.017v8.173z" style="fill:#ec008c;fill-opacity:1;fill-rule:nonzero;stroke:none;stroke-width:.280671" transform="translate(145.93 1352.238)"/></g><g style="stroke-width:.280671"><path d="M0 0h-3.736l-.067.091A80 80 0 0 1-7.26 4.475V0h-2.833v11.725h2.833V6.982c1.229 1.027 2.472 2.75 3.312 4.613l.059.13h3.206l-.16-.319c-1.272-2.549-2.311-3.982-4.053-5.565A69 69 0 0 0-.271.355z" style="fill:#fff;fill-opacity:1;fill-rule:nonzero;stroke:none;stroke-width:.280671" transform="translate(157.697 1340.292)"/></g><g style="stroke-width:.280671"><path d="M0 0h-3.707l-.117-.26c-.744-1.651-1.807-3.187-2.889-4.211V0h-3.276v-12.167h3.276v4.087a78 78 0 0 0 3.057-3.906l.132-.181H.772l-.542.71a70 70 0 0 1-4.487 5.34C-2.59-4.572-1.563-3.134-.32-.639zm-.716-.442c-1.344-2.695-2.426-4.094-4.171-5.65 1.536-1.625 3.037-3.37 4.765-5.634h-3.177A81 81 0 0 1-7.155-6.87v-4.856h-2.392V-.442h2.392v-4.976c1.378 1.002 2.792 2.885 3.734 4.976z" style="fill:#ec008c;fill-opacity:1;fill-rule:nonzero;stroke:none;stroke-width:.280671" transform="translate(157.372 1352.238)"/></g><g style="stroke-width:.280671"><path d="m0 0 .104.365.984 3.462.043.149.155.01c.335.023.858.08 1.451.216l.05.012q.202.047.401.103a6.8 6.8 0 0 1 2.069.995q.216.152.388.311c.194.181.373.413.52.671.303.535.317 1.279-.241 1.664-.263.182-.58.255-.914.334l-.38.085c-.775.172-1.507.333-2.213.817-.586.403-1.073 1.042-1.242 1.63a4.2 4.2 0 0 0-.145 1.437c.291 2.272 1.978 4.006 4.403 4.538.483.109 1.183.171 1.92.171.678 0 1.334-.05 1.9-.146l.23-.038-.051-.229-.643-2.87-.246.108c-.394.174-.907.262-1.524.262a7.6 7.6 0 0 1-1.416-.14 2.4 2.4 0 0 1-.488-.16 1.7 1.7 0 0 1-.739-.531 1.2 1.2 0 0 1-.268-.72c-.001-.345.11-.829 1.086-1.022 1.043-.206 2.142-.456 3.098-1.034a3.2 3.2 0 0 0 1.104-1.106 2.9 2.9 0 0 0 .386-1.065c.13-.837-.008-1.766-.389-2.614C7.677 1.835.441.107.368.089z" style="fill:#fff;fill-opacity:1;fill-rule:nonzero;stroke:none;stroke-width:.280671" transform="translate(107.239 1321.89)"/></g><g style="stroke-width:.280671"><path d="M0 0c-.765 0-1.464-.063-1.971-.177C-4.487-.729-6.24-2.535-6.542-4.89l-.001-.012-.001-.01a4.4 4.4 0 0 1 .153-1.516c.22-.77.83-1.41 1.329-1.751.741-.508 1.527-.682 2.288-.85q.182-.04.368-.083c.325-.075.622-.145.851-.302.448-.311.426-.927.173-1.374-.135-.24-.3-.453-.479-.619a4 4 0 0 0-.363-.292 6.6 6.6 0 0 0-2.004-.963q-.198-.055-.413-.106l-.029-.006a9 9 0 0 0-1.413-.21l-.311-.021-.084-.3-.985-3.461-.207-.729.737.178c.074.018 7.418 1.782 9.175 5.7.397.888.542 1.86.404 2.74a3.2 3.2 0 0 1-.413 1.144 3.45 3.45 0 0 1-1.181 1.181c-.986.597-2.106.852-3.169 1.061-.911.181-.909.603-.907.805q.001.299.221.587.225.292.634.455l.012.005.011.005c.12.055.266.103.446.145.104.021.687.133 1.365.133.586 0 1.069-.081 1.435-.242l.492-.217.118.525.584 2.609.102.455-.46.077C1.358-.051.689 0 0 0m0-.442c.624 0 1.281-.045 1.862-.143l-.584-2.609c-.49.217-1.08.281-1.613.281-.79 0-1.452-.143-1.465-.146a2.7 2.7 0 0 1-.533-.174 1.9 1.9 0 0 1-.821-.597 1.4 1.4 0 0 1-.313-.853c-.003-.527.25-1.041 1.264-1.242 1.04-.204 2.1-.445 3.026-1.005a3 3 0 0 0 1.029-1.03c.178-.299.303-.632.357-.986.13-.835-.029-1.725-.372-2.49-1.631-3.64-8.59-5.382-8.874-5.451l.984 3.461c.326.023.863.079 1.486.221.154.038.309.074.462.118.767.222 1.478.56 2.136 1.028q.215.15.41.329c.221.207.411.457.562.724.366.646.345 1.504-.307 1.955-.301.208-.654.289-1.002.369-.888.207-1.726.333-2.506.867-.487.335-.983.911-1.154 1.508a4 4 0 0 0-.137 1.36c.275 2.149 1.893 3.826 4.23 4.339.472.107 1.151.166 1.873.166" style="fill:#ec008c;fill-opacity:1;fill-rule:nonzero;stroke:none;stroke-width:.280671" transform="translate(114.593 1339.08)"/></g><g style="stroke-width:.280671"><path d="M0 0h.354c.66 0 1.081.05 1.449.173.662.216.983.71.983 1.511 0 1.125-.548 1.583-1.891 1.583H0Zm-2.816-7.284V5.497H1.07c.537 0 1.079-.049 1.526-.138 1.91-.38 3.145-1.757 3.145-3.509 0-2.056-1.165-3.437-3.281-3.891-.588-.132-1.249-.188-2.211-.188H0v-4.394l-.171-.04z" style="fill:#fff;fill-opacity:1;fill-rule:nonzero;stroke:none;stroke-width:.280671" transform="translate(121.356 1333.128)"/></g><g style="stroke-width:.280671"><path d="M0 0h.674c1.39 0 1.669-.521 1.669-1.362 0-.712-.255-1.114-.828-1.3-.348-.116-.748-.163-1.382-.163H0Zm.849 2.672h-4.108v-13.281l2.917.685.342.08v4.347h.028c.979 0 1.655.058 2.262.195 2.192.47 3.452 1.967 3.452 4.106 0 1.862-1.304 3.324-3.324 3.726a8.4 8.4 0 0 1-1.569.142M-.443-3.267h.576c.664 0 1.117.051 1.519.184.82.267 1.134.902 1.134 1.721C2.786.024 1.966.442.674.442H-.443zM.849 2.229c.541 0 1.065-.05 1.483-.133 1.85-.368 2.967-1.704 2.967-3.292 0-1.754-.925-3.207-3.106-3.675-.594-.133-1.257-.183-2.165-.183h-.471v-4.44l-2.374-.557v12.28z" style="fill:#ec008c;fill-opacity:1;fill-rule:nonzero;stroke:none;stroke-width:.280671" transform="translate(121.577 1336.174)"/></g><g style="stroke-width:.280671"><path d="M0 0v11.035h2.815V.264L.241.022Z" style="fill:#fff;fill-opacity:1;fill-rule:nonzero;stroke:none;stroke-width:.280671" transform="translate(128.279 1327.59)"/></g><g style="stroke-width:.280671"><path d="M0 0h-3.259v-11.499l.484.045 2.373.224.402.037zm-.444-.443v-10.348l-2.373-.223V-.443z" style="fill:#ec008c;fill-opacity:1;fill-rule:nonzero;stroke:none;stroke-width:.280671" transform="translate(131.316 1338.846)"/></g><g style="stroke-width:.280671"><path d="M0 0h.833c2.509 0 2.781 2.365 2.781 3.382 0 .79-.177 2.188-1.359 2.686-.501.218-1.154.329-1.941.329H0Zm-2.595-2.204V8.434H.424c1.116 0 2.025-.133 2.778-.405 2.684-.97 3.085-3.224 3.085-4.48 0-2.425-1.021-4.278-2.801-5.085-.845-.373-1.895-.561-3.125-.561l-2.727-.099z" style="fill:#fff;fill-opacity:1;fill-rule:nonzero;stroke:none;stroke-width:.280671" transform="translate(135.586 1330.19)"/></g><g style="stroke-width:.280671"><path d="M0 0h.091c.758 0 1.381-.104 1.852-.309 1.068-.45 1.228-1.749 1.228-2.484 0-.95-.25-3.16-2.56-3.16H0Zm.202 2.479h-3.24V-8.608l.458.016 2.726.098c1.259.002 2.337.196 3.205.58 1.867.846 2.936 2.772 2.936 5.287 0 1.315-.42 3.673-3.232 4.689-.778.281-1.711.417-2.853.417m-.645-8.875H.611c2.246 0 3.001 1.813 3.001 3.603 0 1.34-.456 2.453-1.493 2.89C1.601.322.924.442.091.442h-.534zm.645 8.433c1.115 0 1.995-.135 2.703-.391C5.278.788 5.844-1.153 5.844-2.627c0-2.257-.912-4.085-2.671-4.883-.818-.361-1.856-.541-3.034-.541l-2.735-.099V2.037z" style="fill:#ec008c;fill-opacity:1;fill-rule:nonzero;stroke:none;stroke-width:.280671" transform="translate(135.808 1336.366)"/></g><g style="stroke-width:.280671"><path d="m0 0-.232.011-6.426.313-.211.011v10.507h6.648V8.667h-4.053V6.793l3.582-.064.218-.002V4.354l-.226.003-3.574.064V2.422l4.062-.164L0 2.25Z" style="fill:#fff;fill-opacity:1;fill-rule:nonzero;stroke:none;stroke-width:.280671" transform="translate(149.904 1327.783)"/></g><g style="stroke-width:.280671"><path d="M0 0h-7.09v-10.938l7.312-.357v2.694l-.426.018-3.849.155v1.561l3.349-.059.451-.008v2.815l-.435.007-3.365.059v1.436H0Zm-.443-.443v-1.732h-4.053v-2.312l3.8-.067v-1.929l-3.8.066v-2.436l4.275-.171v-1.807l-6.426.313V-.443z" style="fill:#ec008c;fill-opacity:1;fill-rule:nonzero;stroke:none;stroke-width:.280671" transform="translate(149.904 1338.846)"/></g><g style="stroke-width:.280671"><path d="M0 0h.843c.378 0 .727.047 1.036.14.654.191.907.595.907 1.442 0 .664-.256 1.094-.762 1.28-.354.112-.812.17-1.355.17H0Zm7.095-7.768-.495.119-3.281.789-.094.023-.047.084L.644-2.214H0v-4.032l-.252.035-2.564.352V5.262h3.868c4.351 0 4.69-2.688 4.69-3.513 0-1.604-.721-2.784-2.09-3.428l3.192-5.645z" style="fill:#fff;fill-opacity:1;fill-rule:nonzero;stroke:none;stroke-width:.280671" transform="translate(154.271 1333.363)"/></g><g style="stroke-width:.280671"><path d="M0 0h.448c.517 0 .95-.054 1.287-.16.162-.06.609-.239.609-1.069 0-.846-.273-1.091-.746-1.229a3.4 3.4 0 0 0-.976-.132H0Zm.831 2.672h-4.089V-8.862l.382-.053L0-9.31v4.064h.292l2.471-4.425.095-.17.188-.045 4.27-1.026-.5.885-3.078 5.443c1.314.702 2.004 1.91 2.004 3.522 0 .876-.354 3.734-4.911 3.734M-.443-3.033H.622q.602 0 1.099.15c.803.235 1.065.786 1.065 1.654 0 .752-.314 1.27-.907 1.487-.367.117-.838.184-1.431.184h-.891zM.831 2.229c3.387 0 4.468-1.653 4.468-3.291 0-1.653-.785-2.756-2.182-3.324l3.314-5.858-3.281.788L.552-4.803h-.995v-3.999l-2.373.325V2.229z" style="fill:#ec008c;fill-opacity:1;fill-rule:nonzero;stroke:none;stroke-width:.280671" transform="translate(154.492 1336.174)"/></g><g style="stroke-width:.280671"><path d="M0 0q-.067 0-.134.003c-.81.021-1.671.198-2.711.559l-.407.141-.104.036a43 43 0 0 0-1.853.691l-.189.074.059.194.795 2.661.08.27.243-.142c.001 0 .294-.172.435-.247.318-.167.63-.328.945-.475q.15-.07.3-.135a11 11 0 0 1 1.063-.401c.355-.113.642-.176.906-.2a2 2 0 0 1 .154-.008c.237 0 .455.049.631.142a.9.9 0 0 1 .44.691c.031.342-.11.7-.444 1.126-.522.666-1.494 1.13-2.276 1.502l-.163.078q-.407.194-.816.385l-.105.05c-.77.36-1.497.7-2.097 1.399-.588.686-.938 1.654-.938 2.59 0 2.364 1.701 3.952 4.233 3.952 1.089 0 2.459-.333 3.757-.913l.178-.079-.056-.186-.654-2.217-.067-.226-.223.082c-1.172.434-2.213.794-3.098.794-.883 0-1.211-.544-1.211-.887 0-.697.626-1.088 1.302-1.408q.228-.107.457-.212.331-.151.66-.31C.613 8.632 1.7 7.853 2.512 6.92c.362-.416.629-.89.789-1.215a5.2 5.2 0 0 0 .385-1.117C4.01 3.146 3.59 1.683 2.617.864 1.959.307 1.028 0 0 0" style="fill:#fff;fill-opacity:1;fill-rule:nonzero;stroke:none;stroke-width:.280671" transform="translate(167.42 1323.9)"/></g><g style="stroke-width:.280671"><path d="M0 0c-2.623 0-4.455-1.716-4.455-4.174 0-.986.371-2.007.992-2.732.631-.735 1.379-1.086 2.171-1.457l.105-.049q.409-.19.814-.385l.162-.077c.761-.362 1.709-.813 2.199-1.439.297-.378.424-.687.399-.97a.68.68 0 0 0-.326-.516 1.14 1.14 0 0 0-.526-.115q-.068 0-.135.006a4 4 0 0 0-.857.191c-.347.11-.698.242-1.043.392q-.148.065-.295.133a20 20 0 0 0-.934.472c-.135.07-.424.239-.428.241l-.486.284-.161-.54-.795-2.661-.117-.39.38-.148a48 48 0 0 1 1.861-.694l.511-.176c1.063-.369 1.945-.55 2.777-.572l.14-.001c1.081 0 2.061.325 2.76.914 1.036.873 1.483 2.421 1.141 3.943-.094.42-.233.824-.401 1.166a6 6 0 0 1-.82 1.262c-.832.956-1.942 1.753-3.49 2.507q-.33.16-.663.311l-.456.213c-.707.334-1.177.667-1.177 1.208 0 .257.269.666.99.666.849 0 1.871-.354 3.021-.78l.444-.165.134.454.655 2.217.111.371-.354.158C2.521-.34 1.119 0 0 0m0-.442c.962 0 2.288-.278 3.667-.894l-.655-2.216c-1.18.437-2.25.807-3.175.807-.981 0-1.432-.611-1.432-1.108 0-.859.785-1.303 1.43-1.608.37-.175.745-.341 1.114-.521 1.228-.599 2.426-1.339 3.349-2.4.298-.342.558-.762.758-1.167.163-.332.286-.708.366-1.068.28-1.244-.003-2.672-.994-3.508-.686-.578-1.596-.81-2.475-.81l-.128.001c-.907.024-1.787.251-2.644.548l-.513.177a48 48 0 0 0-1.843.687l.795 2.661s.299-.175.444-.251a23 23 0 0 1 .954-.481q.151-.07.306-.137a11 11 0 0 1 1.084-.408c.309-.099.629-.18.952-.21a2 2 0 0 1 .175-.009c.252 0 .512.051.734.168.305.163.525.509.558.866.043.487-.208.922-.491 1.283C1.744-9.285.65-8.796-.181-8.398q-.409.196-.818.387c-.793.371-1.533.699-2.128 1.392-.561.656-.885 1.564-.885 2.445C-4.012-2.051-2.506-.442 0-.442" style="fill:#ec008c;fill-opacity:1;fill-rule:nonzero;stroke:none;stroke-width:.280671" transform="translate(165.467 1339.057)"/></g><g style="stroke-width:.280671"><path d="m0 0 .302 1.387.231 2.465L-.332.596Z" style="fill:#ec008c;fill-opacity:1;fill-rule:nonzero;stroke:none;stroke-width:.280671" transform="translate(169.65 1333.47)"/></g><g style="stroke-width:.280671"><path d="M0 0q-.068-.183-.143-.359a15.854 15.854 0 0 0-.695-1.438c-.763-1.391-1.648-2.624-2.564-3.582l.403-.458c.888.921 1.746 2.104 2.495 3.438.103.186.239.436.368.699z" style="fill:#ec008c;fill-opacity:1;fill-rule:nonzero;stroke:none;stroke-width:.280671" transform="translate(158.041 1351.487)"/></g><g style="stroke-width:.280671"><path d="M0 0a6.4 6.4 0 0 0-1.209-.119q-.402 0-.802.044c-.849.09-1.677.31-2.481.59l-.657.228c-5.568 1.919-13.613 3.249-23.976 3.249-8.278 0-15.099-.849-20.363-2.168a25 25 0 0 1-1.716-.464 41 41 0 0 1-2.569-.832c-3.797-1.293-8.204-3.003-8.204-3.003l.888-.745c2.071.839 6.76 2.548 6.76 2.548l.226.086c5.702 2.094 14.09 3.548 24.978 3.551C-18.716 2.964-10.866 1.631-5.22-.314l.657-.228c.78-.272 1.569-.48 2.363-.563a7 7 0 0 1 .744-.042 5.5 5.5 0 0 1 2.272.484c.331.156.642.354.918.595.185.161.339.344.478.544.145.209.231.409.231.408.084.157.192.511.26.749.044.144.063.233.063.233C2.289 1.114 1.253.352 0 0" style="fill:#ec008c;fill-opacity:1;fill-rule:nonzero;stroke:none;stroke-width:.280671" transform="translate(168.629 1322.681)"/></g><g style="stroke-width:.280671"><path d="M0 0q0-.238-.019-.46a5.6 5.6 0 0 0-.347-1.419 3.58 3.58 0 0 0-1.628-1.916c-.642-.353-1.453-.537-2.418-.536l-1.115-.041v-.391l1.122.041c1.006 0 1.885.193 2.601.586A3.98 3.98 0 0 1 .001-2.014c.164.445.315.952.369 1.518Q.39-.249.389 0c0 .284-.012.572-.013.868L-.007.387Q-.001.188 0 0" style="fill:#bdbcbc;fill-opacity:1;fill-rule:nonzero;stroke:none;stroke-width:.280671" transform="translate(140.892 1333.452)"/></g><g style="stroke-width:.280671"><path d="M0 0c.77.487 1.223 1.337 1.4 2.182L.916 1.89C.715 1.258.337.671-.208.33A5 5 0 0 0-.754.044l.184-.346c.189.09.383.184.57.302" style="fill:#bdbcbc;fill-opacity:1;fill-rule:nonzero;stroke:none;stroke-width:.280671" transform="translate(158.058 1332.377)"/></g><g style="stroke-width:.280671"><path d="m0 0 .089-.043Q.44-.207.788-.372l.14-.068c.623-.292 1.725-.954 2.166-1.462l-.099.631c-.574.478-1.375.93-1.899 1.184l-.14.067Q.606.146.255.31L.167.352c-.672.31-1.552.663-2.016 1.209-.479.559-.816 1.292-.815 2.035.001.62.146 1.143.402 1.576l.066.728c-.547-.575-.861-1.361-.859-2.304.002-.862.383-1.672.91-2.289C-1.579.655-.65.307 0 0" style="fill:#bdbcbc;fill-opacity:1;fill-rule:nonzero;stroke:none;stroke-width:.280671" transform="translate(164.856 1331.264)"/></g><g style="stroke-width:.280671"><path d="M0 0c-.065-.623-.254-1.209-.673-1.662a2.1 2.1 0 0 0-.587-.443c-.471-.236-.991-.327-1.527-.327a6.7 6.7 0 0 0-1.279.14c-1.007.2-1.974.595-2.953.977l-.021.008.006.023.366 1.191-.287.394-.452-1.472-.058-.196-.053-.171.168-.067.189-.073c.975-.38 1.963-.786 3.02-.997a7 7 0 0 1 1.354-.147c.579 0 1.162.097 1.703.369.26.132.499.311.698.526.63.684.798 1.586.803 2.44z" style="fill:#bdbcbc;fill-opacity:1;fill-rule:nonzero;stroke:none;stroke-width:.280671" transform="translate(170.258 1327.267)"/></g><g style="stroke-width:.280671"><path d="m0 0 .222-.082.195-.073.127.427.345 1.102-.482-.233L.171.386.162.357.135.366A8.6 8.6 0 0 1-2.353.91l-.526-.371A8.2 8.2 0 0 0 0 0" style="fill:#bdbcbc;fill-opacity:1;fill-rule:nonzero;stroke:none;stroke-width:.280671" transform="translate(167.853 1336.057)"/></g><g style="stroke-width:.280671"><path d="M0 0c-.021-.472-.092-.908-.328-1.322-.291-.509-.683-.96-1.187-1.219a4.6 4.6 0 0 0-1.065-.384c-.498-.121-1.068-.174-1.912-.174h-.518v-.39h.518c.859 0 1.463.054 2.002.184.389.089.794.232 1.154.418.595.307 1.032.821 1.347 1.373.37.652.387 1.326.388 1.991z" style="fill:#bdbcbc;fill-opacity:1;fill-rule:nonzero;stroke:none;stroke-width:.280671" transform="translate(128.629 1348.054)"/></g><g style="stroke-width:.280671"><path d="M0 0h-.44c-1.112-2.107-2.091-3.388-3.652-4.809l.263-.289C-2.195-3.614-1.16-2.24 0 0" style="fill:#bdbcbc;fill-opacity:1;fill-rule:nonzero;stroke:none;stroke-width:.280671" transform="translate(156.1 1351.425)"/></g><g style="stroke-width:.280671"><path d="M0 0h-1.71c-1 1.358-2.927 3.704-4.183 5.201v-.609C-4.622 3.072-2.862.916-1.967-.309l.058-.081H.285z" style="fill:#bdbcbc;fill-opacity:1;fill-rule:nonzero;stroke:none;stroke-width:.280671" transform="translate(156.11 1341.236)"/></g><g style="stroke-width:.280671"><path d="M0 0h1.712l-.285.39H.391v9.724L0 10.556Z" style="fill:#bdbcbc;fill-opacity:1;fill-rule:nonzero;stroke:none;stroke-width:.280671" transform="translate(121.577 1340.846)"/></g><g style="stroke-width:.280671"><path d="M0 0v9.725l-.391.441V-.39h1.712L1.035 0Z" style="fill:#bdbcbc;fill-opacity:1;fill-rule:nonzero;stroke:none;stroke-width:.280671" transform="translate(131.694 1341.236)"/></g><g style="stroke-width:.280671"><path d="M0 0h1.518l-.285.39H.39v9.724l-.39.442Z" style="fill:#bdbcbc;fill-opacity:1;fill-rule:nonzero;stroke:none;stroke-width:.280671" transform="translate(136.011 1340.846)"/></g><g style="stroke-width:.280671"><path d="M0 0h-1.952l-5.021 8.819v-.79l4.794-8.418H.285z" style="fill:#bdbcbc;fill-opacity:1;fill-rule:nonzero;stroke:none;stroke-width:.280671" transform="translate(144.833 1341.236)"/></g><g style="stroke-width:.280671"><path d="M0 0v9.724l-.39.441V-.392h1.519l-.285.391z" style="fill:#bdbcbc;fill-opacity:1;fill-rule:nonzero;stroke:none;stroke-width:.280671" transform="translate(148.509 1341.237)"/></g><g style="stroke-width:.280671"><path d="m0 0-.389.442v-8.296L0-8.529Z" style="fill:#bdbcbc;fill-opacity:1;fill-rule:nonzero;stroke:none;stroke-width:.280671" transform="translate(144.001 1350.96)"/></g><g style="stroke-width:.280671"><path d="M0 0c-.29-.51-.682-.962-1.187-1.22a4.7 4.7 0 0 0-1.064-.385c-.499-.121-1.068-.174-1.912-.174h-.542v-.389h.542c.859-.001 1.462.053 2.002.183.388.09.794.233 1.153.418.596.306 1.032.82 1.347 1.374.343.602.382 1.224.388 1.84L.319 1.16C.288.75.209.365 0 0" style="fill:#bdbcbc;fill-opacity:1;fill-rule:nonzero;stroke:none;stroke-width:.280671" transform="translate(125.839 1333.582)"/></g><g style="stroke-width:.280671"><path d="M0 0v10.502l-.391.442V-.496l1.769.427-.25.341z" style="fill:#bdbcbc;fill-opacity:1;fill-rule:nonzero;stroke:none;stroke-width:.280671" transform="translate(119.491 1327.133)"/></g><g style="stroke-width:.280671"><path d="M0 0v8.99l-.391.442V-.431l1.831.178-.002.014-.257.353Z" style="fill:#bdbcbc;fill-opacity:1;fill-rule:nonzero;stroke:none;stroke-width:.280671" transform="translate(129.209 1328.645)"/></g><g style="stroke-width:.280671"><path d="M0 0v8.603l-.39.442V-.371l5.808-.312-.297.406Z" style="fill:#bdbcbc;fill-opacity:1;fill-rule:nonzero;stroke:none;stroke-width:.280671" transform="translate(143.944 1329.032)"/></g><g style="stroke-width:.280671"><path d="m0 0-3.27.055-.008-.389L.289-.395Z" style="fill:#bdbcbc;fill-opacity:1;fill-rule:nonzero;stroke:none;stroke-width:.280671" transform="translate(148.68 1333.062)"/></g><g style="stroke-width:.280671"><path d="m0 0-3.452.017-.002-.39 3.74-.019z" style="fill:#bdbcbc;fill-opacity:1;fill-rule:nonzero;stroke:none;stroke-width:.280671" transform="translate(148.859 1337.347)"/></g><g style="stroke-width:.280671"><path d="M0 0v9.291l-.391.442V-.339L1.338-.58l.001.012-.311.425z" style="fill:#bdbcbc;fill-opacity:1;fill-rule:nonzero;stroke:none;stroke-width:.280671" transform="translate(152.393 1328.344)"/></g><g style="stroke-width:.280671"><path d="M0 0h.391v9.048L0 9.49Z" style="fill:#bdbcbc;fill-opacity:1;fill-rule:nonzero;stroke:none;stroke-width:.280671" transform="translate(133.578 1328.586)"/></g><g style="stroke-width:.280671"><path d="m0 0-2.279 4.014h-.449L-.257-.338l2.324-.585-.36.493z" style="fill:#bdbcbc;fill-opacity:1;fill-rule:nonzero;stroke:none;stroke-width:.280671" transform="translate(158.165 1327.357)"/></g><g style="stroke-width:.280671"><path d="M0 0q.16.093.413.17c.011.003.599.179 1.292.241q.251.024.477.024c.358 0 .664-.044.914-.123l.22-.07.201-.063.45 1.884a6 6 0 0 1-.392.044L3.234.678l-.02.006q-.448.141-1.032.141-.245 0-.514-.025C.929.732.335.554.293.542L.232.521l-.233-.52z" style="fill:#bdbcbc;fill-opacity:1;fill-rule:nonzero;stroke:none;stroke-width:.280671" transform="translate(112.08 1336.093)"/></g><g style="stroke-width:.280671"><path d="m0 0 .594 2.173a2 2 0 0 0-.431-.099L-.549-.529l.619.144c.292.08 5.722 1.464 7.509 5.003l-.61-.298C5.13 1.408.411.093 0 0" style="fill:#bdbcbc;fill-opacity:1;fill-rule:nonzero;stroke:none;stroke-width:.280671" transform="translate(108.669 1323.285)"/></g><g style="stroke-width:.280671"><path d="M0 0c.092-.199.437-.836 1.264-1.349.758-.441 1.605-.542 2.373-.688l.217-.041-.45.48c-.684.124-1.363.247-1.938.583C.726-.555.425.012.355.161L.309.27a3 3 0 0 0-.136 1.149c.065.447.201.922.404 1.309l.083.774c-.504-.509-.762-1.306-.875-2.034A3.322 3.322 0 0 1-.059.14 2 2 0 0 1 0 0" style="fill:#bdbcbc;fill-opacity:1;fill-rule:nonzero;stroke:none;stroke-width:.280671" transform="translate(109.066 1332.693)"/></g></g></svg>