<svg xmlns="http://www.w3.org/2000/svg" xml:space="preserve" width="80" height="68" fill="none" viewBox="0 0 80 68"><path d="M16.175 9.06c4.403.47 15.038-.515 25.102-7.955 2.635 2.121 10.643 7.864 25.058 8.087-1.693 3.225-2.16 7.546-2.386 10.828l15.114.066-4.485 5.723-2.475-.022-.022.288 2.607.42v5.723l-2.563-.354v.398l3.138.751.088 6.143c-4.023-1.408-7.754-2.29-11.49-3.182 1.604 7.33-.384 11.456-3.094 14.938-4.261 4.73-11.306 8.011-16.396 11.844l-3.182 3.138-2.298-2.343c-3.583-3.214-9.238-6.04-13.435-9.148-.168-.684-9.679-5.147-6.856-18.446-3.903.718-7.657 2.02-11.507 3.11l.022-14.186-3.734-4.839 15.092.022z" style="display:inline;fill:#fff;fill-opacity:1;stroke-width:.944882"/><g style="display:inline"><path fill="#fff" d="M41.195 7.133c6.809 4.546 15.32 5.556 19.94 5.893 0 0-.243 2.104-.324 6.145h1.54c.324-6.23 1.54-9.176 1.54-9.176-9.484.084-19.94-5.304-22.696-7.745-2.756 2.441-13.212 7.83-22.777 7.83 0 0 1.216 2.946 1.54 9.175h1.54c-.08-4.125-.324-6.145-.324-6.145 4.701-.505 13.131-1.431 20.021-5.977z" style="fill:#4db847;fill-opacity:1"/><path fill="#fff" d="M60.082 36.597c-6.241-1.347-12.563-2.105-18.886-2.105-6.322 0-12.645.674-18.886 2.105-1.378 7.913 2.999 10.86 11.024 15.742 1.053.674 6.403 3.031 7.862 4.21 1.46-1.179 6.809-3.536 7.863-4.21 8.024-4.882 12.401-7.829 11.023-15.742z" style="fill:#092d74;fill-opacity:1"/><path fill="#fff" d="M41.196 65.136c8.268-8.924 24.642-11.197 21.156-27.95-.405-.084-.892-.252-1.297-.336 2.756 13.806-12.483 16.837-19.94 23.235-7.457-6.398-22.615-9.43-19.94-23.235-.405.084-.892.168-1.297.336-3.323 16.753 12.97 19.026 21.318 27.95z" style="display:inline;fill:#092d74;fill-opacity:1"/><path fill="#000" d="M41.197 37.775c-5.512 0-9.97 4.63-9.97 10.355 0 1.094.162 2.189.486 3.2.081 0 .162.083.162.083a9.822 9.822 0 0 1-.405-2.694v-.336c.405-1.684 1.134-2.863 2.107-3.62.162-.084.162 0 .162.252-.243 1.516-.324 4.883 2.108 7.83-2.108-3.536-1.783-6.82-1.46-8.166.082-.253.244-.506.568-.59.486-.168.973-.252 1.54-.336.487 0 .487.42.487.505 0 2.02.324 7.492 3.89 10.607-2.999-3.367-3.242-8.755-3.16-10.607 0-.253.161-.505.566-.505 1.297.084 2.513.505 3.08.757-.08 1.684.487 6.482 3.486 8.84-.973-1.01-1.621-2.273-2.026-3.536v-.084c-.081-.337.162-.59.486-.674 1.783-.59 5.107-2.189 6.403-5.05.649 1.178 1.054 2.44 1.135 3.787-.243.758-1.053 2.105-4.296 3.873.81-.253 3.324-1.179 4.377-2.862v.084c0 .926-.162 1.852-.324 2.694.081 0 .162-.084.162-.084.324-1.01.487-2.02.487-3.115 0-5.977-4.54-10.608-10.051-10.608zm0 .926c2.026 0 3.89.674 5.43 1.684-.162.337-.405.59-.648.926-.243.168-.568.168-.73 0-1.459-.926-5.593-2.441-9.321-.926 1.459-1.094 3.323-1.684 5.269-1.684zM31.713 46.7c.405-2.273 1.621-4.21 3.242-5.64 3.89-1.852 8.106-.337 9.727.673.162.084.243.505 0 .674-1.054.757-2.27 1.262-2.837 1.43-1.54-.757-7.944-2.44-10.132 2.863zm11.267 1.6c-.243.084-.568-.169-.568-.337-.243-1.516-.243-2.863-.243-3.536.892-.42 3.729-1.515 4.783-3.788.972.757 1.783 1.6 2.431 2.61-1.378 3.03-4.62 4.545-6.403 5.05z" style="fill:#fff;fill-opacity:1"/><path fill="#fff" d="M51.085 15.888v-.673H48.41v3.367h2.675v-.673H49.14v-.674h1.702v-.673H49.14v-.674z" style="display:inline;fill:#092d74;fill-opacity:1"/><path fill="#fff" d="M57.651 18.582h-1.945c-.486 0-.73-.252-.73-.757v-1.852c0-.506.244-.758.73-.758h1.945v.673H55.95c-.162 0-.162.085-.162.169v1.683c0 .169.081.169.162.169h1.784v.673zM54.004 17.656l.486-.589-.486-.42-.486.504-.973-1.01v-.253h.405v.421h.649v-.505c0-.505-.325-.673-.568-.673h-.73c-.323 0-.567.168-.567.59v.336c0 .168.081.42.244.59l-.325.252a.778.778 0 0 0-.243.589v.337c0 .589.324.673.649.673h.73c.242 0 .404-.084.485-.252l.163-.169.405.421h.892zm-.892 0-.162.169-.08.084h-.487c-.081 0-.081 0-.081-.084v-.337c0-.084 0-.084.08-.168l.325-.253zM26.93 16.478h-1.54v-1.263h-.648v3.367h.649v-1.43h1.54v1.43h.73v-3.367h-.73zM42.412 15.383c-.162.169-.162.421-.162.505v2.694h.73v-1.094h1.54v1.094h.73v-3.367h-2.27c-.163 0-.406 0-.568.168zm.81.505h1.298v1.01h-1.54v-.925c.08-.085.162-.085.243-.085zM37.387 15.215h-2.27v3.367h.73v-2.694H37.387v2.694h.73v-2.694c0-.168 0-.336-.163-.505-.162-.168-.324-.168-.567-.168zM33.915 17.909h-1.553v-2.694h-.73v3.367h2.27c.244 0 .406 0 .568-.168.162-.168.162-.421.162-.505v-2.694h-.73c-.01.89-.005 1.807.013 2.694zM41.683 15.888s0-.336-.162-.505c-.163-.168-.325-.168-.568-.168h-2.27v3.367h2.19c.242 0 .515-.016.677-.185.162-.168.14-.5.14-.5zm-.73 2.02h-1.54v-2.02H40.953v.169zM29.605 16.646l-.892-1.431h-.81l1.296 2.105v1.262h.81V17.32l1.298-2.104h-.81zM46.71 15.215h-.73v3.367h.73zM26.85 21.445H22.88s1.054.59 1.054 2.02v10.019c1.702-.253 3.242-.505 4.944-.674v-1.936c-.73.084-1.378.168-2.107.253v-9.682zM32.847 21.445h-3.972s1.054.505 1.054 1.852v9.345c1.702-.169 3.323-.337 5.025-.421v-1.852c-.73 0-1.378.084-2.107.084zM19.23 23.634V34.41c.972-.169 1.945-.421 2.918-.59V21.446h-3.972s1.054.59 1.054 2.19zM14.529 27.338c-.973.084-2.108.253-3.162.337v-6.23H6.504L8.53 24.14v13.133c.973-.337 1.946-.59 2.918-.926v-6.145c.973-.169 2.108-.337 3.162-.506v5.81c.972-.253 1.945-.506 2.918-.674V21.445h-3zM40.954 21.445h-6.079s1.135.505 1.135 1.852v2.02c0 .674.324 1.011 1.054 1.348 1.134.505 1.945.842 2.999 1.347.243.168.324.337.324.42v1.516c0 .253-.162.337-.487.42h-.567c-.324 0-.486-.167-.486-.336v-1.178c-.892 0-1.865 0-2.756.084v1.852c0 1.01.567 1.515 1.864 1.431 1.054 0 2.027-.084 3.08-.084 1.297 0 2.108-.505 2.108-1.516v-2.44c0-.422-.162-1.011-1.054-1.516a48.871 48.871 0 0 0-3.08-1.347c-.243-.084-.324-.169-.324-.337v-1.263c0-.252.162-.42.486-.42h.81c.325 0 .487.168.487.336v.842h2.594v-1.515c-.081-.926-.81-1.516-2.108-1.516z" style="fill:#092d74;fill-opacity:1"/><path fill="#fff" d="M42.98 21.445s1.135.505 1.135 1.768h1.54v8.924c.973.084 1.946.084 2.918.168v-9.008h1.54v-1.852zM58.95 21.445s1.134.59 1.134 2.105c.486 0 1.054 0 1.54.084.081 3.536 0 10.523 0 10.523.973.169 1.945.421 2.918.59V23.718c.487 0 1.054 0 1.54.085v-2.358zM56.92 21.445h-6.322s1.134.505 1.134 1.852v9.345c.892.084 1.865.168 2.756.337v-4.125c.649.084 1.216.084 1.865.168v4.21c.972.168 1.864.252 2.756.42V23.13c0-1.01-.81-1.684-2.189-1.684zm-.567 5.556c-.649-.084-1.216-.084-1.865-.084v-3.535h1.216c.405 0 .649.168.649.505v3.115zM73.86 24.14l2.027-2.695h-9.403s1.135.674 1.135 2.357V35.42c1.054.253 5.107 1.431 6.242 1.852v-2.694c-1.054-.252-2.27-.59-3.405-.842v-3.62c.892.169 1.783.337 2.675.421v-2.694c-.892-.084-1.783-.252-2.675-.336v-3.62c1.216.168 2.35.168 3.405.252z" style="display:inline;fill:#092d74;fill-opacity:1"/></g></svg>