<svg xmlns="http://www.w3.org/2000/svg" xml:space="preserve" width="723.17px" height="744.672px" x="0px" y="0px" viewBox="0 0 723.17 744.672"><path fill="#FFF" d="m188.841 158.336 52-12 24-3 29-18 22-19 20-17 14-19 22-19 17-19 20-15 29-11h31l37 11 27 17 22 25 14 34 2 37-10 36 30 18v299l-18 65-29 44-46 37-60 46-76.256 58-54.744-43-66-54-61-47-42-74v-343z"/><path fill="#0091D7" d="M214.603 588.492V480.883c-22.42 1.909-41.296 3.915-55.273 5.546 5.854 41.598 25.882 79.168 55.273 102.063M273.175 632.787l58.573 44.216V474.651a1722.242 1722.242 0 0 0-58.573 2.157v155.979zM390.32 677.84l58.572-44.217V476.749a1717.17 1717.17 0 0 0-58.572-2.118V677.84zM507.464 589.39c30.005-22.806 50.452-60.832 56.38-102.962-14.208-1.657-33.469-3.702-56.38-5.64V589.39zM157.502 194.47v35.073l54.961-48.972c-18.472 3.682-37.124 8.235-54.961 13.899M314.654 167.275c-3.625.256-7.432.551-11.355.875l-30.124 13.386-58.572 26.028-57.1 25.374v19.883c.617.058 1.237.13 1.854.187 4.209.389 8.201 1.307 11.991 2.625l43.255-26.67 58.572-36.113 41.479-25.575zM277.354 260.773c1.252.048 2.514.074 3.767.121l50.626-29.794 46.751-27.513-46.751 19.024-58.573 23.835-31.123 12.665c.464.025.931.058 1.396.083 6.557.355 12.388 3.199 16.699 7.536a25.485 25.485 0 0 1 13.028-5.675c1.38-.178 2.768-.324 4.18-.282M378.621 203.538l-.122.05.334.158c-.072-.068-.141-.14-.212-.208M553.179 190.737c-3.915 5.01-8.161 9.839-12.988 14.291-9.921 9.146-21.022 16.154-32.727 21.28a117.61 117.61 0 0 1-33.357 9.059l.309.079-25.523 4.176-58.572 9.584-55.529 9.086 55.529-27.577 15.53-7.713c-.358-.185-.72-.364-1.076-.553l-14.454 5.147-58.572 20.859-36.224 12.9c12.06.364 24.136.655 36.224.82 19.584.266 39.154.281 58.572.029.379-.006.761-.003 1.139-.009 5.432-.021 10.487 1.568 14.763 4.502 6.295-3.225 13.348-5.052 20.972-5.283 7.204-.216 14.46-.555 21.699-.845 18.477-.741 36.991-1.632 55.333-2.835 1.095-.076 2.163-.054 3.239-.06 10.276-.062 19.695 2.996 27.359 8.769 7.906-7.768 17.928-12.404 29.303-13.463.512-.048 1.031-.108 1.545-.156V194.47a432.401 432.401 0 0 0-12.494-3.733"/><path fill="#004B9C" d="M709.264 434.394c-5.481-2.95-18.231-11.424-18.233-26.426 0-.815-.04-1.63-.118-2.438l.02-28.095c.157-14.194-3.332-26.303-10.384-36.012 6.479-4.664 10.656-12.277 10.631-20.818l-.036-10.642c.75-14.166 12.929-22.212 18.171-25.027 8.818-4.743 14.467-14.435 13.801-24.426a25.545 25.545 0 0 0-9.513-18.233c-5.586-4.473-12.792-6.417-19.866-5.311a2138.332 2138.332 0 0 1-52.914 7.485c-3.464.455-6.925.893-10.372 1.321-4.944.613-9.928 1.151-14.894 1.732-4.62.542-9.229 1.101-13.855 1.612v-80.184l-7.246-2.675c-7.632-2.817-15.448-5.397-23.351-7.803 1.578-4.359 2.967-8.769 4.017-13.256 8.63-36.859-.561-77.205-28.154-107.132-44.233-47.977-118.985-51.011-166.962-6.777l-99.653 88.794-17.883 15.933c-41.693 5.167-90.459 14.255-133.749 30.241l-7.245 2.675v80.185c-4.638-.512-9.238-1.07-13.857-1.61-4.952-.582-9.943-1.119-14.859-1.73l-10.114-1.281a2187.607 2187.607 0 0 1-53.214-7.53 25.5 25.5 0 0 0-19.976 5.4 25.534 25.534 0 0 0-9.417 18.425c-.551 9.883 5.141 19.469 13.859 24.173 5.476 2.95 18.214 11.429 18.242 26.274l-.23 99.602c-1.494 13.715-14.151 21.497-18.053 23.587-8.959 4.789-14.59 14.632-13.778 24.758a25.547 25.547 0 0 0 9.614 17.997c1.394 1.103 2.909 1.989 4.474 2.769l-.06.038.719.254 4.547 1.602 94.592 33.32 15.709 5.533c5.869 20.73 14.788 40.024 26.356 57.068a179.224 179.224 0 0 0 10.778 14.249c8.215 9.833 17.373 18.733 27.496 26.377l20.299 15.323 8.278 6.249 50.294 37.966 8.142 6.146 80.271 60.596 80.271-60.596 7.033-5.31 44.171-33.345 14.401-10.871 21.406-16.159c9.111-6.88 17.452-14.769 25.025-23.439 4.299-4.921 8.374-10.071 12.142-15.493 12.126-17.446 21.401-37.354 27.462-58.762l15.71-5.533 94.64-33.337 4.402-1.551.816-.288-.074-.047c1.65-.822 3.249-1.76 4.706-2.939a25.552 25.552 0 0 0 9.433-18.396c.564-9.907-5.128-19.515-13.868-24.212M558.091 79.777c7.722 19.779 9.172 41.369 4.54 61.793a105.238 105.238 0 0 1-3.947 13.274 104.562 104.562 0 0 1-6.726 14.571 102.9 102.9 0 0 1-2.458 4.208c-.308.497-.635.985-.952 1.478-1.904 2.961-3.919 5.87-6.147 8.663-.44.07-1.049.157-1.798.243-2.83.325-7.788.605-13.882-.018a67.715 67.715 0 0 1-14.363-3.096c-.888-.294-1.763-.55-2.666-.892-.114-.044-.228-.093-.342-.137l.249-.229a148.842 148.842 0 0 0 6.109-6.012 164.18 164.18 0 0 0 8.424-9.42 170.504 170.504 0 0 0 10.935-14.743c.104-.159.211-.34.314-.5a152.323 152.323 0 0 0 7.345-12.491c6.801-12.916 12.807-28.89 14.717-47.106.329-3.137.581-6.32.648-9.586m-192 85.52c-1.683-3.358-3.199-6.77-4.498-10.252-.002-.002-.002-.005-.002-.008-.163-.435-.38-.854-.536-1.291.147-.205.352-.479.536-.732l.003-.004c.345-.469.747-1.004 1.22-1.618a104.09 104.09 0 0 1 2.064-2.589 118.4 118.4 0 0 1 4.64-5.282 117.254 117.254 0 0 1 7.092-7.027c1.01-.917 2.045-1.838 3.14-2.759a83.743 83.743 0 0 0 1.082 9.331c.328 1.919.813 3.827 1.274 5.737.253 1.048.433 2.1.725 3.143 1.332 4.751 3.171 9.454 5.314 14.116.699 1.521 1.39 3.042 2.175 4.551 5.794 11.143 13.846 21.95 24.155 32.149 7.464 7.384 14.887 13.304 20.945 17.667-3.345-.801-6.64-1.829-9.905-2.96a104.634 104.634 0 0 1-35.195-20.594c-2.62-2.32-5.174-4.75-7.597-7.378-6.841-7.42-12.324-15.597-16.632-24.2m12.742 38.448-.334-.158-46.751 27.513-50.626 29.794c-1.254-.047-2.515-.073-3.767-.121-1.412-.042-2.801.104-4.18.282a25.488 25.488 0 0 0-13.029 5.675c-4.31-4.337-10.141-7.181-16.699-7.536-.464-.025-.931-.058-1.396-.083l31.124-12.665 58.573-23.835 46.751-19.024.122-.05c.071.069.14.14.212.208m40.361-6.012c-8.009-7.942-16.812-18.535-23.273-31.263a91.237 91.237 0 0 1-5.601-13.61l-.182-.575a85.169 85.169 0 0 1-1.004-3.482 79.839 79.839 0 0 1-1.329-6.018 76.92 76.92 0 0 1-1.202-11.14c-.018-.487-.043-.972-.051-1.463-.002-.111-.01-.219-.011-.33-.004-.355-.037-.7-.036-1.057.002-.077-.013-.149-.021-.223a.535.535 0 0 1-.005-.055l.031-.024c7.104-5.043 14.334-8.806 21.663-11.323a71.308 71.308 0 0 1 7.022-2.032c.107.721.253 1.604.419 2.551.604 3.446 1.639 8.306 3.347 14.129 1.205 4.107 2.789 8.701 4.761 13.576.36.891.719 1.779 1.107 2.688.96 2.239 2.009 4.524 3.156 6.855.21.427.381.838.598 1.267 2.38 4.716 5.08 9.158 7.921 13.468 3.755 5.694 7.87 11.045 12.388 15.977 2.023 2.208 4.069 4.391 6.238 6.437 11.422 10.77 24.874 19.247 40.064 25.283-1.585.558-3.21.936-4.813 1.416-.922.276-1.862.451-2.79.702-11.612 3.147-23.603 4.456-35.497 3.552-.542-.306-1.719-1-3.202-1.913-5.775-3.558-17.753-11.549-29.698-23.393m40.785-10.55c-3.981-3.744-7.629-7.865-11.087-12.182-1.158-1.448-2.334-2.876-3.432-4.384-3.401-4.674-6.475-9.665-9.268-14.901-.432-.807-.92-1.563-1.336-2.383a132.04 132.04 0 0 1-2.501-5.25c-.178-.39-.359-.782-.531-1.17a137.411 137.411 0 0 1-5.442-14.486c-1.786-5.696-2.93-10.574-3.627-14.184a116.18 116.18 0 0 1-.759-4.322c10.487-1.326 21.15-.142 31.932 3.559.351 1.341.744 2.625 1.12 3.933 1.466 5.096 3.118 9.943 4.966 14.521 2.634 6.526 5.647 12.522 9.04 17.952a95.637 95.637 0 0 0 3.517 5.247c.25.348.49.712.744 1.054a87.459 87.459 0 0 0 3.568 4.507c3.925 4.616 8.25 8.593 12.875 12.046 5.398 4.029 11.215 7.32 17.483 9.705.076.029.148.049.224.078 11.193 4.215 21.44 4.934 28.343 4.734a107.036 107.036 0 0 1-4.37 4.275c-4.594 4.236-9.49 7.928-14.578 11.19-3.059 1.96-6.201 3.719-9.395 5.346-.932.475-1.849.991-2.793 1.433-17.195-5.751-32.231-14.602-44.693-26.318m77.493-140.365a105.347 105.347 0 0 1 12.915 17.248c3.553 28.33-4.842 52.868-14.599 70.804a147.746 147.746 0 0 1-6.354 10.609c-.428.649-.86 1.229-1.29 1.861a164.21 164.21 0 0 1-15.52 19.492 151.676 151.676 0 0 1-5.16 5.281c-2.235 2.182-4.018 3.793-4.978 4.624-.175-.092-.338-.21-.513-.304-6.827-3.682-12.996-8.634-18.467-14.729-.45-.503-.931-.958-1.372-1.476-.299-.351-.576-.737-.87-1.096-.739-.906-1.48-1.81-2.193-2.76.142-.133.373-.359.534-.511 2.689-2.526 7.909-7.733 14.005-15.09 3.016-3.641 6.2-7.8 9.413-12.433 2.244-3.237 4.485-6.622 6.649-10.292 8.298-14.072 13.713-28.231 16.094-42.086 2.111-12.283 1.678-24.304-.978-35.95-.454-1.99-.829-3.995-1.421-5.962a105.354 105.354 0 0 1 14.105 12.77m-23.664-19.169c.041.161.089.322.154.481 6.086 14.778 7.779 30.442 5.027 46.558-2.221 13.008-7.32 26.362-15.16 39.693a160.86 160.86 0 0 1-8.309 12.687 177.514 177.514 0 0 1-9.885 12.424c-4.494 5.176-8.338 9.045-10.526 11.132-.133-.208-.245-.448-.376-.658-2.475-3.987-4.692-8.376-6.746-13.01-2.028-4.575-3.846-9.46-5.449-14.652-.654-2.117-1.324-4.21-1.907-6.428 3.601-3.706 13.059-14.203 20.847-29.462 11.189-21.922 14-44.514 8.518-65.945-.292-1.145-.503-2.3-.845-3.438a104.782 104.782 0 0 1 24.657 10.618m-112.303 3.226c13.034-8.759 27.558-14.18 42.447-16.506 3.095-.483 6.196-.846 9.314-1.051l.084-.004c3.027-.198 6.055-.299 9.085-.235.702.012 1.402.088 2.104.114 2.4.099 4.799.192 7.189.455 3.198.339 6.384.818 9.545 1.464 2.516 7.064 4.022 14.216 4.521 21.431-1.237-.401-2.442-.741-3.661-1.106-24.193-7.257-44.566-7.798-60.452-5.867-.046.005-.094.009-.139.015-6.624.814-12.546 2.009-17.506 3.4a110.739 110.739 0 0 0-10.148 3.373c2.459-1.994 5.034-3.749 7.617-5.483m-43.717 62.941c3.452-14.608 10.004-28.598 19.688-40.855.037-.029.076-.055.113-.085.018-.015.468-.361 1.122-.834l.053-.038c2.993-2.162 12.184-8.191 27.137-12.382a106.822 106.822 0 0 1 7.163-1.736l.005-.001c2.037-.422 4.198-.801 6.455-1.135.149-.021.289-.047.439-.068 2.154-.31 4.419-.562 6.766-.762.352-.032.699-.061 1.056-.089 2.328-.18 4.74-.301 7.247-.348.365-.007.738-.006 1.107-.01 2.618-.027 5.306.004 8.108.146.077.005.159.013.236.017 2.747.145 5.597.399 8.516.733.398.047.784.08 1.185.13 2.864.352 5.82.82 8.843 1.379a159.364 159.364 0 0 1 11.05 2.45c.503.131 1.015.28 1.521.416 3.381.912 6.82 1.922 10.362 3.119-.23 9.348-2.129 18.792-5.696 28.291-.758-.272-1.511-.436-2.268-.693-16.899-5.764-33.75-8.163-50.157-6.919-12.444.943-24.613 4.03-36.318 8.95l-.156.067c-1.802.761-3.623 1.445-5.401 2.298a124.475 124.475 0 0 0-8.91 4.737 129.24 129.24 0 0 0-8.328 5.288 123.123 123.123 0 0 0-11.146 8.662c.054-.245.149-.481.208-.728m-2.183 12.223c1.507-1.644 7.777-8.106 17.897-15.005.939-.641 2.04-1.284 3.041-1.927 3.648-2.349 7.613-4.69 12.143-6.881.184-.088.333-.187.518-.275 12.575-5.996 25.811-9.544 39.339-10.547 16.01-1.187 32.506 1.214 49.082 7.126a112.972 112.972 0 0 1-2.187 4.553c-7.188 14.152-16.104 24.173-19.552 27.775-.332-.113-.664-.167-.996-.274-20.842-6.779-41.857-4.749-61.577 5.721a96.372 96.372 0 0 0-7.994 4.786c-.071.046-.142.087-.212.134-.858.572-1.735 1.042-2.588 1.646-.308.219-.587.445-.89.665a114.074 114.074 0 0 0-7.42 5.884c-.025.023-.058.045-.083.066a121.33 121.33 0 0 0-12.53 12.531c-.111.127-.197.236-.306.363-.456.53-.873 1.028-1.283 1.523-.473.57-1.064 1.235-1.476 1.752-.121-.447-.182-.905-.296-1.353-.027-.107-.041-.217-.067-.324-.017-.064-.024-.13-.04-.193-1.194-4.784-1.972-9.638-2.496-14.513-.495-4.605-.784-9.224-.672-13.844.077-3.136.285-6.27.645-9.389m-211.959 78.429c4.077-1.409 8.218-2.737 12.384-4.028a477.183 477.183 0 0 1 24.23-6.817c11.408-2.888 22.928-5.386 34.343-7.572a711.386 711.386 0 0 1 17.696-3.154l-17.696 15.768-2.139 1.905-54.961 48.972-1.473 1.312-6.129 5.461 6.129-2.724 1.473-.653 57.1-25.374 58.572-26.028 30.124-13.386 28.449-12.643 7.127-3.167-7.127 4.395-17.094 10.54-41.479 25.574-58.572 36.114-43.255 26.669c-3.79-1.318-7.782-2.235-11.991-2.625-.617-.057-1.237-.128-1.854-.186-.49-.046-.983-.103-1.473-.149-4.122-.391-8.253-.834-12.384-1.249v-66.955zm422.392 348.338c-9.77 24.462-24.551 45.87-43.43 62.146a141.458 141.458 0 0 1-7.094 5.74l-8.05 6.076-51.202 38.653-7.37 5.563-43.834 33.091-14.738 11.127-17.337 13.087-11.395 8.602-11.395-8.602-18.446-13.925-13.63-10.289-44.943-33.928-13.493-10.185-45.079-34.031-6.943-5.24c-3.579-2.702-6.982-5.638-10.299-8.678-18.053-16.545-32.134-37.873-41.331-62.105-5.005-13.189-8.542-27.229-10.514-41.804 3.034-.385 6.52-.816 10.514-1.291 1.056-.125 2.18-.256 3.299-.387 13.977-1.629 32.853-3.636 55.274-5.545V588.49c.476.37.926.779 1.407 1.142l57.165 43.153V476.809a1722.242 1722.242 0 0 1 58.573-2.157v202.352l29.841 22.526 28.731-21.689v-203.21a1717.17 1717.17 0 0 1 58.572 2.118v156.874l58.272-43.989c.103-.077.197-.166.3-.244V480.788c22.911 1.938 42.172 3.982 56.38 5.64.744.086 1.478.173 2.193.257 4.437.524 8.318 1.002 11.62 1.421-2.115 15.643-6.019 30.678-11.618 44.7m13.49-281.383c-4.498.453-9.015.941-13.49 1.363l-.366.038c-.513.047-1.033.108-1.545.156-11.375 1.059-21.396 5.694-29.303 13.462-7.664-5.773-17.082-8.831-27.359-8.769-1.076.007-2.145-.016-3.239.06-18.343 1.203-36.856 2.095-55.333 2.835-7.239.291-14.495.629-21.699.846-7.624.231-14.677 2.058-20.972 5.283-4.275-2.934-9.331-4.524-14.763-4.503-.378.006-.76.003-1.139.009a2208.07 2208.07 0 0 1-58.572-.028c-12.087-.165-24.164-.457-36.224-.82l36.224-12.9 58.572-20.859 14.454-5.148c.356.189.718.369 1.076.554l-15.53 7.713-55.529 27.577 55.529-9.087 58.572-9.583 25.523-4.177-.309-.078a117.594 117.594 0 0 0 33.357-9.06c11.704-5.125 22.806-12.134 32.727-21.28 4.827-4.451 9.073-9.281 12.988-14.291 3.032-3.88 5.852-7.873 8.334-12.028 1.518.449 3.016.927 4.524 1.391 4.541 1.395 9.054 2.835 13.49 4.369v66.955zM411.398 39.728l-.005.006.005-.006M388.474 83.041l-.002.005.002-.005"/><path fill="#FFF" d="M302.558 508.025h10.349v58.766h-10.349zM346.914 567.901c-7.541 0-15.451-.736-21.438-1.698v-58.178h24.542c12.418 0 16.41 8.648 16.41 16.116 0 4.73-1.923 9.61-7.097 12.341 5.47 1.852 9.02 8.133 9.02 13.528 0 11.979-8.648 17.891-21.437 17.891m-11.088-34.523h12.715c5.47 0 7.687-4.061 7.687-9.236 0-5.77-2.808-9.61-7.835-9.61h-12.566v18.846zm0 27.204c3.03.517 7.17.813 11.088.813 7.391 0 11.089-4.879 11.089-11.385 0-6.28-4.583-10.127-9.61-10.127h-12.566v20.699zM387.206 566.791h-10.349v-58.766h10.349v25.501l18.924-25.501h11.976l-20.772 27.572c3.77 1.627 6.8 4.512 9.165 8.28l14.119 22.913H409.16l-12.124-19.588c-2.439-4.138-5.321-6.803-9.388-6.803h-.442v26.392z"/><path fill="#EB6900" d="M179.534 276.904c-.741-.913-1.575-1.681-2.41-2.446-3.482-3.194-7.76-5.124-12.855-5.693-.172-.019-.322-.075-.497-.092-.325-.03-.649-.068-.975-.098-1.639-.153-3.276-.339-4.915-.495-2.49-.239-4.979-.507-7.468-.753-7.393-.733-14.786-1.455-22.173-2.263-4.621-.506-9.237-1.078-13.856-1.613-6.014-.697-12.033-1.354-18.042-2.1-3.4-.426-6.801-.857-10.201-1.293a2190.766 2190.766 0 0 1-53.839-7.618c-.011.2 32.078 14.828 32.141 49.094-.08 33.56-.155 67.132-.23 100.714-2.399 31.315-31.922 44.997-31.911 45.137l17.134 7.18 28.779 12.061 38.323 16.061 14.93 6.256 7.855 3.292-8.298-5.701-15.349-10.546-17.459-11.995-17.955-12.336-13.508-9.28a2156.69 2156.69 0 0 1 29.588-3.896 1969.52 1969.52 0 0 1 13.729-1.664l.207-54.411c1.367-.061 2.738-.111 4.106-.171 4.615-.201 9.236-.387 13.856-.577 3.615-.147 7.225-.309 10.842-.45-.064 17.466-.121 34.932-.185 52.409 3.836-.402 7.678-.702 11.516-1.083 4.126-.41 8.255-.778 12.383-1.165.491-.045.982-.092 1.472-.138 4.212-.392 8.421-.82 12.635-1.188 2.695-.234 5.386-.535 8.082-.76.11-44.638.219-89.259.334-133.87.121-7.507-1.801-13.642-5.782-18.501-.001-.005-.003-.006-.004-.008m-40.411 83.432c-3.63.046-7.254.101-10.882.149-4.619.063-9.24.125-13.856.192-1.363.019-2.727.036-4.089.056l.225-76.021c1.288.114 2.576.209 3.864.322 4.617.4 9.237.772 13.856 1.152 3.695.303 7.388.633 11.083.922-.064 24.401-.133 48.81-.201 73.228M279.942 405.215c-10.511.315-21.025.579-31.529 1.006.106-33.714.217-67.412.327-101.11.034-10.056.065-20.12.098-30.174-9.161-.497-18.313-1.168-27.468-1.779-5.021-.336-10.045-.606-15.064-.976-1.211-.089-2.425-.143-3.636-.235l-.041 14.371-.408 141.596c2.768-.21 5.54-.336 8.308-.534 3.612-.259 7.227-.456 10.841-.696a2199.45 2199.45 0 0 1 58.572-3.124c3.963-.157 7.925-.36 11.889-.498 2.864-.1 5.726-.271 8.59-.359.018-6.046.029-12.098.046-18.144-2.889.067-5.775.201-8.665.276-3.954.103-7.906.26-11.86.38M392.433 278.011c-17.973.195-35.946.189-53.919-.054a2213.665 2213.665 0 0 1-55.376-1.428c.006 6.095.006 12.192.006 18.288 11.519.336 23.044.599 34.569.801l-.004.945-.021 6.276-.282 82.719-.062 18.301-.063 18.386c2.894-.066 5.787-.053 8.68-.108 4.185-.081 8.369-.102 12.553-.158 8.337-.112 16.674-.3 25.01-.315.138-40.118.275-80.236.414-120.349l.017-5.265c7.893.011 15.786-.052 23.68-.103 3.15-.021 6.3-.012 9.452-.042.483-.005.967-.001 1.45-.006.012-5.979.028-11.957.04-17.93-.497.006-.993.004-1.49.009-1.551.02-3.103.016-4.654.033M528.461 278.988c-.026-.029-.06-.045-.086-.072-3.604-3.758-8.364-5.485-14.144-5.432-.529.004-1.014-.069-1.56-.033-18.993 1.245-38.001 2.157-57.013 2.909-6.975.276-13.947.605-20.922.813-4.043.123-7.546 1.131-10.627 2.833-1.827 1.01-3.543 2.202-5.035 3.767-3.877 4.07-5.86 9.389-6.099 15.925-.009.215-.055.404-.058.623l-.041 16.705c-.065 27.494-.134 54.988-.201 82.476-.098 6.835 1.801 12.337 5.8 16.542 3.946 4.204 9.235 6.398 15.812 6.595 7.126.213 14.247.546 21.371.828 18.863.747 37.72 1.651 56.564 2.884.701.045 1.334-.039 2.008-.047 5.491-.062 10.067-1.802 13.625-5.502.032-.032.053-.076.085-.109 3.935-4.147 5.939-9.902 6.061-17.222l.241-107.129c.004-.225-.035-.418-.036-.64-.006-7.072-1.884-12.688-5.745-16.714m-40.725 127.214c-9.638-.396-19.281-.739-28.919-1.035l.418-106.995.014-3.527c9.644-.297 19.281-.644 28.919-1.036l-.014 3.61-.418 108.983M672.258 398.205l-.12.017c.005-10.277.016-20.562.022-30.84.098-8.783-1.829-15.848-5.776-21.076-3.941-5.224-9.189-7.703-15.679-7.602-9.451.152-18.921.277-28.382.415-4.619.067-9.234.139-13.856.202-3.658.051-7.308.114-10.968.161.063-17.46.121-34.927.185-52.398 3.597-.283 7.188-.603 10.783-.899 4.619-.379 9.239-.754 13.856-1.154 1.395-.12 2.792-.225 4.187-.348l-.052 28.712a5203.97 5203.97 0 0 0 45.95-2.48c-.012-3.746-.023-7.491-.041-11.23 1.202-32.865 32.043-47.074 32.032-47.247a2163.559 2163.559 0 0 1-53.494 7.574c-3.515.459-7.03.901-10.546 1.338-6.008.746-12.024 1.403-18.036 2.1-4.619.535-9.234 1.107-13.856 1.612-3.62.396-7.245.745-10.867 1.122-3.768.395-7.536.769-11.306 1.143-4.348.432-8.691.911-13.041 1.317-.157.015-.294.066-.449.083-.127.014-.24.053-.366.069-6.026.756-10.962 3.424-14.777 8.072-.282.343-.48.743-.743 1.1-3.407 4.626-5.234 10.301-5.374 17.161-.002.096-.021.179-.022.274l-.034 39.55c-.099 7.518 1.817 13.519 5.776 18.081.734.846 1.561 1.537 2.385 2.232 3.475 2.926 7.725 4.53 12.79 4.705.127.004.238.035.366.038.078.002.146.022.225.024 4.426.051 8.842.119 13.266.173 7.395.092 14.784.191 22.173.291 4.617.063 9.241.116 13.856.183 1.319.02 2.643.032 3.962.052l-.207 54.374c-1.251-.109-2.504-.204-3.755-.313-4.616-.401-9.236-.772-13.856-1.152-3.731-.306-7.459-.64-11.192-.931.006-9.294.006-18.586.012-27.878-3.661-.16-7.329-.278-10.992-.43-4.495-.188-8.993-.354-13.49-.528l-.366-.015c-4.284-.165-8.566-.348-12.853-.503-2.797-.101-5.589-.23-8.387-.328.022 7.127.039 14.254.063 21.386.037 6.963 1.788 12.701 5.136 17.382.261.365.457.772.738 1.125 3.813 4.753 8.923 7.47 15.302 8.155.128.014.238.056.366.066 4.5.419 8.993.914 13.49 1.36 7.394.732 14.786 1.454 22.173 2.262 4.621.506 9.237 1.078 13.856 1.613 6.012.696 12.028 1.354 18.036 2.099 3.359.421 6.721.847 10.074 1.277 6.504.836 13 1.737 19.497 2.633l-13.49 9.269-17.947 12.331-17.463 11.997-15.349 10.545-8.304 5.705 7.859-3.294 14.932-6.257 38.343-16.067 28.754-12.051 17.134-7.18-.007-.001h.007c.01-.195-32.137-14.845-32.143-49.178"/></svg>