<svg xmlns="http://www.w3.org/2000/svg" width="993.46759" height="791.95972" x="0px" y="0px" viewBox="0 0 993.46759 791.95972"><path fill="none" d="M-17.817-16.048h1022.87v835.195H-17.816z" style="fill:#030210;fill-opacity:0"/><defs><linearGradient id="b" x1="57.125999" x2="58.6264" y1="57.101601" y2="67.777702" gradientTransform="matrix(5.35072 0 0 5.35072 -22.421 10.724)" gradientUnits="userSpaceOnUse"><stop stop-color="#DBDCDC"/><stop offset="0.5" stop-color="#F7F7F7"/><stop offset="1" stop-color="#F7F7F7"/></linearGradient><linearGradient id="c" x1="47.062199" x2="48.139999" y1="60.051399" y2="67.720001" gradientTransform="matrix(5.35072 0 0 5.35072 -22.421 10.724)" gradientUnits="userSpaceOnUse"><stop stop-color="#DBDCDC"/><stop offset="0.5" stop-color="#F7F7F7"/><stop offset="1" stop-color="#F7F7F7"/></linearGradient><linearGradient id="d" x1="70.779297" x2="74.555901" y1="46.9743" y2="73.846199" gradientTransform="matrix(5.35072 0 0 5.35072 -22.421 10.724)" gradientUnits="userSpaceOnUse"><stop stop-color="#DBDCDC"/><stop offset="0.5" stop-color="#F7F7F7"/><stop offset="1" stop-color="#F7F7F7"/></linearGradient><linearGradient id="e" x1="38.7729" x2="61.932098" y1="-13.403" y2="151.383" gradientTransform="matrix(5.35072 0 0 5.35072 -22.421 10.724)" gradientUnits="userSpaceOnUse"><stop stop-color="#DBDCDC"/><stop offset="0.5" stop-color="#F7F7F7"/><stop offset="1" stop-color="#F7F7F7"/></linearGradient><linearGradient id="f" x1="34.749401" x2="124.499" y1="-216.32201" y2="422.27802" gradientTransform="matrix(5.35072 0 0 5.35072 -22.421 10.724)" gradientUnits="userSpaceOnUse"><stop stop-color="#DBDCDC"/><stop offset="0.5" stop-color="#F7F7F7"/><stop offset="1" stop-color="#F7F7F7"/></linearGradient><linearGradient id="g" x1="50.2188" x2="80.577599" y1="-19.4464" y2="196.56799" gradientTransform="matrix(5.35072 0 0 5.35072 -22.421 10.724)" gradientUnits="userSpaceOnUse"><stop stop-color="#DBDCDC"/><stop offset="0.5" stop-color="#F7F7F7"/><stop offset="1" stop-color="#F7F7F7"/></linearGradient><linearGradient id="h" x1="34.891899" x2="36.429001" y1="92.758797" y2="105.278" gradientTransform="matrix(5.35072 0 0 5.35072 -22.421 10.724)" gradientUnits="userSpaceOnUse"><stop stop-color="#DBDCDC"/><stop offset="0.5" stop-color="#F7F7F7"/><stop offset="1" stop-color="#F7F7F7"/></linearGradient><linearGradient id="i" x1="78.396301" x2="84.155098" y1="68.983398" y2="115.885" gradientTransform="matrix(5.35072 0 0 5.35072 -22.421 10.724)" gradientUnits="userSpaceOnUse"><stop stop-color="#DBDCDC"/><stop offset="0.5" stop-color="#F7F7F7"/><stop offset="1" stop-color="#F7F7F7"/></linearGradient><linearGradient id="j" x1="100.69" x2="103.302" y1="79.121597" y2="100.394" gradientTransform="matrix(5.35072 0 0 5.35072 -22.421 10.724)" gradientUnits="userSpaceOnUse"><stop stop-color="#DBDCDC"/><stop offset="0.5" stop-color="#F7F7F7"/><stop offset="1" stop-color="#F7F7F7"/></linearGradient><linearGradient id="k" x1="62.071999" x2="64.9048" y1="83.2071" y2="106.279" gradientTransform="matrix(5.35072 0 0 5.35072 -22.421 10.724)" gradientUnits="userSpaceOnUse"><stop stop-color="#DBDCDC"/><stop offset="0.5" stop-color="#F7F7F7"/><stop offset="1" stop-color="#F7F7F7"/></linearGradient><linearGradient id="l" x1="148.799" x2="155.84399" y1="54.3148" y2="111.692" gradientTransform="matrix(5.35072 0 0 5.35072 -22.421 10.724)" gradientUnits="userSpaceOnUse"><stop stop-color="#DBDCDC"/><stop offset="0.5" stop-color="#F7F7F7"/><stop offset="1" stop-color="#F7F7F7"/></linearGradient><linearGradient id="m" x1="118.699" x2="120.439" y1="80.239502" y2="94.4114" gradientTransform="matrix(5.35072 0 0 5.35072 -22.421 10.724)" gradientUnits="userSpaceOnUse"><stop stop-color="#DBDCDC"/><stop offset="0.5" stop-color="#F7F7F7"/><stop offset="1" stop-color="#F7F7F7"/></linearGradient><linearGradient id="n" x1="108.082" x2="108.082" y1="-382.789" y2="644.52899" gradientTransform="matrix(5.35072 0 0 5.35072 -22.421 10.724)" gradientUnits="userSpaceOnUse"><stop stop-color="#DBDCDC"/><stop offset="0.5" stop-color="#F7F7F7"/><stop offset="1" stop-color="#F7F7F7"/></linearGradient><radialGradient id="a" cx="0" cy="0" r="1" gradientTransform="translate(592.906 223.77)scale(297.16119)" gradientUnits="userSpaceOnUse"><stop stop-color="#FFE100"/><stop offset="1" stop-color="#EA6000"/></radialGradient></defs><path fill="#534e3f" d="M759.1 275.554c0 122.56-99.298 221.887-221.856 221.887-122.522 0-221.869-99.327-221.869-221.887 0-122.495 99.347-221.84 221.869-221.84 122.558 0 221.857 99.345 221.857 221.84" style="stroke-width:5.35072"/><path fill="#534e3f" d="M660.894 435.285c30.708-50.05 42.688-139.5-14.5-227.84 5.682-2.127 9.219-2.547 16.774-3.43 4.19-.527 8.25-.739 12.167-.739 5.11 0 9.995.403 14.581 1.264 16.042 14.86 29.172 54.64 31.473 95.493.62 11.68 1.653 52.136-12.275 81.538-8.753 18.438-25.785 37.319-48.22 53.714" style="stroke-width:5.35072"/><path fill="#534e3f" d="M515.665 274.714c-16.374 0-29.68-4.631-40.957-9.39 8.798-31.99 38.96-76.442 97.37-101.846 20.492-8.987 42.596-13.7 63.87-13.7 40.056 0 71.716 16.917 86.763 46.429a72 72 0 0 1 2.734 6.041c-11.43-8.78-30.034-18.69-56.135-18.69-3.488 0-7.073.165-10.674.525-35.647 3.516-84.039 27.319-103.863 82.904-13.976 5.203-26.818 7.727-39.108 7.727M481.356 461.781c-9.675 0-18.65-1.175-26.707-3.535-24.775-7.198-44.829-22.71-60.558-40.052 29.112 23.53 64.853 37.884 105.077 42.263a121.4 121.4 0 0 1-17.812 1.324" style="stroke-width:5.35072"/><path fill="#534e3f" d="M538.523 476.583c-8.187 0-16.416-.51-24.56-1.516 27.257-6.529 46.685-17.24 63.791-34.643 42.86-43.718 46.305-122.794 8.15-180.97 6.565-20.247 19.128-31.11 38.177-41.883 35.299 41.927 55.38 131.206 29.83 191.909-9.374 22.184-27.198 52.833-74.07 62.764a197.7 197.7 0 0 1-41.254 4.34zM405.377 183.345c-2.778-17.78 1.978-34.81 15.172-55.965 20.57-33.067 50.22-42.79 76.506-47.966 13.853-2.716 27.872-4.084 41.655-4.084 12.697 0 25.197 1.136 37.402 3.43-39.339 3.56-129.525 20.838-170.735 104.585" style="stroke-width:5.35072"/><path fill="#534e3f" d="M519.159 365.049c-67.14 0-106.306-30.52-127.314-56.113-31.826-38.666-40.347-93.745-30.078-122.665 7.725-21.742 22.017-39.737 35.319-52.936-18.354 41.172-8.947 74.109 3.156 95.344 23.49 41.211 76.147 69.942 128.093 69.942 15.56 0 30.034-2.587 43.148-7.638 15.453 21.823 17.829 44.26 18.273 64.004-5.768 1.536-11.456 2.95-17.031 4.102-18.589 3.981-36.685 5.96-53.566 5.96" style="stroke-width:5.35072"/><path fill="#534e3f" d="M526.018 443.747c-52.513 0-98.034-17.071-131.587-49.376-28.54-27.512-48.03-64.914-55.016-105.47-2.483-19.131-1.478-39.738 2.606-58.912 2.568 33.066 15.531 66.738 35.866 90.546 47.522 55.499 106.08 67.14 146.868 67.14 14.988 0 37.76-1.578 63.439-8.884-2.333 19.597-9.551 34.562-23.49 49.023a101 101 0 0 1-18.374 15.112c-6.876.568-13.704.821-20.312.821M453.03 252.949c-17.68-10.248-27.259-21.32-35.485-34.37 7.26-26.307 29.355-73.287 96.354-106.247 22.29-10.925 53.77-17.975 80.255-17.975 21.842 0 40.473 4.609 53.984 13.304 16.651 10.773 29.883 21.845 40.537 34.052-16.31-7.051-35.99-10.817-57.44-10.817-67.055 0-147.352 37.801-178.206 122.053" style="stroke-width:5.35072"/><path fill="url(#a)" d="M689.937 204.518c-4.585-.862-9.465-1.261-14.564-1.261-3.917 0-7.978.208-12.168.735-7.555.887-11.113 1.307-16.769 3.433 57.183 88.338 45.203 177.79 14.5 227.86 22.43-16.415 39.462-35.295 48.216-53.734 13.912-29.404 12.906-69.857 12.274-81.542-2.295-40.871-15.447-80.63-31.489-95.491m-117.822-41.083c20.504-8.99 42.602-13.683 63.871-13.683 40.061 0 71.716 16.923 86.746 46.432a60 60 0 0 1 2.734 6.041c-11.402-8.8-30.017-18.691-56.107-18.691-3.5 0-7.074.168-10.675.525-35.679 3.516-84.038 27.323-103.868 82.909-13.97 5.18-26.813 7.723-39.109 7.723-16.373 0-29.67-4.63-40.954-9.385 8.792-31.992 38.932-76.447 97.362-101.871M454.689 458.229c8.06 2.352 17.027 3.533 26.71 3.533 5.873 0 11.874-.463 17.807-1.327-40.242-4.376-75.958-18.752-105.07-42.26 15.702 17.34 35.782 32.853 60.553 40.054m284.122-196.67c1.45 11.805 1.22 24.918-.482 38.158-.738-23.216-4.548-51.378-15.645-76.803 7.79 8.042 13.666 18.373 16.127 38.644m-114.687-44.01c35.272 41.925 55.38 131.21 29.825 191.89-9.37 22.205-27.22 52.849-74.07 62.788a199.3 199.3 0 0 1-41.254 4.334h-.06a200 200 0 0 1-24.57-1.519c27.262-6.52 46.67-17.236 63.78-34.64 42.87-43.737 46.322-122.813 8.166-180.967 6.544-20.25 19.134-31.11 38.183-41.887M576.16 78.74a204 204 0 0 0-37.402-3.43c-13.794 0-27.807 1.363-41.655 4.081-26.311 5.157-55.946 14.904-76.507 47.97-13.2 21.15-17.957 38.178-15.182 55.962C446.632 99.577 536.816 82.297 576.16 78.74M519.2 365.03c16.882 0 34.957-2.002 53.566-5.957 5.55-1.16 11.258-2.567 17.026-4.103-.444-19.742-2.82-42.18-18.267-64.009-13.115 5.051-27.61 7.644-43.143 7.644-51.974 0-104.613-28.733-128.103-69.944-12.102-21.237-21.512-54.177-3.155-95.345-13.304 13.195-27.594 31.19-35.317 52.932-10.273 28.92-1.747 84.003 30.076 122.669 21.008 25.595 60.177 56.113 127.317 56.113m6.86 78.697c6.614 0 13.425-.253 20.317-.82a101.2 101.2 0 0 0 18.369-15.09c13.933-14.506 21.151-29.445 23.495-49.042-25.678 7.282-48.456 8.86-63.444 8.86-40.788 0-99.341-11.619-146.89-67.122-20.308-23.802-33.271-57.48-35.84-90.545-4.084 19.173-5.098 39.78-2.615 58.913 6.992 40.536 26.478 77.961 55.018 105.45 33.534 32.328 79.055 49.396 131.59 49.396m-108.48-225.169c7.27-26.306 29.367-73.285 96.36-106.246 22.286-10.923 53.76-17.974 80.23-17.974 21.873 0 40.499 4.61 54.015 13.3 16.646 10.779 29.884 21.848 40.531 34.055-16.308-7.05-35.994-10.816-57.434-10.816-67.082 0-147.358 37.8-178.211 122.054-17.686-10.252-27.258-21.321-35.49-34.373" style="fill:url(#a);stroke-width:5.35072"/><path fill="#534e3f" d="M205.865 226.895 171.75 379.93l174.99-24.73c35.357-5.009 58.891-23.994 65.412-53.312 2.483-11.117.862-20.503-3.915-28.06 6.208-7.152 10.443-15.72 12.65-25.593 3.917-17.53-1.45-29.3-6.926-35.234-6.141-6.632-18.516-12.881-41.166-9.702z" style="stroke-width:5.35072"/><path fill="#fff" d="m219.565 241.71 29.723-4.207-10.78 48.366.322-.043 44.325-53.103 35.801-5.053-53.547 60.957 30.352 57.019-37.886 5.343-22.691-48.87-.314.041-11.977 53.775-29.758 4.208zM323.837 226.975l51.273-7.24c20.793-2.947 34.114 4.527 29.592 24.88-3.323 14.965-12.373 24.268-25.826 30.455l-.061.334c14.14 1.14 19.91 8.525 16.689 22.925-6.293 28.37-31.127 37.613-51.083 40.452l-46.975 6.632zm19.281 42.622 8.313-1.156c9.742-1.39 20.393-5.37 22.607-15.365 2.418-10.86-6.925-10.524-16.864-9.136l-8.626 1.242zm-10.99 49.212 8.804-1.244c10.86-1.536 22.58-4.84 25.271-16.879 2.89-12.882-8.518-12.44-18.75-10.986l-9.09 1.283z" style="stroke-width:5.35072"/><path fill="url(#b)" d="m243.075 311.567 18.08 38.983 34.606-4.904-20.544-38.605z" style="fill:url(#b);stroke-width:5.35072"/><path fill="url(#c)" d="m206.015 316.787-9.56 42.898 26.439-3.73 9.537-42.89z" style="fill:url(#c);stroke-width:5.35072"/><path fill="url(#d)" d="M369.531 293.784c.529 1.66.569 3.745-.038 6.44-2.673 12.039-14.42 15.342-25.282 16.88l-8.776 1.242-3.306.465 4.546-20.396-26.416 3.704-9.535 42.807 43.695-6.144c19.956-2.838 44.79-12.1 51.082-40.451.7-3.094.949-5.853.824-8.294z" style="fill:url(#d);stroke-width:5.35072"/><path fill="url(#e)" d="M195.363 359.832 221.1 243.606l23.974-3.388v.019l-.502 2.065-21.806 3.07-25.255 114.161z" style="fill:url(#e);stroke-width:5.35072"/><path fill="url(#f)" d="m376.078 221.82-50.685 7.135-25.72 116.16 2.124-.294 25.241-114.1 49.332-6.922c.152-.021 14.394-2.4 21.15 4.208l1.392-1.41c-4.414-4.336-11.425-5.24-16.523-5.24-3.489.002-6.104.42-6.311.462" style="fill:url(#f);stroke-width:5.35072"/><path fill="url(#g)" d="m314.787 229.69.02.024-2.168 2.292-24.119 3.2-40.413 48.979-2.946.441 42.346-51.292z" style="fill:url(#g);stroke-width:5.35072"/><path fill="#534e3f" d="m512.25 542.67-.037.15 119.514-16.926 12.157-53.483 35.363 46.792 139.846-19.657c48.574-6.59 80.86-33.868 90.94-76.846 5.373-22.924.996-45.528-12.081-61.987a61 61 0 0 0-1.707-2.084l40.205-5.62 57.018-103.196-167.58 23.532c-24.206 3.303-52.934 15.03-71.876 37.72-18.353-17.09-44.116-19.008-54.721-19.008-4.03 0-7.92.232-11.788.758l-515.249 72.402c-35.25 4.778-80.08 27.51-90.38 75.813-5.297 24.878-.626 48.708 12.842 65.33.018.044.045.068.084.11L55.465 512 0 614.649Z" style="stroke-width:5.35072"/><path fill="#f7b400" d="M499.564 344.363 278.968 550.31l76.82-11.135 140.593-133.589-9.133 36.137-62.361 59.732 47.464-6.796-6.739 29.424 50.475-7.091 39.82-180.525zM258.234 553.489l44.577-39.004 20.985-100.561 78.044-10.945 58.24-53.063-284.456 39.99c-28.502 3.852-62.075 21.932-69.397 56.322-6.841 32.1 8.735 61.397 43.13 56.577 0 0 16.29-4.144 13.467 9.871-2.463 12.291-20.582 12.27-20.582 12.27l-70.849 9.96-26.059 48.231 99.241-13.949c35.676-4.842 61.84-22.917 70.027-57.86 7.2-30.624-10.567-59.414-46.87-54.325-8.488 1.201-12.317-2.774-10.168-11.908 2.21-9.39 16.546-10.126 16.546-10.126l95.677-13.45-28.626 134.367zM798.204 477.338c35.657-4.842 61.843-22.944 70.051-57.863 7.181-30.6-10.61-59.435-46.899-54.344-8.502 1.2-12.29-2.775-10.166-11.909 2.215-9.392 16.523-10.125 16.523-10.125l75.392-10.59 26.898-48.638-100.776 14.164c-28.492 3.873-62.047 21.933-69.388 56.343-6.838 32.101 8.775 61.4 43.122 56.56 0 0 16.293-4.129 13.478 9.867-2.467 12.295-20.547 12.295-20.547 12.295l-85.456 11.997-11.953-15.388c8.373-4.167 14.393-11.765 19.214-18.876 16.919-25.026 18.46-61.294 3.43-77.437-11.408-12.27-33.298-15.365-47.734-13.45l-88.426 12.504-40.553 180.632 49.296-7.012 30.585-134.471 33.185-4.57c16.502-2.439 25.384 3.097 23.324 16.692-2.253 14.584-13.768 25.76-29.001 28.016l-20.269 3.029 58.735 77.747z" style="stroke-width:5.35072"/><path fill="#fff" d="M521.374 341.306 300.77 547.261l72.569-10.525 136.52-130.833-9.6 39.864-55.313 52.896 44.937-6.446-6.74 29.406 50.499-7.112 39.815-180.528zM323.184 496.619l18.167-85.16 78.59-11.03 58.22-53.059-284.985 40.054c-28.503 3.873-62.069 21.951-69.419 56.345-6.816 32.096 8.76 61.415 43.112 56.574 0 0 16.309-4.147 13.515 9.893-2.493 12.272-20.591 12.246-20.591 12.246l-70.841 9.957-26.06 48.242 99.239-13.954c35.65-4.843 61.84-22.939 70.027-57.86 7.194-30.6-10.565-59.439-46.875-54.325-8.5 1.202-12.31-2.798-10.169-11.91 2.192-9.411 16.546-10.145 16.546-10.145l95.686-13.432-29.11 134.434zM815.765 474.876c35.625-4.841 61.833-22.946 70.03-57.86 7.17-30.625-10.6-59.44-46.899-54.325-8.513 1.18-12.317-2.799-10.15-11.933 2.21-9.39 16.523-10.125 16.523-10.125l75.413-10.566 26.882-48.664-100.776 14.166c-28.503 3.876-62.047 21.933-69.372 56.345-6.86 32.099 8.711 61.374 43.106 56.557 0 0 16.271-4.147 13.467 9.892-2.482 12.272-20.584 12.248-20.584 12.248l-85.435 12.02-11.953-15.407c8.4-4.15 14.415-11.746 19.241-18.859 16.919-25.026 18.46-61.27 3.43-77.436-11.424-12.271-33.314-15.384-47.734-13.448l-90.127 12.67-40.537 180.631 50.95-7.174 30.59-134.475 33.19-4.567c16.501-2.442 25.394 3.074 23.34 16.671-2.253 14.607-13.805 25.779-29.028 28.034l-22.5 3.326 58.746 77.75z" style="stroke-width:5.35072"/><path fill="url(#h)" d="m70.256 579.654 26.04-48.242 63.497-8.93s3.513 0 7.639-1.024c2.195-.068 18-.87 20.292-12.275 2.799-14.04-13.454-9.873-13.454-9.873-17.596 2.462-30.265-4.018-37.506-15.195l90.38-12.689c6.396 10.12 8.253 23.59 5.013 37.442-8.188 34.92-34.377 53.016-70.028 57.859z" style="fill:url(#h);stroke-width:5.35072"/><path fill="url(#i)" d="m311.254 545.768 105.891-101.051 61.309-8.55L373.34 536.737z" style="fill:url(#i);stroke-width:5.35072"/><path fill="url(#j)" d="m510.651 431.56-3.788 15.468-52.404 50.284 35.425-5.095h-.018l7.381-1.03-6.757 29.383 43.153-6.06 19.61-88.926z" style="fill:url(#j);stroke-width:5.35072"/><path fill="url(#k)" d="m284.646 463.339-17.511 82.38v.022l56.049-49.122 8.527-39.906z" style="fill:url(#k);stroke-width:5.35072"/><path fill="url(#l)" d="M790.381 392.264c7.277 11.175 19.91 17.637 37.503 15.173 0 0 16.272-4.144 13.479 9.894-2.301 11.406-18.107 12.209-20.317 12.25-4.104 1.03-7.64 1.03-7.64 1.03l-78.09 10.968-7.346 1.053-11.953-15.408c8.4-4.15 14.415-11.746 19.241-18.858 1.953-2.906 3.676-5.937 5.238-9.115l-63.796 8.987-22.5 3.326 58.762 77.75 102.803-14.438c35.652-4.84 61.833-22.946 70.03-57.86 3.237-13.851 1.36-27.322-4.997-37.466z" style="fill:url(#l);stroke-width:5.35072"/><path fill="url(#m)" d="m631.492 414.595-20.253 89.032-43.587 6.127 19.953-89.011z" style="fill:url(#m);stroke-width:5.35072"/><path fill="#534e3f" d="m0 614.648 611.24-111.04 19.593-86.192 68.094 89.726 234.677-26.312-153.24 118.333 104.917 151.88-208.999-71.545L548.23 791.96l31.906-138.156S186.506 617.64 184.84 617.49c-2.377-.209-1.934-1.744.046-1.744 1.307 0 430.025 2.552 430.025 2.552l-21.66 91.444 80.448-69.854L800.82 684.63l-66.932-90.84 79.849-61.142-114.939 12.462-54.914-72.7-18.182 80.217z" style="stroke-width:5.35072"/><path fill="url(#n)" d="m552.413 773.88 30.606-133.217-379.698-24.79 411.589 2.424-21.665 91.449 80.448-69.859 137.02 48.22-52.18-69.81 35.508.711 78.795 114.014-196.554-67.264z" style="fill:url(#n);stroke-width:5.35072"/><g style="fill:#fff"><path d="M103.826 1.211q-.353.891-.712 1.806-.353.915-.708 1.805l-2.239-3.162-1.302.161c.497.74 1 1.476 1.52 2.207a74 74 0 0 0 1.611 2.199l.363 2.855 1.07-.133-.347-2.852 2.015-5.039zM96.734 8.945c-.662.18-1.306.358-1.931.523l-.547-2.05 3.536-.944q-.08-.3-.16-.581-.084-.284-.163-.578-.889.236-1.766.467-.875.23-1.762.465l-.504-1.877 3.776-1.015-.314-1.184-4.996 1.341 1.998 7.455 5.102-1.365-.318-1.184q-.96.255-1.951.527M69.262 18.484a58 58 0 0 0 1.683 2.848q.886 1.398 1.723 2.796l-6.23-2.15-.786.966q1.944.691 3.877 1.354c1.29.445 2.573.905 3.847 1.389l.905-1.114-4.268-7.017zM76.697 12.709q-1.424-.282-2.586.697-1.114.931-1.108 2.403.04 1.458 1.207 2.852 1.156 1.373 2.565 1.644l-.008-.008c.968.177 1.825-.043 2.565-.669q1.226-1.025 1.137-2.423-.013-1.444-1.169-2.82c-.78-.929-1.648-1.491-2.604-1.676m1.856 5.988q-.696.584-1.617.303c-.618-.185-1.189-.583-1.704-1.197-.538-.645-.841-1.282-.912-1.92-.078-.636.119-1.151.579-1.541q.701-.591 1.65-.326.988.224 1.79 1.18.756.903.828 1.935.094.98-.614 1.566M84.973 13.815q-.785.495-1.563.979l-3.45-5.5-1.05.654 4.088 6.537 4.181-2.612-.648-1.038q-.78.485-1.558.98M90.622 10.947q-.842.379-1.68.752L86.29 5.77l-1.128.503 3.135 7.041L92.8 11.31l-.495-1.117q-.84.372-1.683.755M111.831 4.74v-.075a.9.9 0 0 0 .26-.256q.118-.164.342-.393c.106-.228.161-.507.17-.826q.001-.1-.005-.188c-.004-.056-.004-.115-.011-.174v.012a1.9 1.9 0 0 0-.213-.657q-.165-.3-.402-.578-.647-.537-1.608-.555l-3.159-.055-.133 7.73 3.17.054c.397.008.741-.035 1.015-.13.284-.094.539-.231.775-.416a2.2 2.2 0 0 0 .626-.657c.141-.244.219-.523.244-.826q.036-.832-.405-1.334-.394-.53-.666-.676m-3.39-2.486 1.794.031c.326.004.582.095.761.264a.81.81 0 0 1 .268.66q-.005.46-.29.701c-.19.161-.449.24-.787.232l-1.778-.031zm3.051 4.634q-.063.194-.297.366-.108.14-.359.228-.247.094-.664.082l-1.826-.032.04-2.162 1.856.03q.42.009.645.088a.75.75 0 0 1 .347.236q.218.17.271.361.06.19.055.398a1.5 1.5 0 0 1-.068.405M119.541 2.305l-1.385-.32a122 122 0 0 0-2.297 3.443 155 155 0 0 0-2.171 3.47q.267.063.594.134c.215.043.437.094.656.145l1.008-1.562 3.134.724.162 1.83 1.266.295a114 114 0 0 0-.432-4.068c-.174-1.354-.35-2.714-.535-4.091m-2.911 4.264 1.833-2.942.433 3.469zM156.123 34.222l-1.188-2.93-7.167 2.899 1.188 2.938q.223.56.519.889.295.329.689.547.426.265.845.318c.284.036.567 0 .857-.098.521-.197.875-.492 1.067-.893q.337-.572.366-.877l.071-.027c.09.066.2.11.334.141q.2.043.496.157.383.013.829-.169c.056-.023.115-.047.166-.075q.085-.036.157-.078l-.008.004q.3-.182.519-.452.212-.27.378-.594c.162-.54.119-1.106-.118-1.7m-3.965 2.628a.74.74 0 0 1-.224.393 1.3 1.3 0 0 1-.35.204c-.125.052-.26.084-.394.095q-.206.018-.455-.13c-.115-.031-.228-.114-.35-.24a1.9 1.9 0 0 1-.335-.578l-.684-1.695 2.01-.81.696 1.722q.153.39.17.63a.72.72 0 0 1-.084.409m2.329-.952q-.424.171-.756.007-.339-.168-.526-.632l-.665-1.657 1.722-.692.673 1.66c.123.307.142.574.056.81a.84.84 0 0 1-.504.504M142.041 23.137l5.044-4.094-.78-.96-5.987 4.85 3.1 3.831.952-.77c-.386-.477-.771-.953-1.164-1.429-.39-.476-.775-.951-1.165-1.428M149.106 31.378l4.516-2.714-.654-1.086q-1.05.627-2.1 1.267t-2.101 1.27q-.542.325-1.226.355c-.393.067-.787-.22-1.164-.858q-.55-.908-.181-1.373a3.1 3.1 0 0 1 .928-.861l4.209-2.53-.672-1.113c-.756.453-1.507.905-2.263 1.353q-1.127.669-2.258 1.35-1.025.614-1.231 1.695-.23 1.032.412 2.112.68 1.122 1.724 1.44c.701.2 1.384.098 2.061-.307M123.255 10.137l2.317-6.066-1.153-.44-2.761 7.194 4.602 1.766.44-1.14q-.862-.333-1.723-.658a147 147 0 0 1-1.722-.656M140.058 19.043q-.407.376-1.045.464-.68.105-1.339-.45-.707-.592-.593-1.541.076-.956.877-1.908c.55-.657 1.137-1.07 1.758-1.23.611-.178 1.145-.072 1.613.322q.343.29.484.586.145.3.205.653-.048.242-.083.543a1.4 1.4 0 0 1-.17.527q.283.237.524.409c.161.118.343.259.548.432q.399-.677.399-1.904.021-1.228-1.128-2.191-1.163-.979-2.569-.696-1.428.3-2.596 1.7-1.131 1.348-1.183 2.804-.043 1.44 1.128 2.415 1.073.907 2.337.751.589-.105 1.067-.298c.318-.13.586-.3.813-.512zM128.941 12.701l3.14-5.683-1.078-.602-3.74 6.742 4.316 2.392.589-1.07c-.535-.299-1.07-.594-1.613-.89q-.808-.444-1.614-.889" style="fill:#fff" transform="matrix(5.35072 0 0 5.35072 -40.238 -5.324)"/></g></svg>