<svg xmlns="http://www.w3.org/2000/svg" width="648.82812" height="705.28436" x="0px" y="0px" viewBox="0 0 648.82812 705.28436"><defs><linearGradient id="b" x1="50.292801" x2="50.292801" y1="154.659" y2="124.798" gradientTransform="translate(1.778 1.91)" gradientUnits="userSpaceOnUse"><stop stop-color="#fff"/><stop offset="1" stop-color="#BB9F54"/></linearGradient><linearGradient id="c" x1="50.292801" x2="50.292801" y1="154.659" y2="124.798" gradientTransform="translate(1.778 1.91)" gradientUnits="userSpaceOnUse"><stop stop-color="#fff"/><stop offset="1" stop-color="#BB9F54"/></linearGradient><linearGradient id="d" x1="82.820503" x2="82.820503" y1="154.659" y2="124.798" gradientTransform="translate(1.778 1.91)" gradientUnits="userSpaceOnUse"><stop stop-color="#fff"/><stop offset="1" stop-color="#BB9F54"/></linearGradient><linearGradient id="e" x1="96.119797" x2="96.119797" y1="154.659" y2="124.798" gradientTransform="translate(1.778 1.91)" gradientUnits="userSpaceOnUse"><stop stop-color="#fff"/><stop offset="1" stop-color="#BB9F54"/></linearGradient><linearGradient id="f" x1="109.411" x2="109.411" y1="154.659" y2="124.798" gradientTransform="translate(1.778 1.91)" gradientUnits="userSpaceOnUse"><stop stop-color="#fff"/><stop offset="1" stop-color="#BB9F54"/></linearGradient><linearGradient id="g" x1="167.556" x2="167.556" y1="154.659" y2="124.798" gradientTransform="translate(1.778 1.91)" gradientUnits="userSpaceOnUse"><stop stop-color="#fff"/><stop offset="1" stop-color="#BB9F54"/></linearGradient><linearGradient id="h" x1="148.897" x2="148.897" y1="154.659" y2="124.798" gradientTransform="translate(1.778 1.91)" gradientUnits="userSpaceOnUse"><stop stop-color="#fff"/><stop offset="1" stop-color="#BB9F54"/></linearGradient><linearGradient id="i" x1="128.60001" x2="128.60001" y1="154.659" y2="124.798" gradientTransform="translate(1.778 1.91)" gradientUnits="userSpaceOnUse"><stop stop-color="#fff"/><stop offset="1" stop-color="#BB9F54"/></linearGradient><clipPath id="a"><path fill="#fff" d="M19 12h161v175H19Z"/></clipPath></defs><g clip-path="url(#a)" transform="matrix(4.0302 0 0 4.0302 -76.607 -48.362)"><path fill="#efefef" d="M154.826 180.595c.143-.425.214-.865.214-1.305a4.11 4.11 0 0 0-1.449-3.176c-.015-.015-.031-.023-.047-.038-.863-.696-1.987-1.051-3.341-1.051h-3.253c-.483 0-.887.093-1.211.224a2.8 2.8 0 0 0-1.093-.224h-1.108c-.673 0-1.275.232-1.742.618a2.7 2.7 0 0 0-1.741-.618h-1.109c-1.108 0-2.034.633-2.438 1.553-.403-.92-1.33-1.553-2.438-1.553h-1.108a2.74 2.74 0 0 0-1.354.363 9 9 0 0 0-.546-.201c-.032-.008-.063-.015-.095-.031a10 10 0 0 0-.958-.224c-.04 0-.079-.015-.111-.023-1.266-.185-2.462-.07-3.554.348a6.2 6.2 0 0 0-2.035 1.259 6 6 0 0 0-1.409 1.939c-.356.757-.538 1.607-.538 2.527 0 .146.008.293.024.432a2.7 2.7 0 0 0-1.568-.494h-.815v-3.299c0-1.453-1.172-2.596-2.66-2.596h-1.108c-1.172 0-2.138.711-2.502 1.723-.364-1.012-1.322-1.723-2.501-1.723h-1.108c-.855 0-1.6.386-2.082.973a3 3 0 0 0-.222-.255 2.6 2.6 0 0 0-.625-.44 2.9 2.9 0 0 0-1.267-.278h-1.061c-.578 0-1.092.147-1.528.432-.031.024-.063.039-.095.062-.38.278-.665.649-.855 1.082q-.213-.257-.475-.479c-.015-.016-.031-.023-.047-.039-.863-.695-1.987-1.05-3.34-1.05h-3.254c-.277 0-.523.03-.752.077a3 3 0 0 0-.95-.162h-1.085a2.87 2.87 0 0 0-1.259.27 2.6 2.6 0 0 0-.839.649c-.11-.131-.3-.332-.577-.51a2.6 2.6 0 0 0-.752-.324 3 3 0 0 0-.752-.085h-1.085c-.293 0-.57.046-.831.123-.15-.023-.301-.046-.46-.046h-4.56c-1.052 0-1.709.425-2.081.788a2.6 2.6 0 0 0-.625.989c-.349-1.035-1.322-1.769-2.518-1.769H75.04c-1.172 0-2.137.71-2.502 1.722-.364-1.012-1.322-1.722-2.501-1.722h-1.108c-.784 0-1.473.324-1.956.834-.38-.24-.8-.44-1.258-.618a7.65 7.65 0 0 0-5.051.015 6 6 0 0 0-.625.271 2.75 2.75 0 0 0-1.591-.502h-1.109q-.498.002-.926.131a4 4 0 0 0-.356.139 2.6 2.6 0 0 0-.942.803 2.6 2.6 0 0 0-.681-.656 2.4 2.4 0 0 0-.776-.332 3.4 3.4 0 0 0-.768-.085h-1.108c-1.116 0-2.066.618-2.454 1.576a2.55 2.55 0 0 0 .016 1.962l2.691 6.737c.182.479.491.896.895 1.19.04.023.071.054.11.077.436.286.95.433 1.528.433h1.061c.46 0 .887-.093 1.267-.278.237-.116.46-.271.641-.456.27-.271.428-.541.523-.719q.059-.102.095-.216l.055-.147c.095.101.19.209.3.309.594.549 1.307.974 2.162 1.29.792.279 1.63.418 2.501.418s1.71-.139 2.55-.433c.45-.17.87-.379 1.25-.626.024.023.048.054.071.077.365.356 1.022.781 2.075.781h4.354c.284 0 .554-.054.807-.132.27.078.578.132.942.132h4.354c.285 0 .554-.054.807-.132.27.078.578.132.942.132h4.615c.784 0 1.473-.317 1.956-.827l.047.046c.515.503 1.227.781 2.011.781h.8c.791 0 1.504-.278 2.018-.788a2 2 0 0 0 .119-.124q.035-.036.071-.085c.063.077.127.155.19.209.364.355 1.021.78 2.074.78h3.27c.823 0 1.551-.116 2.2-.332.388.208.839.332 1.33.332h1.109c.277 0 .546-.031.791-.093.269-.069.523-.177.744-.324.262-.17.491-.394.673-.649a2.6 2.6 0 0 0 1.259.927c.293.093.609.147.958.147h1.108c.269 0 .522-.039.768-.108.253.061.53.108.855.108h4.354c.285 0 .554-.054.807-.132.269.078.578.132.942.132h4.354c1.433 0 2.557-1.059 2.644-2.434.253.363.531.695.847.974.586.54 1.291.965 2.106 1.259a7.2 7.2 0 0 0 2.367.402c.736 0 1.456-.101 2.208-.309a7.563 7.563 0 0 0 .697-.248c.372.201.863.363 1.504.363h4.354c.546 0 1.045-.154 1.457-.417.253.124.506.232.775.317.61.201 1.291.301 2.011.301s1.362-.1 2.019-.301a5.4 5.4 0 0 0 1.187-.556c.38.324 1.006.656 1.94.656h3.269c1.425 0 2.589-.316 3.491-.958 1.061-.772 1.639-2.001 1.639-3.461 0-.695-.174-1.36-.531-1.985zm-91.48.417a1 1 0 0 1-.221 0 .55.55 0 0 1 .222 0m65.499-.007h.032c-.008 0-.032.023-.032 0M158.231 124.551c-.792 0-1.583.039-2.359.124 5.454-9.163 8.32-19.508 8.32-30.2 0-20.444-10.466-39.287-28.032-50.513a33 33 0 0 0-3.53-4.38c-4.631-4.83-10.901-8.391-18.176-10.33l.903-2.48c.285-.842 1.147-3.423.15-6.065-.784-2.07-2.541-3.624-4.829-4.257a7 7 0 0 0-.673-.155c-1.108-2.38-3.633-4.388-7.607-4.295h-.008c-2.225.03-4.235.703-5.668 1.893a6.65 6.65 0 0 0-1.797 2.348 9 9 0 0 0-.657.147c-2.288.618-4.061 2.163-4.86 4.234-.911 2.372-.365 4.62.142 6.15l.855 2.402s-.056.055-.08.085c-7.33 1.947-13.41 5.4-18.088 10.276a33.4 33.4 0 0 0-3.483 4.296C51.06 55.04 40.517 73.93 40.517 94.474v.54c-8.487 3.74-14.075 12.061-14.075 21.239 0 3.748.285 6.707.902 9.233-4.955 1.947-8.336 6.667-8.336 12.052v3.338c0 5.215 3.175 9.812 7.869 11.859a12.9 12.9 0 0 0-.776 3.485c-.008.1-.016.193-.016.293-.015.858-.055 3.74-.015 4.644a12.8 12.8 0 0 0 3.879 8.56c2.517 2.457 5.858 3.809 9.412 3.809s6.903-1.352 9.412-3.809l1.512-1.476 1.512 1.476c2.51 2.449 5.858 3.801 9.413 3.801 3.562 0 6.903-1.352 9.412-3.801a13 13 0 0 0 2.921-4.28c2.153 2.65 5.486 4.349 9.215 4.349 2.382 0 4.718-.726 6.673-2.039a12 12 0 0 0 6.673 2.039c2.383 0 4.718-.726 6.674-2.039a12 12 0 0 0 6.673 2.039c2.739 0 5.431-.981 7.536-2.696a22.25 22.25 0 0 0 18.334 2.241c2.652.749 5.573.548 8.083-.549a12 12 0 0 0 4.805 1.004c4.227 0 7.94-2.186 10.014-5.462 2.074 3.276 5.787 5.462 10.014 5.462 6.483 0 11.763-5.145 11.763-11.48v-12.524c0-11.72-9.768-21.254-21.777-21.254z"/><path fill="#413133" d="M102.35 36.514c-32.75 0-59.388 26.006-59.388 57.96s26.646 57.96 59.388 57.96 59.387-26.005 59.387-57.96c0-31.954-26.646-57.96-59.387-57.96"/><path fill="#e8410b" fill-rule="evenodd" d="M102.35 38.848c31.483 0 56.997 24.908 56.997 55.626 0 30.719-25.522 55.627-56.997 55.627s-56.997-24.908-56.997-55.627c0-30.718 25.514-55.626 56.997-55.626" clip-rule="evenodd"/><path fill="#fff" fill-rule="evenodd" d="M137.094 58.974c9.935 9.279 15.5 22.003 15.5 35.423a48 48 0 0 1-7.473 25.743 1.25 1.25 0 0 1-1.409.533 1.22 1.22 0 0 1-.91-1.182c.031-7.046-.634-14.131-2.407-20.968-2.976-11.435-8.779-21.154-17.724-29.12a1.2 1.2 0 0 1-.412-.888q0-.524.38-.896c3.831-3.616 8.209-6.675 13.054-8.87a1.25 1.25 0 0 1 1.393.225m-28.569 54.158c-4.473.835-9.025 1.267-13.577 1.36a95 95 0 0 1-14.479-.819c-8.802-1.166-19.204-3.755-26.748-8.421a1.17 1.17 0 0 1-.555-.78 48 48 0 0 1-1.06-10.075c0-2.202.15-4.412.45-6.59.056-.417.31-.75.697-.935a1.25 1.25 0 0 1 1.188.054c4.876 2.828 10.56 4.466 16.11 5.485 7.504 1.383 15.23 1.785 22.854 1.893 2.446.039 4.892.039 7.338.016.435 0 .807.193 1.053.54 3.507 5.13 6.064 10.809 7.71 16.758.095.34.048.665-.15.966-.19.301-.475.487-.824.548zm.815 29.838a51 51 0 0 1-6.982.471c-18.865 0-36.146-10.314-44.735-26.685a1.17 1.17 0 0 1 .19-1.375c.356-.387.895-.51 1.386-.317 6.49 2.495 13.497 4.11 20.4 5.022 5.145.68 10.354.989 15.547.88 4.916-.1 9.832-.571 14.661-1.475q.534-.106.974.216.438.311.506.842c.887 7.077.649 14.502-.886 21.478-.111.51-.523.881-1.053.951zm25.799-11.411a50.5 50.5 0 0 1-15.856 9.024 1.25 1.25 0 0 1-1.219-.209 1.17 1.17 0 0 1-.444-1.128c1.116-7.324 1.037-14.934-.174-22.243-1.504-9.055-4.773-17.785-9.951-25.457a1.15 1.15 0 0 1-.11-1.136c2.382-5.632 5.375-11.055 9.119-15.938.222-.286.523-.456.887-.487s.696.077.965.317c7.877 7.07 12.991 15.676 15.619 25.789 2.589 9.951 2.62 20.497 1.599 30.657a1.15 1.15 0 0 1-.427.803zm-34.673-43.698c-6.056.046-12.128-.023-18.176-.495a1.23 1.23 0 0 1-.942-.533 1.16 1.16 0 0 1-.158-1.05c2.691-8.344 6.705-16.302 12.23-23.21C98.67 56 105.326 50.352 113.068 46.752c.269-.123.539-.154.824-.085a50.9 50.9 0 0 1 15.072 6.142c.38.232.594.618.586 1.059a1.19 1.19 0 0 1-.625 1.035c-5.035 2.843-9.555 6.498-13.482 10.685-5.905 6.289-10.449 13.698-13.853 21.532a1.22 1.22 0 0 1-1.14.742zm-1.25-40.175c-4.102 3.183-7.783 6.884-11.005 10.91-6.356 7.95-10.9 17.15-13.821 26.808a1.25 1.25 0 0 1-1.417.858c-.404-.07-.8-.14-1.204-.209-5.652-1.043-11.93-2.85-16.489-6.39a1.2 1.2 0 0 1-.404-1.36C61.4 59.948 78.482 47.069 98.32 45.516a1.24 1.24 0 0 1 1.267.773c.206.51.055 1.066-.388 1.406z" clip-rule="evenodd"/><path fill="#dcdddd" fill-rule="evenodd" d="M109.332 142.97a51 51 0 0 1-6.982.471c-18.865 0-36.146-10.314-44.735-26.685a1.17 1.17 0 0 1 .19-1.375 1.24 1.24 0 0 1 1.267-.356c10.061 9.132 24.358 14.834 40.222 14.834 4.299 0 8.478-.417 12.492-1.213.008 4.504-.443 9.024-1.401 13.374-.111.51-.523.88-1.053.95m43.254-47.947a47.96 47.96 0 0 1-7.473 25.125 1.25 1.25 0 0 1-1.409.533 1.22 1.22 0 0 1-.91-1.182 94 94 0 0 0-.246-7.479c4.608-4.952 8.059-10.716 10.03-16.997zm-16.41 22.776c.055 4.334-.19 8.676-.618 12.949a1.15 1.15 0 0 1-.427.803 50.4 50.4 0 0 1-15.856 9.024 1.24 1.24 0 0 1-1.219-.209 1.17 1.17 0 0 1-.444-1.128c.618-4.04.871-8.174.768-12.292 6.626-2.078 12.65-5.215 17.796-9.163z" clip-rule="evenodd"/><path fill="#413133" d="M143.308 112.228c-1.464-4.342-6.792-7.81-11.494-10.121 3.356-4.357 3.934-9.14 3.942-11.874 4.03-8.962 4.204-17.569 4.212-18.705.87-12.879-2.209-23.077-9.136-30.316-4.496-4.698-10.671-8.105-17.874-9.874a9 9 0 0 0-1.093-1.151q-.133-.114-.277-.24l1.425-3.924c.38-1.128.815-2.82.182-4.497-.507-1.352-1.678-2.364-3.198-2.789a5.6 5.6 0 0 0-1.852-.193c-.396-2.928-3.183-4.219-5.676-4.157h-.048c-.768.008-2.676.132-4.108 1.321-.855.711-1.37 1.654-1.536 2.797a5.9 5.9 0 0 0-1.868.186c-1.528.41-2.7 1.421-3.222 2.765-.642 1.677-.222 3.377.166 4.528l1.37 3.855a9.3 9.3 0 0 0-1.172 1.113c-.119.139-.23.278-.34.425-7.22 1.792-13.173 5.091-17.693 9.796-6.935 7.216-10.03 17.399-9.191 30.27 0 1.175.166 10.098 4.386 19.238.095 3.23 1.14 10.492 8.17 15.413-4.141 5.825-8.076 16.673-8.044 27.396-.079.889-.499 6.49 1.924 9.148.839.919 1.94 1.429 3.19 1.452h.095c1.401 0 2.557-.734 3.293-2.055.056 0 .103 0 .159.008h.063a2.6 2.6 0 0 0 1.512-.518 3.17 3.17 0 0 0 1.456 1.669c.467.255 4.845 2.519 14.55 2.519h.087c1.647 2.117 4.18 3.36 6.919 3.36s5.28-1.243 6.919-3.36h.087c2.818 0 5.454-.194 7.853-.588 1.797.526 3.665.789 5.549.789 10.695 0 19.395-8.491 19.395-18.929 0-2.109-.356-4.172-1.061-6.158 3.373-3.978 2.193-7.996 1.987-8.599z"/><path fill="#b9a054" d="M65.175 31.547a.665.665 0 0 0-.633-.44l-8.644-.155-2.827-7.85a.67.67 0 0 0-.64-.432c-.302 0-.54.177-.634.432l-2.834 7.857-8.629.17c-.3.016-.554.194-.633.449a.63.63 0 0 0 .23.718l6.887 5.006-2.51 7.958c-.087.263.024.549.245.719a.73.73 0 0 0 .412.123c.127 0 .27-.03.38-.116l7.093-4.751 7.085 4.751a.67.67 0 0 0 .404.116.65.65 0 0 0 .388-.131.64.64 0 0 0 .245-.71l-2.517-7.959 6.895-5.021c.237-.17.324-.456.237-.727zM165.007 31.547a.67.67 0 0 0-.634-.44l-8.644-.155-2.826-7.85a.665.665 0 0 0-.641-.432.66.66 0 0 0-.634.432l-2.834 7.857-8.628.17c-.301.016-.555.194-.634.449a.63.63 0 0 0 .23.718l6.887 5.006-2.509 7.958c-.088.263.023.549.245.719a.73.73 0 0 0 .412.123.63.63 0 0 0 .38-.116l7.093-4.751 7.085 4.751a.66.66 0 0 0 .403.116.65.65 0 0 0 .388-.131.64.64 0 0 0 .246-.71l-2.518-7.959 6.895-5.021c.238-.17.325-.456.238-.727z"/><path fill="#fff" d="M124.99 100.972s14.463 4.852 16.775 11.743c0 0 2.232 4.435-3.705 8.955l-21.991-8.677 4.441-11.04z"/><path fill="#f9e4d6" d="M70.954 133.575s-1.282 8.769 3.8 8.916c1.947.054 2.24-3.183 2.24-3.183.056 1.537 2.003 1.576 2.003-.093v-5.122z"/><path fill="#fff" d="M78.981 134.448c1.401-10.314 6.555-23.039 6.555-23.039l-.586-9.332s-12.484 3.059-13.996 31.498z"/><path fill="#db4214" d="M71.287 129.851s2.525-1.043 8.644.842l-.95 3.755-8.027-1.236.333-3.368z"/><path fill="#413133" d="M74.54 142.924h-.071a3.12 3.12 0 0 1-2.32-1.067c-2.177-2.387-1.646-8.081-1.622-8.32-.056-11.589 4.718-23.704 9.372-28.695 2.684-2.881 5.36-2.51 5.463-2.487a.43.43 0 0 1 .292.185l2.486 3.701c.08.116.095.27.032.402-.08.162-7.544 16.711-8.756 28.3v4.288c0 1.128-.72 1.653-1.393 1.661a1.42 1.42 0 0 1-.87-.294c-.333 1.035-1.061 2.341-2.62 2.341zm10.402-39.766c-.697 0-2.525.217-4.41 2.241-4.44 4.767-9.198 16.896-9.15 28.168 0 .101-.523 5.609 1.409 7.734.467.51 1.02.765 1.702.78 1.82.039 2.074-2.789 2.082-2.82a.415.415 0 0 1 .435-.378c.23 0 .412.178.42.402.015.517.316.749.585.749h.008c.254 0 .554-.224.554-.827v-4.326c1.148-11.04 7.853-26.415 8.732-28.385l-2.248-3.338z"/><path fill="#413133" d="M78.593 134.819c-.04 0-.087 0-.126-.023-4.188-1.314-7.172-.819-7.204-.819a.433.433 0 0 1-.499-.34.425.425 0 0 1 .348-.487c.127-.023 3.206-.533 7.608.842a.418.418 0 0 1-.127.819z"/><path fill="#db4214" d="m86.177 101.111 16.394 1.63 16.395-1.63c.166-.124 2.034 5.941 2.034 5.941l-5.81 33.237-12.611 5.331-12.61-5.331-5.81-33.237s1.868-6.057 2.034-5.941z"/><path fill="#fff" d="M84.412 102.617c.538.317 1.084.626 1.63.897l.135.084s.3.928.736 2.681c1.22 4.86 3.539 16.124 3.602 31.854-5.027-.602-8.36-1.815-8.36-1.815-.466-5.246.848-19.555 1.077-21.973zM120.636 102.617c-.538.317-1.084.626-1.631.897l-.134.084s-.301.928-.736 2.681c-1.219 4.86-3.539 16.124-3.602 31.854 5.027-.602 8.359-1.815 8.359-1.815.467-5.246-.847-19.555-1.076-21.973zM95.067 123.099h15.017c.974 0 1.765-.773 1.765-1.723s-.791-1.723-1.765-1.723H95.067c-.974 0-1.765.773-1.765 1.723s.791 1.723 1.765 1.723M96.405 112.483c0-3.322 2.77-6.018 6.166-6.018 3.404 0 6.167 2.704 6.167 6.018 0 3.322-2.77 6.019-6.167 6.019-3.403 0-6.166-2.704-6.166-6.019m3.53 0c0 1.422 1.188 2.573 2.636 2.573 1.457 0 2.637-1.159 2.637-2.573 0-1.421-1.188-2.572-2.637-2.572-1.456 0-2.636 1.158-2.636 2.572M107.139 131.304c.451 0 .903-.17 1.251-.503a1.69 1.69 0 0 0 0-2.433l-4.56-4.45a1.793 1.793 0 0 0-2.493 0l-4.56 4.45a1.69 1.69 0 0 0 0 2.433 1.79 1.79 0 0 0 2.493 0l3.317-3.237 3.317 3.237c.348.34.8.503 1.251.503zM109.807 138.442c1.836-.054 4.362-.278 4.765-.309-1.456.17-3.055.286-4.765.309M108.635 138.45h1.172c-.443.016-.847.016-1.172 0M108.635 138.45s-.934-3.809-6.064-4.38c5.146.54 6.064 4.38 6.064 4.38M95.344 138.442c.388 0 .776.008 1.172 0-.325.016-.729.008-1.172 0M90.578 138.133c.404.039 2.921.255 4.766.309a47 47 0 0 1-4.766-.309"/><path fill="#fff" d="M102.571 134.07c-5.13.571-6.063 4.38-6.063 4.38s.918-3.84 6.063-4.38"/><path fill="#cf4119" d="M102.571 144.26c3.673 0 6.65-1.982 6.65-4.427s-2.977-4.427-6.65-4.427c-3.672 0-6.65 1.982-6.65 4.427s2.978 4.427 6.65 4.427"/><path fill="#db4214" d="M123.122 136.001s.72.154.61.943l.015 3.314s.103.788-.617 1.182c0 0-4.164 2.302-13.814 2.264 0 0-1.441-.047-1.931-.263l.34-5.2s9.381.263 15.405-2.24z"/><path fill="#413133" d="M123.122 136.001s.72.155.609.943l.016 3.314s.103.788-.617 1.182c0 0-4.085 2.264-13.537 2.264h-.269s-1.441-.047-1.932-.263l.341-5.199s.285.007.784.007c2.374 0 9.641-.177 14.621-2.248m-.016-.834a.8.8 0 0 0-.333.069c-4.876 2.024-12.167 2.179-14.288 2.179h-.784a.85.85 0 0 0-.855.78l-.34 5.2a.82.82 0 0 0 .498.811c.602.27 1.884.324 2.264.34h.301c9.571 0 13.79-2.272 13.964-2.372.927-.51 1.101-1.437 1.053-1.955v-3.221c.111-1.097-.704-1.685-1.29-1.808-.063-.016-.119-.016-.182-.016z"/><path fill="#db4214" d="M82.029 136.001s-.72.155-.61.943l-.016 3.314s-.102.788.618 1.182c0 0 4.164 2.302 13.814 2.264 0 0 1.44-.047 1.931-.263l-.34-5.199s-9.38.262-15.405-2.241z"/><path fill="#413133" d="M82.029 136.001c4.98 2.071 12.246 2.248 14.621 2.248.499 0 .784-.007.784-.007l.34 5.199c-.499.216-1.931.263-1.931.263h-.27c-9.46 0-13.536-2.264-13.536-2.264-.72-.394-.618-1.182-.618-1.182l.016-3.314c-.11-.788.61-.943.61-.943m-.016-.834c-.064 0-.119 0-.182.015-.586.124-1.401.711-1.283 1.808v3.222a2.01 2.01 0 0 0 1.045 1.954c.174.093 4.386 2.372 13.957 2.372h.277c.403-.015 1.678-.069 2.287-.34a.83.83 0 0 0 .5-.811l-.341-5.2a.85.85 0 0 0-.855-.78h-.784c-2.121 0-9.412-.154-14.289-2.179a.8.8 0 0 0-.332-.069z"/><path fill="#db4214" d="M102.571 147.065c3.673 0 6.65-2.906 6.65-6.49s-2.977-6.49-6.65-6.49c-3.672 0-6.65 2.906-6.65 6.49s2.978 6.49 6.65 6.49"/><path fill="#413133" d="M102.571 134.085c3.674 0 6.65 2.905 6.65 6.49s-2.976 6.49-6.65 6.49c-3.673 0-6.65-2.905-6.65-6.49s2.977-6.49 6.65-6.49m0-.834c-4.14 0-7.504 3.283-7.504 7.324 0 4.04 3.364 7.324 7.504 7.324 4.141 0 7.505-3.284 7.505-7.324 0-4.041-3.364-7.324-7.505-7.324"/><path fill="#f5bf36" d="M102.571 145.156c2.593 0 4.695-2.051 4.695-4.581s-2.102-4.582-4.695-4.582c-2.592 0-4.694 2.051-4.694 4.582s2.102 4.581 4.694 4.581"/><path fill="#db4214" d="M102.571 143.557c1.688 0 3.056-1.335 3.056-2.982s-1.368-2.982-3.056-2.982-3.055 1.335-3.055 2.982 1.368 2.982 3.055 2.982"/><path fill="#413133" d="M82.005 135.823a.43.43 0 0 1-.427-.409c-.032-1.708-.04-8.29 1.235-21.115.023-.232.237-.386.467-.379a.425.425 0 0 1 .387.456c-1.266 12.787-1.258 19.323-1.227 21.015a.426.426 0 0 1-.419.425z"/><path fill="#fff" d="M124.08 102.076s-.736-.069-1.678-.146c.118-.078.245-.163.364-.255l.166-.093s.024.008.048.023a.3.3 0 0 1 .126.054q.117.034.222.093c.103.031.198.077.309.124.126.046.245.1.372.162.023.008.047.023.071.031zM82.338 101.922c-.927.077-1.663.147-1.663.147a.2.2 0 0 1 .056-.031c.126-.054.245-.116.372-.162.103-.047.198-.093.308-.124.072-.031.143-.07.222-.093a.3.3 0 0 1 .127-.054c.008-.008.031-.008.047-.023l.15.093c.127.092.246.185.373.255z"/><path fill="#f0f2f3" d="M122.979 144.33c9.816 0 17.772-7.766 17.772-17.345s-7.956-17.345-17.772-17.345-17.771 7.766-17.771 17.345 7.956 17.345 17.771 17.345"/><path fill="#fff" d="M124.792 111.402c4.449 0 8.51 1.599 11.637 4.226a18 18 0 0 0-13.529-6.073c-9.863 0-17.851 7.803-17.851 17.422 0 5.285 2.415 10.005 6.222 13.204-2.691-3.052-4.33-7.015-4.33-11.357 0-9.627 7.996-17.422 17.851-17.422" opacity="0.78"/><path fill="#413133" d="M127.397 141.749a.3.3 0 0 1-.159-.046c-5.28-3.701-18.057-15.297-18.191-15.413a.3.3 0 0 1-.087-.209c.974-14.193 15.286-16.618 15.429-16.642a.27.27 0 0 1 .308.217.27.27 0 0 1-.221.301c-.143.023-13.949 2.372-14.97 16.039 1.172 1.066 13.03 11.774 18.041 15.29a.255.255 0 0 1 .063.363.28.28 0 0 1-.213.108z"/><path fill="#413133" d="M124.436 144.53a.267.267 0 0 1-.269-.247c0-.147.111-.262.253-.27 1.069-.047 2.336-1.924 2.739-2.642a.27.27 0 0 1 .182-.132c8.004-1.669 11.455-7.162 11.867-7.865-2.874-15.992-20.828-21.115-21.01-21.161a.26.26 0 0 1-.182-.325.27.27 0 0 1 .333-.177c.182.054 18.523 5.277 21.405 21.663a.3.3 0 0 1-.024.162c-.031.062-3.475 6.32-12.151 8.182-.309.526-1.686 2.751-3.119 2.805h-.008z"/><path fill="#413133" d="M135.289 138.226a.28.28 0 0 1-.214-.108c-9.459-12.354-22.751-20.705-22.885-20.79a.25.25 0 0 1-.08-.356.274.274 0 0 1 .373-.077c.134.085 13.513 8.483 23.028 20.914a.255.255 0 0 1-.056.363.24.24 0 0 1-.158.054zM105.295 128.893a.28.28 0 0 1-.182-.069.255.255 0 0 1-.016-.371c1.005-1.089 3.894-2.534 4.021-2.588.127-.062.293-.016.356.116a.253.253 0 0 1-.118.347c-.032.016-2.929 1.46-3.863 2.473a.3.3 0 0 1-.198.085zM108.406 137.16a.27.27 0 0 1-.238-.147.26.26 0 0 1 .119-.348c3.8-1.815 7.417-4.797 7.449-4.828a.28.28 0 0 1 .38.031.253.253 0 0 1-.032.363c-.039.031-3.696 3.059-7.56 4.898a.3.3 0 0 1-.118.023zM116.179 143.155a.27.27 0 0 1-.213-.108.255.255 0 0 1 .055-.363c2.391-1.731 5.304-5.887 5.336-5.934a.28.28 0 0 1 .372-.069c.118.077.15.239.071.363-.119.17-3 4.272-5.462 6.057a.3.3 0 0 1-.159.054"/><path fill="#413133" d="M122.979 144.747c-10.037 0-18.199-7.966-18.199-17.762 0-9.797 8.162-17.762 18.199-17.762s18.2 7.965 18.2 17.762c0 9.796-8.162 17.762-18.2 17.762m0-34.69c-9.562 0-17.344 7.595-17.344 16.928s7.782 16.927 17.344 16.927 17.345-7.594 17.345-16.927-7.782-16.928-17.345-16.928"/><path fill="#db4214" d="M134.244 113.565s2.201-.355 4.18 2.14c2.217 2.789 1.148 4.836 1.148 4.836l-1.837 1.353-5.082-7.325 1.591-.989z"/><path fill="#f9e4d6" d="M130.864 122.751s-1.029.618-1.884-.34.887-2.967 1.021-3.098l-1.156 1.623c-1.337.131-1.496-.603-1.496-.603-.847-1.391 3.373-4.211 3.373-4.211l-1.418.896s-1.701.201-1.796-1.128 1.464-1.274 1.464-1.274h3.151s2.47-.781 4.741 2.711c2.272 3.485.879 4.551.879 4.551s-3.222 4.095-4.773 2.99c0 0-.776-.51.388-2.248l-.705 1.421c-.491.186-1.235.309-1.654-.355-.681-1.066.918-2.866.918-2.866z"/><path fill="#413133" d="M136.017 111.919c.135 0 .27.062.349.178a.406.406 0 0 1-.111.579c-1.116.75-3.277 2.21-3.277 2.21l-.491-.688s2.161-1.46 3.277-2.209a.46.46 0 0 1 .246-.077z"/><path fill="#413133" d="M133.579 125.478c-.308 0-.593-.085-.863-.27-.103-.07-1.076-.788.285-2.812a.44.44 0 0 1 .594-.124.417.417 0 0 1 .127.58c-.729 1.089-.602 1.591-.491 1.692.823.587 2.937-1.353 4.172-2.913a.4.4 0 0 1 .079-.077s1.013-.943-.974-3.995c-2.05-3.136-4.164-2.557-4.251-2.534-.039.016-.087.016-.126.016h-3.151c-.158-.008-.641.038-.879.278-.126.131-.182.309-.158.548q.024.336.237.51c.317.255.879.255 1.077.232a.436.436 0 0 1 .475.363c.032.232-.135.433-.372.464-.103.015-1.069.108-1.726-.418a1.5 1.5 0 0 1-.554-1.097c-.04-.602.198-.981.404-1.189.546-.549 1.409-.541 1.504-.534h3.079c.467-.115 2.929-.517 5.154 2.898 2.256 3.453 1.132 4.79.831 5.06-.546.688-2.739 3.315-4.473 3.315z"/><path fill="#413133" d="M128.537 121.384c-1.156 0-1.489-.634-1.576-.866-.902-1.645 2.771-4.226 3.531-4.728a.44.44 0 0 1 .594.108.414.414 0 0 1-.111.58c-1.631 1.089-3.665 2.966-3.246 3.654.024.039.04.085.048.124 0 0 .134.363 1.029.27a.43.43 0 0 1 .467.371.424.424 0 0 1-.38.456c-.127.015-.246.015-.356.015zM131.933 124.605c-.554 0-1.006-.239-1.299-.703-.815-1.29.776-3.152.966-3.353a.427.427 0 0 1 .602-.038.41.41 0 0 1 .047.587c-.364.409-1.298 1.715-.878 2.372.079.123.316.494 1.14.185a.43.43 0 0 1 .554.24.413.413 0 0 1-.246.54c-.308.116-.601.17-.87.17z"/><path fill="#413133" d="M130.104 123.369c-.459 0-.989-.162-1.449-.68-1.171-1.313 1.014-3.639 1.037-3.662a.434.434 0 0 1 .602 0 .41.41 0 0 1 0 .587c-.412.418-1.496 1.97-1.005 2.527a1.05 1.05 0 0 0 1.338.255.44.44 0 0 1 .585.139.41.41 0 0 1-.142.571 1.96 1.96 0 0 1-.982.263zM138.068 122.087a.43.43 0 0 1-.341-.163.41.41 0 0 1 .08-.587c5.256-3.901 3.633-8.29 3.562-8.475-2.233-6.637-16.371-11.45-16.513-11.504a.424.424 0 0 1-.27-.533.44.44 0 0 1 .547-.263c.601.201 14.684 5.007 17.043 12.014.016.031 1.932 5.115-3.847 9.418a.46.46 0 0 1-.261.085z"/><path fill="#e8410b" d="M102.445 32.227s38.029-1.051 35.267 39.224c0 0 .403 11.14-5.763 21.517 0 0 1.464-9.465 1.401-13.791l.562-4.952s-.064-3.585-3.175-6.83c-.483-.95-9.016-9.65-9.016-9.65s-.641-1.097-2.715-.131l-14.614 5.957s-1.464.587-1.979.502c-.514.085-1.979-.51-1.979-.51l-14.597-5.988c-2.067-.966-2.716.124-2.716.124s-8.557 8.684-9.04 9.626c-3.119 3.245-3.198 6.822-3.198 6.822l.546 4.953c-.071 4.326 1.37 13.79 1.37 13.79-5.866-10.02-5.716-21.532-5.716-21.532-2.668-40.283 35.362-39.14 35.362-39.14Z"/><path fill="#413133" d="M121.19 57.359h-.087c-.498-.085-.443-.58-.419-.742.459-3.816 1.638-16.65-2.613-21.339a.51.51 0 0 1 .048-.734.54.54 0 0 1 .752.047c4.552 5.014 3.349 18.217 2.874 22.142l-.016.124s0 .062-.016.093a.54.54 0 0 1-.523.409M83.644 57.313a.54.54 0 0 1-.523-.41c0-.03-.008-.062-.008-.093l-.015-.123c-.467-3.925-1.631-17.136 2.929-22.135a.546.546 0 0 1 .752-.046.507.507 0 0 1 .04.734c-4.268 4.682-3.12 17.514-2.669 21.33.016.163.08.665-.42.743z"/><path fill="#5bb53c" d="m105.358 30.596 1.077-11.148c-.175-3.168-4.038-3.052-4.038-3.052l.04 14.03"/><path fill="#5bb53c" d="m109.3 31.377 2.058-5.656c.365-1.074.61-2.294.198-3.384-.736-1.954-3.617-2.472-5.311-1.182l-.95 9.217s3.34.394 4.005 1.012M99.524 30.542l-1.14-11.164c.158-3.167 4.013-2.982 4.013-2.982l.04 14.03"/><path fill="#5bb53c" d="m95.486 31.338-2.018-5.67c-.356-1.075-.594-2.295-.174-3.385.752-1.954 3.641-2.449 5.32-1.15l.886 9.216s-3.34.37-4.014.989"/><path fill="#413133" d="M109.316 31.67a.5.5 0 0 1-.174-.03.52.52 0 0 1-.325-.665l2.059-5.655c.435-1.283.498-2.256.205-3.037-.253-.68-.878-1.197-1.702-1.43-.981-.27-2.042-.092-2.786.48a.54.54 0 0 1-.586.046.5.5 0 0 1-.269-.502l.19-1.846c-.127-2.511-3.317-2.442-3.452-2.434h-.039c-.348-.016-3.325-.016-3.467 2.495l.174 1.77a.5.5 0 0 1-.277.502c-.19.1-.42.077-.586-.047-.736-.571-1.797-.757-2.779-.494-.823.224-1.448.742-1.71 1.422-.3.78-.245 1.746.182 3.044l2.011 5.663a.51.51 0 0 1-.324.656.53.53 0 0 1-.673-.316l-2.019-5.671c-.325-.974-.68-2.403-.174-3.74.38-.996 1.266-1.746 2.422-2.055a4.46 4.46 0 0 1 2.771.147l-.08-.857c.056-1.09.452-1.909 1.172-2.504 1.22-1.02 2.977-1.043 3.357-1.043h.016c1.607-.038 4.385.657 4.52 3.493l-.095.934a4.48 4.48 0 0 1 2.778-.131c1.156.317 2.027 1.074 2.407 2.07.507 1.33.127 2.766-.198 3.724l-2.058 5.671a.54.54 0 0 1-.499.348z"/><path fill="#413133" d="M99.54 30.898c-.27 0-.5-.201-.53-.472l-1.062-11.07a.523.523 0 0 1 .475-.565c.285-.023.554.185.578.464l1.061 11.07a.523.523 0 0 1-.475.565h-.047zM105.295 30.874h-.056a.52.52 0 0 1-.475-.563l1.14-11.064a.533.533 0 0 1 .578-.464.52.52 0 0 1 .475.564l-1.14 11.064a.527.527 0 0 1-.53.463z"/><path fill="#e8410b" d="M93.365 32.049c.736-.835 1.63-1.468 2.557-1.955 1.615-.834 3.38-1.228 5.13-1.383a14.791 14.791 0 0 1 6.23.757c1.219.425 2.398 1.043 3.411 1.955.483.433.95.935 1.291 1.53.008.015.071.146.079.154l-19.236-.347a6 6 0 0 1 .538-.711"/><path fill="#413133" d="M92.827 33.277a.5.5 0 0 1-.277-.077.51.51 0 0 1-.167-.71 5.7 5.7 0 0 1 .586-.773c.72-.82 1.63-1.515 2.715-2.079 1.528-.788 3.27-1.259 5.328-1.437.451-.038.918-.062 1.377-.062 1.75 0 3.46.286 5.067.85 1.409.487 2.62 1.182 3.594 2.055.491.44.871.866 1.163 1.29a.507.507 0 0 1-.15.72.534.534 0 0 1-.736-.148c-.246-.363-.57-.718-.998-1.104-.87-.78-1.955-1.407-3.229-1.847a14.3 14.3 0 0 0-4.719-.788h-.039c-.412 0-.831.015-1.243.054-1.916.17-3.53.603-4.932 1.321-.966.502-1.773 1.12-2.406 1.831-.19.217-.349.433-.491.65a.55.55 0 0 1-.451.246z"/><path fill="#413133" d="M102.136 32.219h.586c3.396 0 37.626.95 34.997 39.232 0 0 .095 37.309-35.369 37.309h-.064c-35.385-.039-35.195-37.394-35.195-37.394-2.525-38.127 31.412-39.147 35.053-39.147m-.008-1.036c-2.818 0-17.384.518-27.248 10.786-6.705 6.984-9.689 16.881-8.866 29.428 0 1.143.19 18.133 11.487 29.219 6.182 6.073 14.518 9.163 24.777 9.171h.064c10.299 0 18.674-3.083 24.888-9.171 11.305-11.063 11.542-27.998 11.542-29.134.855-12.562-2.113-22.475-8.818-29.474-9.872-10.3-24.422-10.824-27.24-10.824h-.586"/><path fill="#f9e4d6" d="M70.756 73.908s.08-3.616 3.238-6.884c.49-.95 9.143-9.696 9.143-9.696s.657-1.105 2.74-.124l14.715 6.073s1.473.595 1.995.518c.523.085 1.995-.503 1.995-.503l14.756-5.98c2.09-.965 2.739.132 2.739.132s8.589 8.8 9.072 9.75c3.135 3.284 3.198 6.9 3.198 6.9m-63.59-.186.26 14.579s-1.812 11.851 9.896 17.746c4.607 2.326 9.175 4.157 21.54 4.636 12.365-.441 16.94-2.272 21.556-4.582 11.723-5.871 9.942-17.723 9.942-17.723l.412-14.455"/><path fill="#f29e9f" d="M130.336 86.708c.003-2.283-2.589-4.137-5.79-4.14s-5.797 1.843-5.799 4.126 2.589 4.136 5.789 4.14 5.797-1.844 5.8-4.126"/><path fill="#cf9f86" d="M102.484 87.714s1.694-.07 1.916 2.094h-1.916z"/><path fill="#f29e9f" d="M86.22 86.661c.003-2.283-2.589-4.136-5.79-4.14s-5.796 1.844-5.8 4.126c-.002 2.283 2.59 4.137 5.79 4.14s5.797-1.843 5.8-4.126"/><path fill="#cf9f86" d="M102.484 87.714s-1.694-.07-1.923 2.094h1.915v-2.094z"/><path fill="#413133" d="M102.469 111.386c-12.524-.479-17.107-2.325-21.802-4.689-11.526-5.81-10.29-17.4-10.18-18.241l-.253-14.533V73.9c0-.2.142-3.847 3.34-7.185.792-1.236 7.671-8.213 9.16-9.712.213-.285 1.171-1.298 3.38-.255l14.692 6.058c.705.285 1.488.51 1.71.486.055 0 .119-.007.174 0 .206.031 1.006-.193 1.71-.47l14.756-5.98c2.193-1.02 3.143 0 3.356.285 1.473 1.507 8.312 8.537 9.096 9.773 3.167 3.346 3.293 6.977 3.293 7.201v.023l-.411 14.424c.11.858 1.306 12.431-10.228 18.21-4.702 2.357-9.286 4.188-21.778 4.636zM71.287 73.908l.26 14.563v.085c-.07.471-1.606 11.558 9.611 17.214 4.576 2.302 9.048 4.11 21.318 4.573 12.231-.44 16.712-2.232 21.287-4.527 11.233-5.625 9.729-16.719 9.658-17.19v-.093l.412-14.44c0-.2-.183-3.538-3.056-6.551a.7.7 0 0 1-.087-.124c-.348-.664-5.692-6.258-8.985-9.626a.5.5 0 0 1-.079-.1c-.008-.016-.483-.658-2.051.076l-14.779 5.988c-.364.147-1.552.603-2.209.549-.641.046-1.836-.418-2.2-.564l-14.725-6.073c-1.59-.75-2.058-.108-2.082-.085a1 1 0 0 1-.07.085c-3.31 3.345-8.7 8.908-9.049 9.572-.024.047-.055.085-.087.124-2.897 2.998-3.087 6.343-3.095 6.528z"/><path fill="#7e1800" d="M102.595 109.408c7.141-.332 11.004-2.75 13.086-5.354 2.272-2.843 2.43-5.918 2.39-6.79-.055-1.29-.514-2.566-1.519-3.4-.816-.672-2.027-1.144-3.737-.626-3.8 1.136-10.212 1.406-10.22 1.406s-6.428-.27-10.22-1.406c-1.71-.51-2.92-.038-3.736.626-1.013.834-1.465 2.11-1.52 3.4-.04.872.119 3.947 2.39 6.79 2.083 2.612 5.954 5.03 13.086 5.354"/><path fill="#413133" d="M102.595 109.926h-.031c-6.23-.293-10.766-2.163-13.482-5.555-2.604-3.252-2.525-6.744-2.501-7.13.07-1.585.68-2.921 1.71-3.771.807-.664 2.208-1.337 4.235-.726 3.673 1.097 10.03 1.383 10.093 1.39.214-.007 6.38-.285 10.046-1.39 2.034-.61 3.427.062 4.235.726 1.029.85 1.638 2.186 1.71 3.77.016.387.095 3.879-2.502 7.131-2.715 3.4-7.251 5.269-13.481 5.555h-.024zM90.982 93.54c-.752 0-1.425.239-2.01.726-.8.656-1.275 1.73-1.338 3.02-.016.348-.088 3.485 2.28 6.452 2.509 3.144 6.776 4.882 12.673 5.161 5.898-.279 10.165-2.017 12.674-5.161 2.367-2.959 2.296-6.104 2.28-6.451-.055-1.29-.53-2.365-1.338-3.021-.886-.726-1.979-.912-3.238-.533-3.791 1.135-10.085 1.421-10.354 1.429-.317-.008-6.602-.294-10.402-1.43a4.2 4.2 0 0 0-1.227-.192"/><path fill="#c93705" d="M102.595 107.183c1.512 0 3.657-.324 3.657-.324 2.375-.518 3.982-1.352 4.956-2.009l.071-.046c-2.675-2.132-8.676-1.932-8.692-1.924-.016 0-6.024-.208-8.692 1.924l.071.046c.974.657 2.59 1.491 4.956 2.009 0 0 2.145.324 3.657.324"/><path fill="#fff" d="M112.388 103.328s-.372.41-1.18.951c-.974.656-2.589 1.491-4.955 2.008 0 0-2.146.325-3.658.325s-3.657-.325-3.657-.325c-2.375-.517-3.982-1.352-4.956-2.008-.8-.541-1.18-.951-1.18-.951-2.105-1.985-3.245.062-3.292.155 2.09 2.611 5.953 5.029 13.093 5.354 7.141-.332 11.004-2.751 13.094-5.354-.048-.085-1.188-2.14-3.294-.155zM124.65 75.484c-.127 2.202-.776 6.274-3.594 8.027h-9.302s-1.971-.78-3.617-3.63z"/><path fill="#413133" d="M107.764 80.266a.53.53 0 0 1-.514-.386.513.513 0 0 1 .372-.633l17.067-4.49a.53.53 0 0 1 .649.364.51.51 0 0 1-.372.633l-17.067 4.49c-.047.015-.095.015-.135.015z"/><path fill="#ab8672" d="m121.262 84.346-9.84-.016a.525.525 0 0 1-.531-.517c0-.286.238-.518.531-.518l9.84.015c.293 0 .53.232.53.518a.524.524 0 0 1-.53.518"/><path fill="#fff" d="M80.343 75.43c.126 2.202.76 6.281 3.57 8.035h9.302s1.97-.757 3.625-3.6z"/><path fill="#413133" d="M97.22 80.25c-.047 0-.095 0-.142-.015l-17.06-4.527a.514.514 0 0 1-.372-.633c.08-.271.364-.44.65-.364l17.059 4.528a.514.514 0 0 1 .372.633.524.524 0 0 1-.515.379z"/><path fill="#ab8672" d="m93.547 84.315-9.84-.016a.524.524 0 0 1-.53-.517c0-.286.237-.518.53-.518l9.84.015c.293 0 .53.232.53.518a.524.524 0 0 1-.53.518"/><path fill="#413133" d="M111.636 79.216a2.18 2.18 0 0 0 2.026 1.375c1.195 0 2.169-.943 2.169-2.117 0-.124-.008-.24-.032-.356l-4.171 1.098zM93.35 79.193a2.16 2.16 0 0 1-2.035 1.367c-1.196 0-2.17-.95-2.17-2.117q-.001-.184.032-.355l4.164 1.112zM106.07 75.639c.214-.024.436-.093.61-.194l13.394-8.475c.523-.324.499-.827.166-1.329-.332-.51-.862-.827-1.385-.502l-12.254 7.896s-.752-.974-1.314-.95c-.705.03-.61 1.19-.618 1.985-.008.703.246 1.368.919 1.538.15.038.316.046.482.03M98.93 75.63a1.6 1.6 0 0 1-.61-.192L84.942 66.93c-.514-.332-.499-.826-.166-1.329.34-.502.87-.826 1.385-.502l12.23 7.927s.753-.973 1.315-.95c.704.03.601 1.19.617 1.993 0 .703-.253 1.368-.918 1.53-.15.039-.317.046-.483.03zM158.23 126.939c-2.034 0-4.029.309-5.945.911a9.4 9.4 0 0 0-4.069-.911c-1.71 0-3.364.455-4.805 1.305a9.4 9.4 0 0 0-4.805-1.305 9.46 9.46 0 0 0-4.069.911 19.8 19.8 0 0 0-5.945-.911 19.62 19.62 0 0 0-13.624 5.5c-3.008-3.453-7.433-5.5-12.183-5.5-2.311 0-4.6.486-6.673 1.421a16.47 16.47 0 0 0-10.465-.973 9.5 9.5 0 0 0-2.882-.448 9.42 9.42 0 0 0-6.91 3.005 10.96 10.96 0 0 0-5.645-2.843c1.06-2.843 1.496-6.196 1.496-10.855 0-11.527-9.602-20.899-21.413-20.899s-21.414 9.372-21.414 20.899c0 4.651.444 8.012 1.497 10.855-5.075.896-8.93 5.23-8.93 10.438v3.337c0 5.192 3.84 9.519 8.89 10.43a10.6 10.6 0 0 0-1.805 5.107v.139c0 .363-.055 3.616-.016 4.497a10.45 10.45 0 0 0 3.167 6.992c2.05 2.001 4.781 3.105 7.686 3.105s5.629-1.104 7.687-3.105l3.246-3.168 3.245 3.168c2.05 2.001 4.782 3.098 7.687 3.105 2.905 0 5.636-1.104 7.679-3.105 2.05-2.001 3.182-4.667 3.182-7.502 0-.835-.024-3.941-.024-3.941v-.154a10.57 10.57 0 0 0-1.805-5.146 11 11 0 0 0 3.207-1.097v8.113c0 5.014 4.18 9.093 9.317 9.093a9.44 9.44 0 0 0 6.673-2.758 9.45 9.45 0 0 0 6.674 2.758 9.44 9.44 0 0 0 6.673-2.758 9.45 9.45 0 0 0 6.673 2.758 9.49 9.49 0 0 0 7.26-3.407 19.66 19.66 0 0 0 11.874 3.994c2.319 0 4.575-.394 6.713-1.174a9.6 9.6 0 0 0 3.301.587c1.71 0 3.364-.456 4.805-1.306a9.4 9.4 0 0 0 4.805 1.306c5.138 0 9.31-4.079 9.31-9.093 0-.379.316-.68.696-.68s.697.309.697.68c0 5.014 4.18 9.093 9.317 9.093s9.318-4.079 9.318-9.093V145.79c0-10.399-8.669-18.859-19.324-18.859z"/><path fill="#e8410b" d="M158.23 129.28c-2.137 0-4.219.386-6.174 1.135a7.03 7.03 0 0 0-3.84-1.135 7 7 0 0 0-4.805 1.9 6.98 6.98 0 0 0-4.805-1.9 7 7 0 0 0-3.839 1.135 17.2 17.2 0 0 0-6.175-1.135 17.07 17.07 0 0 0-13.83 6.999c-2.295-4.164-6.808-6.999-11.977-6.999-2.375 0-4.663.594-6.673 1.707a13.75 13.75 0 0 0-6.674-1.707c-1.33 0-2.644.193-3.91.564a7.1 7.1 0 0 0-2.763-.564c-3.214 0-5.913 2.147-6.69 5.045-1.29-2.967-4.306-5.045-7.805-5.045h-1.789c1.782-2.82 2.826-6.181 2.826-13.019 0-10.237-8.533-18.565-19.022-18.565-10.49 0-19.023 8.328-19.023 18.565 0 6.838 1.045 10.199 2.826 13.019H32.3c-4.67 0-8.478 3.708-8.478 8.274v3.338c0 4.558 3.8 8.274 8.478 8.274h3.325l-2.264 2.21a8.22 8.22 0 0 0-2.454 5.238s-.056 3.515-.016 4.342a8.14 8.14 0 0 0 2.47 5.454 8.53 8.53 0 0 0 5.992 2.426c2.265 0 4.394-.857 5.993-2.426l4.932-4.813 4.932 4.813c3.3 3.222 8.684 3.222 11.985 0 1.599-1.56 2.486-3.639 2.486-5.848 0-.827-.024-3.917-.024-3.917a8.18 8.18 0 0 0-2.462-5.262l-2.264-2.209h3.325c3.309 0 6.174-1.862 7.575-4.566v13.736c0 3.724 3.104 6.753 6.92 6.753 3.182 0 5.865-2.109 6.673-4.96.807 2.858 3.49 4.96 6.673 4.96s5.866-2.109 6.673-4.96c.808 2.858 3.491 4.96 6.674 4.96 3.182 0 5.771-2.032 6.626-4.813 3.095 3.314 7.56 5.392 12.507 5.392a17.15 17.15 0 0 0 6.761-1.375c.981.51 2.09.788 3.253.788a7 7 0 0 0 4.805-1.9 6.98 6.98 0 0 0 4.806 1.9c3.815 0 6.918-3.028 6.918-6.752 0-1.661 1.386-3.013 3.088-3.013s3.087 1.352 3.087 3.013c0 3.724 3.103 6.752 6.919 6.752s6.918-3.028 6.918-6.752v-12.524c0-9.117-7.599-16.526-16.932-16.526z"/><path fill="#fff" d="M102.793 133.421a9.42 9.42 0 0 0-6.673 2.742 9.43 9.43 0 0 0-6.674-2.742c-1.622 0-3.15.409-4.48 1.12a2.7 2.7 0 0 0-2.193-1.12c-1.48 0-2.676 1.166-2.676 2.611v18.959c0 1.445 1.196 2.612 2.676 2.612s2.676-1.167 2.676-2.612v-12.446c0-2.156 1.797-3.902 3.997-3.902s3.998 1.754 3.998 3.902v12.446c0 1.445 1.195 2.612 2.676 2.612 1.48 0 2.675-1.167 2.675-2.612v-12.446c0-2.156 1.797-3.902 3.998-3.902s3.998 1.754 3.998 3.902v12.446c0 1.445 1.195 2.612 2.675 2.612 1.481 0 2.676-1.167 2.676-2.612v-12.446c0-5.03-4.195-9.124-9.349-9.124"/><path fill="#fff" d="M109.466 158.198c-1.812 0-3.285-1.437-3.285-3.207v-12.446c0-1.823-1.52-3.307-3.388-3.307s-3.388 1.484-3.388 3.307v12.446c0 1.77-1.473 3.207-3.285 3.207s-3.286-1.437-3.286-3.207v-12.446c0-1.823-1.52-3.307-3.388-3.307s-3.388 1.484-3.388 3.307v12.446c0 1.77-1.472 3.207-3.285 3.207s-3.285-1.437-3.285-3.207v-18.959c0-1.769 1.472-3.206 3.285-3.206.887 0 1.734.355 2.351.965a10.2 10.2 0 0 1 4.322-.965c2.494 0 4.837.888 6.674 2.511a10 10 0 0 1 6.673-2.511c5.494 0 9.967 4.365 9.967 9.727v12.446c0 1.769-1.473 3.206-3.286 3.206zm-6.673-20.15c2.541 0 4.607 2.017 4.607 4.497v12.446c0 1.113.927 2.017 2.066 2.017 1.14 0 2.067-.904 2.067-2.017v-12.446c0-4.705-3.919-8.53-8.74-8.53a8.8 8.8 0 0 0-6.238 2.565.63.63 0 0 1-.87 0 8.8 8.8 0 0 0-6.239-2.565 8.94 8.94 0 0 0-4.187 1.043.63.63 0 0 1-.8-.177 2.09 2.09 0 0 0-1.694-.866c-1.14 0-2.066.904-2.066 2.017v18.959c0 1.113.926 2.017 2.066 2.017s2.066-.904 2.066-2.017v-12.446c0-2.48 2.066-4.497 4.607-4.497s4.608 2.017 4.608 4.497v12.446c0 1.113.926 2.017 2.066 2.017s2.066-.904 2.066-2.017v-12.446c0-2.48 2.066-4.497 4.607-4.497zM68.27 133.421H32.316c-2.335 0-4.227 1.846-4.227 4.125s1.892 4.126 4.227 4.126h35.963c2.336 0 4.228-1.847 4.228-4.126s-1.892-4.125-4.228-4.125z"/><path fill="#fff" d="M68.27 142.274H32.316c-2.668 0-4.837-2.116-4.837-4.728s2.17-4.72 4.837-4.72h35.963c2.668 0 4.837 2.117 4.837 4.72 0 2.604-2.169 4.728-4.837 4.728zm-35.955-8.259c-1.995 0-3.618 1.584-3.618 3.531s1.623 3.531 3.618 3.531h35.963c1.995 0 3.618-1.584 3.618-3.531s-1.623-3.531-3.618-3.531zM50.293 130.678c8.146 0 14.771-6.467 14.771-14.417s-6.625-14.416-14.771-14.416-14.772 6.466-14.772 14.416 6.626 14.417 14.772 14.417m0-20.59c3.483 0 6.317 2.766 6.317 6.166 0 3.399-2.834 6.165-6.317 6.165s-6.317-2.766-6.317-6.165 2.834-6.166 6.317-6.166"/><path fill="#fff" d="M50.293 131.273c-8.486 0-15.39-6.737-15.39-15.019s6.904-15.02 15.39-15.02 15.389 6.737 15.389 15.02-6.903 15.019-15.39 15.019m0-28.841c-7.814 0-14.162 6.204-14.162 13.822s6.356 13.821 14.162 13.821c7.805 0 14.162-6.204 14.162-13.821 0-7.618-6.357-13.822-14.162-13.822m0 20.589c-3.824 0-6.927-3.036-6.927-6.76s3.111-6.76 6.927-6.76 6.926 3.036 6.926 6.76-3.11 6.76-6.926 6.76m0-12.338c-3.143 0-5.708 2.496-5.708 5.571s2.557 5.57 5.708 5.57c3.15 0 5.707-2.495 5.707-5.57s-2.557-5.571-5.707-5.571M53.285 143.627c-1.654-1.615-4.33-1.615-5.977 0l-10.924 10.661a4.05 4.05 0 0 0 0 5.833 4.24 4.24 0 0 0 2.992 1.206 4.29 4.29 0 0 0 2.993-1.206l7.94-7.749 7.94 7.749c1.654 1.615 4.33 1.615 5.976 0a4.05 4.05 0 0 0 0-5.833l-10.924-10.661Z"/><path fill="#fff" d="M39.36 161.937c-1.29 0-2.509-.494-3.42-1.383a4.64 4.64 0 0 1-1.416-3.338c0-1.259.506-2.449 1.417-3.337l10.924-10.662c1.884-1.839 4.956-1.839 6.848 0l10.924 10.662a4.657 4.657 0 0 1 0 6.683c-1.884 1.839-4.956 1.839-6.848 0l-7.504-7.324-7.505 7.324a4.88 4.88 0 0 1-3.42 1.383zm10.933-18.921c-.927 0-1.853.34-2.557 1.035L36.81 154.713a3.47 3.47 0 0 0-1.06 2.496c0 .942.38 1.831 1.06 2.495a3.64 3.64 0 0 0 2.557 1.036c.966 0 1.876-.364 2.557-1.036l7.94-7.749a.62.62 0 0 1 .863 0l7.94 7.749c1.41 1.375 3.705 1.375 5.114 0a3.475 3.475 0 0 0 0-4.991l-10.924-10.662a3.66 3.66 0 0 0-2.557-1.035zM158.23 133.421c-2.739 0-5.28.857-7.354 2.302-.158-1.298-1.282-2.302-2.66-2.302-1.48 0-2.675 1.166-2.675 2.611v18.959c0 1.445 1.195 2.612 2.675 2.612 1.481 0 2.676-1.167 2.676-2.612v-9.186c0-3.948 3.293-7.162 7.338-7.162 4.046 0 7.339 3.214 7.339 7.162v9.186c0 1.445 1.195 2.612 2.675 2.612 1.481 0 2.676-1.167 2.676-2.612v-9.186c0-6.83-5.692-12.384-12.69-12.384"/><path fill="#fff" d="M168.236 158.198c-1.812 0-3.285-1.437-3.285-3.207v-9.186c0-3.615-3.016-6.559-6.721-6.559s-6.721 2.944-6.721 6.559v9.186c0 1.77-1.472 3.207-3.285 3.207s-3.285-1.437-3.285-3.207v-18.959c0-1.769 1.472-3.206 3.285-3.206 1.346 0 2.518.795 3.024 1.947a13.45 13.45 0 0 1 6.99-1.947c7.331 0 13.299 5.825 13.299 12.979v9.186c0 1.77-1.472 3.207-3.285 3.207zm-10.006-20.15c4.386 0 7.948 3.477 7.948 7.757v9.186c0 1.113.926 2.017 2.066 2.017s2.066-.904 2.066-2.017v-9.186c0-6.497-5.414-11.79-12.08-11.79-2.525 0-4.939.758-6.998 2.195a.62.62 0 0 1-.601.061.59.59 0 0 1-.357-.479c-.118-1.012-1.005-1.777-2.05-1.777-1.14 0-2.066.904-2.066 2.017v18.959c0 1.113.926 2.017 2.066 2.017s2.066-.904 2.066-2.017v-9.186c0-4.28 3.563-7.757 7.948-7.757zM138.614 133.421c-1.37 0-2.502 1.004-2.66 2.302a12.84 12.84 0 0 0-7.354-2.302c-6.998 0-12.69 5.554-12.69 12.384s5.692 12.385 12.69 12.385c2.794 0 5.375-.889 7.473-2.38a2.67 2.67 0 0 0 2.541 1.8c1.48 0 2.676-1.166 2.676-2.611V136.04c0-1.445-1.196-2.612-2.676-2.612zM128.6 152.959c-4.045 0-7.338-3.214-7.338-7.162s3.293-7.161 7.338-7.161 7.338 3.214 7.338 7.161c0 3.948-3.293 7.162-7.338 7.162"/><path fill="#fff" d="M128.6 158.785c-7.33 0-13.299-5.826-13.299-12.98s5.969-12.979 13.299-12.979c2.486 0 4.892.672 6.99 1.947a3.3 3.3 0 0 1 3.024-1.947c1.813 0 3.285 1.437 3.285 3.206v18.959c0 1.77-1.472 3.207-3.285 3.207a3.3 3.3 0 0 1-2.787-1.507 13.4 13.4 0 0 1-7.227 2.086zm0-24.77c-6.658 0-12.08 5.285-12.08 11.79s5.415 11.782 12.08 11.782c2.573 0 5.027-.78 7.109-2.263a.6.6 0 0 1 .546-.085c.19.061.332.2.396.386a2.06 2.06 0 0 0 1.963 1.391c1.14 0 2.066-.904 2.066-2.017V136.04c0-1.113-.926-2.017-2.066-2.017-1.045 0-1.924.765-2.05 1.777a.6.6 0 0 1-.357.479.62.62 0 0 1-.601-.062 12.17 12.17 0 0 0-6.998-2.194zm0 19.547c-4.386 0-7.948-3.477-7.948-7.757s3.562-7.757 7.948-7.757 7.948 3.477 7.948 7.757-3.562 7.757-7.948 7.757m0-14.324c-3.705 0-6.721 2.944-6.721 6.56s3.016 6.559 6.721 6.559 6.721-2.944 6.721-6.559-3.016-6.56-6.721-6.56"/><path fill="url(#b)" d="M32.315 141.672h35.963a4.21 4.21 0 0 0 4.061-3.029H28.254a4.2 4.2 0 0 0 4.061 3.029" style="fill:url(#b)"/><path fill="url(#c)" d="M53.285 143.627c-1.654-1.615-4.33-1.615-5.977 0l-10.924 10.661a4.05 4.05 0 0 0 0 5.833 4.27 4.27 0 0 0 2.992 1.206 4.29 4.29 0 0 0 2.993-1.206l7.94-7.749 7.94 7.749c1.654 1.615 4.33 1.615 5.976 0a4.05 4.05 0 0 0 0-5.833l-10.924-10.661Z" style="fill:url(#c)"/><path fill="url(#d)" d="M80.09 154.991c0 1.445 1.195 2.612 2.675 2.612s2.676-1.167 2.676-2.612v-12.446c0-.301.04-.587.11-.873H80.09z" style="fill:url(#d)"/><path fill="url(#e)" d="M93.444 142.545v12.446c0 1.445 1.195 2.612 2.676 2.612 1.48 0 2.675-1.167 2.675-2.612v-12.446c0-.301.04-.587.111-.873h-5.573c.064.278.111.572.111.873" style="fill:url(#e)"/><path fill="url(#f)" d="M106.791 142.545v12.446c0 1.445 1.195 2.612 2.675 2.612 1.481 0 2.676-1.167 2.676-2.612v-12.446c0-.294-.024-.587-.055-.873h-5.407c.063.278.111.572.111.873" style="fill:url(#f)"/><path fill="url(#g)" d="M164.199 141.672a6.96 6.96 0 0 1 1.362 4.133v9.186c0 1.445 1.195 2.612 2.675 2.612 1.481 0 2.676-1.167 2.676-2.612v-9.186c0-1.452-.277-2.835-.752-4.133z" style="fill:url(#g)"/><path fill="url(#h)" d="M145.541 154.991c0 1.445 1.195 2.612 2.675 2.612 1.481 0 2.676-1.167 2.676-2.612v-9.186c0-1.537.515-2.959 1.362-4.133h-6.713z" style="fill:url(#h)"/><path fill="url(#i)" d="M135.938 145.805c0 3.948-3.293 7.162-7.338 7.162s-7.338-3.214-7.338-7.162c0-1.537.514-2.959 1.361-4.133h-5.961a12 12 0 0 0-.752 4.133c0 6.83 5.692 12.385 12.69 12.385 2.794 0 5.375-.889 7.473-2.38a2.67 2.67 0 0 0 2.541 1.8c1.48 0 2.676-1.166 2.676-2.611V141.68h-6.721a6.96 6.96 0 0 1 1.361 4.133z" style="fill:url(#i)"/><path fill="#fff" d="M109.466 157.827c-1.599 0-2.905-1.275-2.905-2.835v-12.447c0-2.032-1.694-3.678-3.768-3.678s-3.768 1.654-3.768 3.678v12.447c0 1.56-1.306 2.835-2.905 2.835-1.6 0-2.906-1.275-2.906-2.835v-12.447c0-2.032-1.694-3.678-3.768-3.678s-3.768 1.654-3.768 3.678v12.447c0 1.56-1.306 2.835-2.905 2.835-1.6 0-2.905-1.275-2.905-2.835v-18.96c0-1.561 1.306-2.835 2.905-2.835.879 0 1.71.394 2.256 1.05a9.8 9.8 0 0 1 4.417-1.05c2.51 0 4.877.942 6.674 2.65a9.65 9.65 0 0 1 6.673-2.65c5.28 0 9.579 4.195 9.579 9.348v12.447c0 1.56-1.306 2.835-2.906 2.835m-6.673-19.408c2.335 0 4.227 1.855 4.227 4.126v12.447c0 1.313 1.101 2.387 2.446 2.387s2.447-1.074 2.447-2.387v-12.447c0-4.906-4.093-8.9-9.12-8.9-2.462 0-4.773.95-6.515 2.673a.22.22 0 0 1-.166.069.23.23 0 0 1-.166-.069 9.17 9.17 0 0 0-6.508-2.673c-1.527 0-3.04.378-4.37 1.089a.24.24 0 0 1-.3-.069 2.47 2.47 0 0 0-2.01-1.02c-1.347 0-2.447 1.074-2.447 2.387v18.96c0 1.313 1.1 2.387 2.446 2.387s2.446-1.074 2.446-2.387v-12.447c0-2.279 1.9-4.126 4.227-4.126s4.228 1.855 4.228 4.126v12.447c0 1.313 1.1 2.387 2.446 2.387s2.446-1.074 2.446-2.387v-12.447c0-2.279 1.9-4.126 4.227-4.126zM68.27 141.896H32.316c-2.454 0-4.457-1.955-4.457-4.35s2.003-4.349 4.457-4.349h35.963c2.462 0 4.457 1.954 4.457 4.349s-2.003 4.35-4.457 4.35zm-35.955-8.251c-2.2 0-3.998 1.754-3.998 3.901 0 2.148 1.797 3.902 3.998 3.902h35.963c2.209 0 3.998-1.754 3.998-3.902 0-2.147-1.797-3.901-3.998-3.901zM50.293 130.902c-8.273 0-15.001-6.567-15.001-14.641s6.728-14.64 15-14.64 15.01 6.567 15.01 14.64-6.729 14.641-15.01 14.641m0-28.841c-8.02 0-14.542 6.366-14.542 14.193 0 7.826 6.523 14.192 14.542 14.192s14.55-6.366 14.55-14.192-6.523-14.193-14.55-14.193m0 20.582c-3.61 0-6.547-2.866-6.547-6.389s2.937-6.39 6.547-6.39 6.547 2.867 6.547 6.39-2.937 6.389-6.547 6.389m0-12.331c-3.357 0-6.088 2.666-6.088 5.942 0 3.275 2.731 5.941 6.088 5.941 3.356 0 6.087-2.666 6.087-5.941s-2.73-5.942-6.087-5.942"/><path fill="#fff" d="M39.368 161.558a4.5 4.5 0 0 1-3.15-1.274 4.25 4.25 0 0 1-1.306-3.075 4.28 4.28 0 0 1 1.306-3.075l10.924-10.662c1.734-1.692 4.568-1.7 6.301 0l10.925 10.662a4.25 4.25 0 0 1 1.306 3.075 4.28 4.28 0 0 1-1.306 3.075c-1.734 1.699-4.56 1.699-6.301 0l-7.774-7.587-7.774 7.587a4.46 4.46 0 0 1-3.15 1.274m10.925-18.913a4.03 4.03 0 0 0-2.826 1.136l-10.925 10.662a3.834 3.834 0 0 0 0 5.516 4.03 4.03 0 0 0 2.826 1.144 4 4 0 0 0 2.826-1.144l7.94-7.749a.24.24 0 0 1 .325 0l7.94 7.749c1.567 1.522 4.1 1.522 5.66 0a3.85 3.85 0 0 0 1.172-2.758 3.8 3.8 0 0 0-1.172-2.758l-10.924-10.662a4.06 4.06 0 0 0-2.826-1.136zM168.236 157.827c-1.599 0-2.905-1.275-2.905-2.835v-9.187c0-3.824-3.19-6.938-7.109-6.938s-7.108 3.114-7.108 6.938v9.187c0 1.56-1.306 2.835-2.906 2.835-1.599 0-2.905-1.275-2.905-2.835v-18.96c0-1.561 1.306-2.835 2.905-2.835 1.346 0 2.502.904 2.819 2.147a13.03 13.03 0 0 1 7.195-2.147c7.125 0 12.92 5.655 12.92 12.608v9.187c0 1.56-1.306 2.835-2.906 2.835m-10.006-19.408c4.172 0 7.568 3.315 7.568 7.386v9.187c0 1.313 1.101 2.387 2.446 2.387s2.447-1.074 2.447-2.387v-9.187c0-6.706-5.589-12.16-12.461-12.16-2.604 0-5.098.78-7.219 2.263a.24.24 0 0 1-.23.024.23.23 0 0 1-.134-.178c-.151-1.198-1.188-2.109-2.431-2.109-1.345 0-2.446 1.074-2.446 2.387v18.96c0 1.313 1.101 2.387 2.446 2.387s2.447-1.074 2.447-2.387v-9.187c0-4.071 3.396-7.386 7.567-7.386M128.6 158.414c-7.125 0-12.919-5.655-12.919-12.609s5.794-12.608 12.919-12.608c2.581 0 5.058.741 7.196 2.147.316-1.243 1.472-2.147 2.818-2.147 1.599 0 2.905 1.274 2.905 2.835v18.96c0 1.56-1.306 2.835-2.905 2.835a2.91 2.91 0 0 1-2.652-1.677 13 13 0 0 1-7.362 2.256zm0-24.769c-6.871 0-12.46 5.454-12.46 12.16s5.589 12.161 12.46 12.161c2.652 0 5.185-.811 7.33-2.341a.22.22 0 0 1 .206-.031.24.24 0 0 1 .151.147 2.44 2.44 0 0 0 2.319 1.646c1.346 0 2.446-1.074 2.446-2.388V136.04c0-1.314-1.1-2.388-2.446-2.388-1.235 0-2.28.904-2.43 2.11a.23.23 0 0 1-.135.177c-.079.039-.158.024-.229-.023a12.53 12.53 0 0 0-7.22-2.264zm0 19.539c-4.172 0-7.568-3.315-7.568-7.386 0-4.072 3.396-7.386 7.568-7.386s7.568 3.314 7.568 7.386c0 4.071-3.396 7.386-7.568 7.386m0-14.317c-3.919 0-7.109 3.114-7.109 6.938 0 3.825 3.19 6.938 7.109 6.938s7.109-3.113 7.109-6.938-3.19-6.938-7.109-6.938"/><path fill="#413133" d="M54.623 184.644c-.095 0-.15-.008-.182-.031a.3.3 0 0 1-.095-.139l-2.7-6.768c-.04-.101-.047-.178-.023-.24s.079-.092.206-.092h1.108c.079 0 .15.007.198.023a.23.23 0 0 1 .079.108l1.94 4.991 1.939-4.991c.024-.046.055-.093.095-.108a.7.7 0 0 1 .182-.023h1.108q.166 0 .214.092c.024.062.008.139-.032.24l-2.7 6.768a.6.6 0 0 1-.094.139.4.4 0 0 1-.182.031zM63.236 177.18c.61 0 1.18.101 1.686.278.515.194.95.449 1.322.788.364.34.657.75.855 1.206a3.9 3.9 0 0 1 .309 1.56c0 .564-.103 1.09-.31 1.546-.205.479-.49.88-.854 1.22a4 4 0 0 1-1.322.788 5.1 5.1 0 0 1-1.686.278c-.61 0-1.18-.1-1.686-.278a4 4 0 0 1-1.322-.788 3.5 3.5 0 0 1-.855-1.22 3.75 3.75 0 0 1-.309-1.546 3.9 3.9 0 0 1 .309-1.56c.205-.456.49-.866.855-1.206a3.9 3.9 0 0 1 1.322-.788 5.2 5.2 0 0 1 1.686-.278m0 6.196c.372 0 .712-.054 1.029-.169.309-.109.57-.271.8-.479a2.2 2.2 0 0 0 .514-.75q.18-.43.182-.966c0-.355-.063-.672-.182-.965a2.2 2.2 0 0 0-.514-.75 2.5 2.5 0 0 0-.8-.479 3.2 3.2 0 0 0-1.03-.17c-.387 0-.728.062-1.028.17a2.3 2.3 0 0 0-.8.479 2.2 2.2 0 0 0-.514.75 2.6 2.6 0 0 0-.183.965c0 .348.064.68.183.966.118.301.285.549.514.75q.323.314.8.479c.308.115.64.169 1.029.169M68.714 177.621c0-.163.079-.24.245-.24h1.108c.167 0 .246.077.246.24v5.655h3.23c.166 0 .245.077.245.24v.888c0 .162-.079.24-.245.24h-4.354c-.182 0-.309-.031-.372-.093-.071-.07-.103-.201-.103-.379v-6.559zM74.817 177.621c0-.163.08-.24.246-.24h1.108c.166 0 .245.077.245.24v5.655h3.23c.166 0 .246.077.246.24v.888q.002.242-.246.24h-4.354c-.182 0-.308-.031-.364-.093-.071-.07-.103-.201-.103-.379v-6.559zM85.955 177.381c.167 0 .246.077.246.24v.888q.001.242-.246.24H82.52v1.529h3.333q.247-.001.245.24v.888c0 .163-.08.24-.245.24H82.52v1.638h3.49c.167 0 .246.077.246.239v.889c0 .162-.079.239-.245.239h-4.615c-.182 0-.31-.031-.364-.092-.072-.07-.103-.201-.103-.379v-6.327c0-.178.031-.31.103-.379q.093-.093.364-.093zM91.212 181.754v2.496c0 .139-.032.239-.095.309q-.096.092-.309.092h-.8q-.213 0-.308-.092c-.064-.07-.095-.17-.095-.309v-2.496l-2.557-4.118c-.064-.093-.071-.17-.032-.239q.036-.093.214-.093h1.084c.08 0 .135.008.175.023.031.023.063.062.103.108l1.812 2.944 1.813-2.944c.032-.046.063-.092.103-.108a.7.7 0 0 1 .174-.023h1.085q.164 0 .221.093c.024.069.008.146-.04.239l-2.556 4.118zM95.289 184.644c-.182 0-.31-.031-.372-.093-.072-.07-.103-.201-.103-.379v-6.327c0-.178.031-.309.103-.379.063-.062.182-.092.372-.092h3.253c.776 0 1.378.17 1.797.509.412.348.626.819.626 1.399 0 .317-.08.626-.238.911a1.66 1.66 0 0 1-.689.688c.38.162.689.386.911.688.213.316.324.649.324 1.004 0 .719-.221 1.252-.673 1.576-.451.317-1.132.487-2.042.487h-3.27zm4.076-5.138c0-.502-.324-.757-.957-.757h-1.995v1.514h1.995c.633 0 .957-.247.957-.757m-.767 3.77c.395 0 .688-.062.855-.193.166-.116.245-.332.245-.626 0-.293-.08-.51-.245-.641-.175-.116-.46-.193-.855-.193h-2.185v1.645h2.185zM105.944 177.381q.12-.002.182.031a.5.5 0 0 1 .095.139l2.699 6.768a.4.4 0 0 1 .032.24q-.048.092-.214.092h-1.108a.45.45 0 0 1-.182-.023.26.26 0 0 1-.095-.108l-.499-1.275h-2.897l-.491 1.275c-.024.054-.047.093-.079.108-.04.008-.111.023-.198.023h-1.108c-.119 0-.182-.031-.206-.092-.032-.062-.024-.139.024-.24l2.699-6.768c.024-.062.048-.108.095-.139q.05-.033.182-.031h1.061zm-1.449 4.489h1.829l-.911-2.333zM109.894 177.621c0-.163.079-.24.245-.24h1.109c.166 0 .245.077.245.24v5.655h3.23c.166 0 .245.077.245.24v.888c0 .162-.079.24-.245.24h-4.354c-.182 0-.309-.031-.364-.093-.071-.07-.103-.201-.103-.379v-6.559zM115.997 177.621c0-.163.08-.24.246-.24h1.108c.166 0 .245.077.245.24v5.655h3.23c.167 0 .246.077.246.24v.888c0 .162-.079.24-.246.24h-4.354c-.182 0-.308-.031-.364-.093-.071-.07-.103-.201-.103-.379v-6.559zM124.784 180.981c0-.571.103-1.089.325-1.56a3.65 3.65 0 0 1 .871-1.198 3.9 3.9 0 0 1 1.266-.78c.467-.178.982-.27 1.52-.27.246 0 .515.023.776.061.253.054.515.109.76.178.245.077.467.17.689.271q.306.152.554.316c.071.062.111.101.119.132 0 .038-.024.1-.064.17l-.514.842c-.064.1-.111.139-.167.139-.063.008-.142-.023-.221-.077a3.4 3.4 0 0 0-.903-.433 4.5 4.5 0 0 0-1.029-.131c-.285 0-.57.046-.847.146-.285.101-.53.248-.744.441a2.15 2.15 0 0 0-.538.741 2.35 2.35 0 0 0-.206 1.02c0 .379.063.726.198 1.02.127.301.285.549.514.749.206.201.46.348.745.449.277.108.569.162.902.162.467 0 .871-.047 1.203-.147.325-.1.626-.247.879-.471a.33.33 0 0 1 .222-.093.22.22 0 0 1 .166.1l.483.85c.071.132.047.232-.048.309a4.4 4.4 0 0 1-1.361.711 5.7 5.7 0 0 1-1.544.216c-.53 0-1.061-.092-1.544-.262a3.65 3.65 0 0 1-1.266-.757 3.4 3.4 0 0 1-.855-1.221c-.222-.471-.325-1.004-.325-1.63zM132.724 177.621c0-.163.08-.24.246-.24h1.108c.166 0 .245.077.245.24v5.655h3.23c.166 0 .246.077.246.24v.888q.001.242-.246.24h-4.354q-.274 0-.372-.093c-.071-.07-.103-.201-.103-.379v-6.559zM144.884 182.071c0 .456-.08.85-.222 1.19-.15.347-.364.641-.633.88-.277.232-.602.41-.974.526a4.4 4.4 0 0 1-1.259.177c-.451 0-.878-.061-1.25-.177a2.8 2.8 0 0 1-.982-.526 2.24 2.24 0 0 1-.633-.88c-.151-.34-.222-.727-.222-1.19v-4.45c0-.163.079-.24.245-.24h1.109c.166 0 .245.077.245.24v4.303c0 .301.032.541.111.742a.98.98 0 0 0 .309.479c.118.116.285.208.467.262.174.062.38.078.601.078.222 0 .428-.023.61-.078.174-.046.324-.139.467-.262.127-.116.222-.278.309-.479a2.5 2.5 0 0 0 .103-.742v-4.303c0-.163.079-.24.245-.24h1.108c.166 0 .246.077.246.24zM146.942 184.644c-.182 0-.309-.031-.372-.093-.071-.07-.103-.201-.103-.379v-6.327c0-.178.032-.309.103-.379.063-.062.182-.092.372-.092h3.253c.776 0 1.378.17 1.797.509.412.348.626.819.626 1.399 0 .317-.079.626-.238.911a1.67 1.67 0 0 1-.688.688c.38.162.688.386.91.688q.323.473.325 1.004c0 .719-.222 1.252-.673 1.576-.452.317-1.132.487-2.043.487h-3.269zm4.085-5.138c0-.502-.325-.757-.958-.757h-1.995v1.514h1.995c.633 0 .958-.247.958-.757m-.768 3.77c.396 0 .688-.062.855-.193.166-.116.245-.332.245-.626 0-.293-.079-.51-.245-.641-.174-.116-.459-.193-.855-.193h-2.185v1.645h2.185z"/></g></svg>