<svg xmlns="http://www.w3.org/2000/svg" xml:space="preserve" width="410.94617" height="726.53101" viewBox="0 0 410.94617 726.53101"><defs><clipPath id="a" clipPathUnits="userSpaceOnUse"><path d="M0 510h907V0H0Z"/></clipPath></defs><g clip-path="url(#a)" style="display:inline" transform="matrix(3.13606 0 0 -3.13606 -1269.772 1091.995)"><g style="fill:#fff"><path d="M0 0c0-.47-.062-.82-.184-1.03-.128-.21-.428-.318-.9-.318-.641 0-1.308.057-2.001.172v-1.863c.149-.038.335-.083.553-.128.218-.05.375-.076.469-.095.09-.012.224-.025.394-.044a5.35 5.35 0 0 1 .585-.026c1.133 0 1.976.249 2.537.744.556.503.833 1.183.833 2.047v6.607H0Z" style="fill:#fff;fill-opacity:1;fill-rule:nonzero;stroke:none" transform="translate(422.612 342.026)"/></g><g style="fill:#fff"><path d="M0 0c0-.299-.118-.528-.356-.667C-.59-.814-.892-.89-1.257-.89s-.665.076-.895.223C-2.383-.528-2.5-.299-2.5 0v6.67h-2.312V.038c0-.775.293-1.437.876-1.977.582-.54 1.474-.814 2.679-.814 1.204 0 2.099.274 2.686.814.588.54.882 1.202.882 1.977V6.67H0Z" style="fill:#fff;fill-opacity:1;fill-rule:nonzero;stroke:none" transform="translate(431.182 341.422)"/></g><g style="fill:#fff"><path d="M0 0a10.741 10.741 0 0 0-1.245-.076c-.881 0-1.32.432-1.32 1.31v3.172c0 .407.097.719.293.935.195.216.54.325 1.027.325.627 0 1.535-.096 2.73-.293v1.895c-1.072.19-1.98.286-2.73.286-1.111 0-1.961-.255-2.544-.757-.583-.508-.876-1.195-.876-2.073V.871c0-.858.293-1.545.883-2.054.589-.508 1.434-.762 2.537-.762 1.125 0 2.195.146 3.211.438V2.83H0Z" style="fill:#fff;fill-opacity:1;fill-rule:nonzero;stroke:none" transform="translate(448.197 340.652)"/></g><g style="fill:#fff"><path d="m0 0-2.928 5.055h-1.966v-9.264h2.14V.845L.175-4.209h1.963v9.264H0Z" style="fill:#fff;fill-opacity:1;fill-rule:nonzero;stroke:none" transform="translate(439.924 343.037)"/></g><g style="fill:#fff"><path d="M0 0c0-.47-.062-.82-.186-1.03-.126-.21-.421-.318-.898-.318-.642 0-1.308.057-2.002.172v-1.863c.15-.038.335-.083.555-.128.217-.05.373-.076.467-.095.091-.012.226-.025.394-.044.17-.019.365-.026.586-.026 1.134 0 1.977.249 2.535.744.559.503.836 1.183.836 2.047v6.607H0Z" style="fill:#fff;fill-opacity:1;fill-rule:nonzero;stroke:none" transform="translate(494.647 342.026)"/></g><g style="fill:#fff"><path d="M0 0v-2.83a10.92 10.92 0 0 0-1.243-.076c-.882 0-1.322.433-1.322 1.31v3.173c0 .407.098.718.294.934.195.217.541.325 1.028.325.625 0 1.534-.096 2.727-.293v1.895c-1.071.191-1.978.286-2.727.286-1.112 0-1.963-.254-2.546-.757-.582-.508-.876-1.195-.876-2.072v-3.853c0-.858.294-1.545.884-2.054.588-.509 1.435-.763 2.538-.763 1.124 0 2.194.146 3.21.439V0Z" style="fill:#fff;fill-opacity:1;fill-rule:nonzero;stroke:none" transform="translate(519.335 343.482)"/></g><g style="fill:#fff"><path d="m0 0-2.926 5.055h-1.967v-9.264h2.14V.845L.176-4.209H2.14v9.264H0Z" style="fill:#fff;fill-opacity:1;fill-rule:nonzero;stroke:none" transform="translate(511.062 343.037)"/></g><g style="fill:#fff"><path d="m0 0 .749 3.16L1.497 0Zm-.394 5.773-2.721-9.264h2.288l.404 1.704h2.345l.407-1.704h2.283l-2.72 9.264z" style="fill:#fff;fill-opacity:1;fill-rule:nonzero;stroke:none" transform="translate(500.648 342.318)"/></g><g style="fill:#fff"><path d="M0 0h-2.445l-2.22-4.724 2.298-4.54H.336l-2.582 4.711z" style="fill:#fff;fill-opacity:1;fill-rule:nonzero;stroke:none" transform="translate(461.206 348.092)"/></g><path d="M453.974 338.828h2.271v9.264h-2.271z" style="fill:#fff;fill-opacity:1;fill-rule:nonzero;stroke:none"/><g style="fill:#fff"><path d="m0 0-2.929 5.055h-1.964v-9.264h2.139V.845l2.93-5.054h1.963v9.264H0Z" style="fill:#fff;fill-opacity:1;fill-rule:nonzero;stroke:none" transform="translate(486.425 343.037)"/></g><g style="fill:#fff"><path d="m0 0 .749 3.16L1.497 0Zm-.395 5.773-2.721-9.264h2.289l.404 1.704H1.92l.407-1.704h2.285l-2.72 9.264z" style="fill:#fff;fill-opacity:1;fill-rule:nonzero;stroke:none" transform="translate(476.188 342.318)"/></g><g style="fill:#fff"><path d="m0 0-1.447-6.447L-2.896 0h-2.418l.471-1.609-1.087-4.838L-7.379 0h-2.418l2.731-9.264h2.274l1.104 3.739 1.1-3.739h2.277L2.42 0Z" style="fill:#fff;fill-opacity:1;fill-rule:nonzero;stroke:none" transform="translate(471.646 348.092)"/></g><path d="M470.841 327.567h2.842v-8.106h-2.842zm2.131 4.744h-7.256v-25.445h5.125v7.858h2.131a5.87 5.87 0 0 1 5.87 5.869v5.843a5.874 5.874 0 0 1-5.87 5.875" style="fill:#fff;fill-opacity:1;fill-rule:nonzero;stroke:none"/><g style="fill:#fff"><path d="m0 0 1.25 9.543L2.5 0Zm3.444-7.191h5.124L3.963 18.248h-5.421L-6.067-7.191h5.123l.417 3.153h3.558z" style="fill:#fff;fill-opacity:1;fill-rule:nonzero;stroke:none" transform="translate(484.483 314.057)"/></g><g style="fill:#fff"><path d="M0 0h-5.123l-2.733-10.701h-.848V0h-5.123v-25.438h5.123v10.7h.848l2.733-10.7H0l-3.247 12.722z" style="fill:#fff;fill-opacity:1;fill-rule:nonzero;stroke:none" transform="translate(523.48 332.304)"/></g><path d="M440.659 327.567h-2.841v-15.965h2.841zm-.713-20.701h-7.256v25.445h7.256a5.88 5.88 0 0 0 4.151-1.723 5.869 5.869 0 0 0 1.719-4.152v-13.702a5.864 5.864 0 0 0-5.87-5.868" style="fill:#fff;fill-opacity:1;fill-rule:nonzero;stroke:none"/><g style="fill:#fff"><path d="m0 0-.954 4.737h-9.821v-25.445h9.821L0-15.965h-5.65v5.767h4.377v4.431H-5.65V0Z" style="fill:#fff;fill-opacity:1;fill-rule:nonzero;stroke:none" transform="translate(430.935 327.567)"/></g><g style="fill:#fff"><path d="M0 0h2.842v-8.412H0Zm3.584-20.708h5.125L6.082-11.33a6.569 6.569 0 0 1 1.92 4.642v5.557a5.88 5.88 0 0 1-1.718 4.152A5.877 5.877 0 0 1 2.13 4.737h-7.253v-25.445H0v7.858h1.385z" style="fill:#fff;fill-opacity:1;fill-rule:nonzero;stroke:none" transform="translate(410.019 327.567)"/></g><g style="fill:#fff"><path d="M0 0h2.842v-8.412H0Zm3.584-20.708h5.123L6.082-11.33a6.569 6.569 0 0 1 1.92 4.642v5.557a5.876 5.876 0 0 1-1.719 4.152 5.879 5.879 0 0 1-4.154 1.716h-7.254v-25.445H0v7.858h1.383z" style="fill:#fff;fill-opacity:1;fill-rule:nonzero;stroke:none" transform="translate(499.526 327.567)"/></g><g style="fill:#fff"><path d="m0 0-.954 4.737h-4.644a5.872 5.872 0 0 1-5.871-5.868v-4.801a4.253 4.253 0 0 1 4.244-4.241h2.065v-5.792h-6.309l.953-4.743h4.643c1.559 0 3.053.623 4.152 1.723A5.866 5.866 0 0 1 0-14.833v4.794a4.243 4.243 0 0 1-1.243 3.001 4.243 4.243 0 0 1-2.999 1.24h-2.067V0Z" style="fill:#fff;fill-opacity:1;fill-rule:nonzero;stroke:none" transform="translate(463.624 327.567)"/></g><g style="fill:#fff"><path d="m0 0-.953 4.737h-4.642a5.879 5.879 0 0 1-4.151-1.716 5.862 5.862 0 0 1-1.722-4.152v-4.801a4.252 4.252 0 0 1 4.245-4.241h2.064v-5.792h-6.309l.954-4.743h4.641c1.56 0 3.054.623 4.155 1.723A5.868 5.868 0 0 1 0-14.833v4.794a4.242 4.242 0 0 1-1.242 3.001 4.244 4.244 0 0 1-3 1.24h-2.067V0Z" style="fill:#fff;fill-opacity:1;fill-rule:nonzero;stroke:none" transform="translate(535.93 327.567)"/></g><path d="M0 0v-19.291h46.009c2.161 8.769 10.074 15.273 19.51 15.273 9.437 0 17.35-6.504 19.511-15.273h46.009V0Z" style="fill:#d8002a;fill-opacity:1;fill-rule:nonzero;stroke:none" transform="translate(404.894 299.827)"/><path d="M0 0c-2.532 3.427-6.269 5.919-10.593 6.803a16.16 16.16 0 0 1-2.422-2.428C-10.267 4.311-4.784 3.675 0 0" style="fill:#d8002a;fill-opacity:1;fill-rule:nonzero;stroke:none" transform="translate(484.53 286.113)"/><path d="M0 0c-1.575 2.632-6.088 11.527-1.699 20.899a17.444 17.444 0 0 1-4.822-3.649C-10.54 8.653-6.071.496-4.97-1.284-3.031-1.246-1.38-.731 0 0" style="fill:#d8002a;fill-opacity:1;fill-rule:nonzero;stroke:none" transform="translate(464.121 270.427)"/><path d="M0 0a10.944 10.944 0 0 1-1.378-4.953c3.05.051 13.024-.477 18.957-8.965.016.293.044.579.044.877 0 1.762-.267 3.459-.752 5.068C11.43-.133 2.08.057 0 0" style="fill:#d8002a;fill-opacity:1;fill-rule:nonzero;stroke:none" transform="translate(470.349 288.752)"/><path d="M0 0c2.114 1.558 3.357 3.497 3.832 4.336-1.158 2.016-5.189 10.358 2.24 17.523-.413.032-.823.064-1.243.064-1.905 0-3.735-.318-5.454-.878C-6.223 11.769-1.532 2.55 0 0" style="fill:#d8002a;fill-opacity:1;fill-rule:nonzero;stroke:none" transform="translate(465.585 271.35)"/><path d="M0 0c.293-2.607 1.357-4.654 1.849-5.481 2.327-.006 11.577-.686 14.062-10.72a17.501 17.501 0 0 1 2.644 6.219C13.326-.496 2.966.051 0 0" style="fill:#d8002a;fill-opacity:1;fill-rule:nonzero;stroke:none" transform="translate(469.036 282.07)"/><path d="M0 0a10.916 10.916 0 0 1-3.602 3.663C-5.096.986-10.549-7.362-20.861-8.246a17.416 17.416 0 0 1 5.55-2.365C-5.831-9.811-.997-1.844 0 0" style="fill:#d8002a;fill-opacity:1;fill-rule:nonzero;stroke:none" transform="translate(481.735 269.238)"/><path d="M0 0c4.476.471 8.443 2.645 11.279 5.843a16.05 16.05 0 0 1-.886 3.274C8.951 6.752 5.631 2.295 0 0" style="fill:#d8002a;fill-opacity:1;fill-rule:nonzero;stroke:none" transform="translate(472.267 258.252)"/><path d="M0 0a17.455 17.455 0 0 1-1.504-7.083c0-1.945.33-3.809.916-5.557 1.168-.439 2.266-.725 3.293-.871C1.389-11.095-.811-6.002 0 0" style="fill:#d8002a;fill-opacity:1;fill-rule:nonzero;stroke:none" transform="translate(454.356 282.794)"/><path d="M0 0c-2.404 1.049-4.709 1.157-5.672 1.151-.982-1.697-4.857-7.464-12.053-7.464-1.3 0-2.716.203-4.236.635a17.551 17.551 0 0 1 4.074-5.385C-7.102-11.26-1.453-2.606 0 0" style="fill:#d8002a;fill-opacity:1;fill-rule:nonzero;stroke:none" transform="translate(476.604 273.714)"/><path d="M0 0h16.078v-17.744L0-20.638Zm29.074-46.204L0-40.959l29.267 5.284a8.034 8.034 0 0 1 6.579 7.204l3.159 35.854c-7.789.928-14.208 6.306-16.643 13.523h-46.477v-84.118A51.292 51.292 0 0 1 0-106.72v45.448l16.078-2.9v-52.594l24.116-15.075-4.521 78.192a8.03 8.03 0 0 1-6.599 7.445" style="fill:#d8002a;fill-opacity:1;fill-rule:nonzero;stroke:none" transform="translate(429.012 248.377)"/><g style="fill:#fff"><path d="M0 0v36.254h-46.476c-2.438-7.223-8.854-12.596-16.645-13.524l3.158-35.853a8.037 8.037 0 0 1 6.582-7.204l29.266-5.277v-36.833l-16.078-10.045v43.972l-12.998-2.34a8.05 8.05 0 0 1-6.6-7.452l-4.521-78.185 40.193 25.115A51.288 51.288 0 0 1 0-47.864v38.218l-40.193 7.255v17.739h16.078V4.349Z" style="fill:#fff;fill-opacity:1;fill-rule:nonzero;stroke:none" transform="translate(535.93 233.03)"/></g></g></svg>